<svg width="269" xmlns="http://www.w3.org/2000/svg" height="314">
<defs>
<filter width="1.037215" x="-0.018607" y="-0.309917" height="1.619834" style="color-interpolation-filters:sRGB" id="filter5416">
<feGaussianBlur stdDeviation="0.439286" id="feGaussianBlur5418"/>
</filter>
<filter width="1.878897" x="-0.439449" y="-0.043039" height="1.086078" style="color-interpolation-filters:sRGB" id="filter5420">
<feGaussianBlur stdDeviation="0.439286" id="feGaussianBlur5422"/>
</filter>
<filter width="1.032608" x="-0.016304" y="-0.148501" height="1.297001" style="color-interpolation-filters:sRGB" id="filter5440">
<feGaussianBlur stdDeviation="0.439286" id="feGaussianBlur5442"/>
</filter>
<filter width="1.029033" x="-0.014517" y="-0.191641" height="1.383282" style="color-interpolation-filters:sRGB" id="filter5424">
<feGaussianBlur stdDeviation="0.439286" id="feGaussianBlur5426"/>
</filter>
<filter width="33.43956" x="-16.21978" y="-0.037646" height="1.075292" style="color-interpolation-filters:sRGB" id="filter5432">
<feGaussianBlur stdDeviation="0.439286" id="feGaussianBlur5434"/>
</filter>
<filter width="1.396809" x="-0.198404" y="-0.034825" height="1.069649" style="color-interpolation-filters:sRGB" id="filter5436">
<feGaussianBlur stdDeviation="0.439286" id="feGaussianBlur5438"/>
</filter>
<filter width="1.032128" x="-0.016064" y="-0.236833" height="1.473666" style="color-interpolation-filters:sRGB" id="filter5428">
<feGaussianBlur stdDeviation="0.439286" id="feGaussianBlur5430"/>
</filter>
<filter width="1.406468" x="-0.203234" y="-0.053272" height="1.106543" style="color-interpolation-filters:sRGB" id="filter5412">
<feGaussianBlur stdDeviation="0.439286" id="feGaussianBlur5414"/>
</filter>
<filter style="color-interpolation-filters:sRGB" id="filter4649">
<feGaussianBlur stdDeviation="0.784313" id="feGaussianBlur4651"/>
</filter>
<filter style="color-interpolation-filters:sRGB" id="filter4682">
<feGaussianBlur stdDeviation="0.447625" id="feGaussianBlur4684"/>
</filter>
<filter width="1.660452" x="-0.330226" y="-0.058567" height="1.117134" style="color-interpolation-filters:sRGB" id="filter5408">
<feGaussianBlur stdDeviation="0.439286" id="feGaussianBlur5410"/>
</filter>
<filter width="1.623123" x="-0.311561" y="-0.100567" height="1.201134" style="color-interpolation-filters:sRGB" id="filter5388">
<feGaussianBlur stdDeviation="0.439286" id="feGaussianBlur5390"/>
</filter>
<filter width="1.070286" x="-0.035143" y="-0.328" height="1.655999" style="color-interpolation-filters:sRGB" id="filter5392">
<feGaussianBlur stdDeviation="0.439286" id="feGaussianBlur5394"/>
</filter>
<filter width="1.046835" x="-0.023417" y="-0.41453" height="1.829059" style="color-interpolation-filters:sRGB" id="filter5404">
<feGaussianBlur stdDeviation="0.439286" id="feGaussianBlur5406"/>
</filter>
<filter width="1.042782" x="-0.021391" y="-0.11808" height="1.23616" style="color-interpolation-filters:sRGB" id="filter5396">
<feGaussianBlur stdDeviation="0.439286" id="feGaussianBlur5398"/>
</filter>
<filter width="5.003059" x="-2.00153" y="-0.043412" height="1.086823" style="color-interpolation-filters:sRGB" id="filter5400">
<feGaussianBlur stdDeviation="0.439286" id="feGaussianBlur5402"/>
</filter>
</defs>
<g>
<g id="svg_1">
<g style="fill:#fff;stroke:#000;stroke-width:3">
<g style="opacity:.85" id="g5444">
<g style="fill-rule:evenodd">
<path id="path4562" d="m 242.376,4.799 c -8.07187,-1.79899 -15.9656,0.743143 -23.3268,3.86796 -12.5527,4.20488 -24.7523,10.1484 -35.0142,18.6291 -8.97359,10.4783 -17.903,21.1292 -28.4356,30.0585 -1.85745,5.78116 -8.86391,7.70316 -10.3095,14.3696 -9.83194,5.32317 -9.58231,16.0081 -12.2186,25.7247 -1.26834,4.23149 -9.01801,15.1373 -7.03108,5.20557 -6.80431,-3.96576 -9.81104,12.159 -14.7072,16.4497 -3.09501,2.97665 -7.45568,10.8382 -10.8411,3.59287 -5.4223,0.953682 0.640099,10.0052 -3.70316,13.9132 -0.013336,5.10393 -7.95975,-3.60023 -7.13881,4.90677 -4.3802,8.38388 -2.62546,20.7538 -7.35613,27.7756 -5.11235,4.1604 -5.95156,12.3044 -10.5906,16.7838 0.488586,12.941 15.3618,8.86835 24.0358,12.2628 5.66087,1.38178 5.89052,-6.24432 11.9633,-0.663452 4.91254,3.74858 6.66084,-0.970886 4.21915,-4.71428 4.48547,-0.580505 19.7472,7.01912 14.5312,-1.83307 -3.13138,-3.55598 -13.7786,-8.0905 -3.66514,-8.94041 7.1657,-3.19392 21.9895,-3.29912 24.5932,-9.70756 -11.0557,-0.909409 -21.5781,4.68457 -32.6475,4.34651 8.88387,-4.60887 21.6043,-4.2403 27.495,-12.8633 6.74484,-3.89058 1.06522,-12.8369 9.67899,-12.4983 3.05908,-2.46976 12.1981,-6.04038 6.11774,-8.4689 6.63736,-6.52103 17.3532,-10.0667 21.2279,-18.6115 4.60779,-5.38296 9.87849,-10.3497 13.3456,-16.1671 8.78923,-2.04971 21.7574,1.22789 22.8355,-11.7772 4.75307,-6.85365 9.73106,-13.5954 14.7664,-19.9637 2.21594,-9.50614 12.1869,-11.5986 16.7082,-18.8847 3.98259,-7.29448 12.5963,-10.5355 14.6183,-19.4654 5.39947,-9.67786 -0.066345,-19.7168 -8.55774,-25.0119 -3.20879,-2.70576 -6.31569,-8.45132 -10.5931,-8.3158 z "/>
<path style="filter:url(#filter5420)" id="path4760" d="m 147.9125,95.93 l -2.3188,-24.106"/>
<path style="filter:url(#filter5416)" id="path4764" d="m 124.4601,127.5888 l 54.7633,-3.3476"/>
<path style="filter:url(#filter5424)" id="path4768" d="m 144.9275,102.2414 l 70.1957,-5.4137"/>
<path style="filter:url(#filter5428)" id="path4772" d="m 168.2575,76.2552 l 63.4349,-4.3807"/>
<path style="filter:url(#filter5440)" id="path4776" d="m 198.8784,46.1758 l 62.5004,-6.9865"/>
<path style="filter:url(#filter5432)" id="path4780" d="m 167.8949,73.7773 l -.0628,-27.559"/>
<path style="filter:url(#filter5436)" id="path4784" d="m 197.9056,44.7309 l 5.136,-29.7919"/>
<path style="filter:url(#filter5412)" id="path4788" d="m 122.4309,126.144 l 5.0139,-19.4755"/>
<path style="filter:url(#filter5392)" id="path4792" d="m 86.7123,180.1223 l 28.996,-3.1631"/>
<path style="filter:url(#filter5400)" id="path4796" d="m 97.232,161.1438 l -.5091,-23.8988"/>
<path style="filter:url(#filter5396)" id="path4800" d="m 99.8296,161.4952 l 47.6363,-8.7863"/>
<path style="filter:url(#filter5404)" id="path4804" d="m 114.997,140.3654 l 43.5149,2.5028"/>
<path style="filter:url(#filter5408)" id="path4808" d="m 113.2711,138.0897 l -3.0858,-17.7146"/>
<path style="filter:url(#filter5388)" id="path4812" d="m 87.2215,176.732 l -3.2707,-10.3164"/>
</g>
<path id="path4558" d="m 246.0092,4.5617 c -80.6075,59.098 -141.578,134.668 -188.927,221.908 l 2.6278,1.4761 c 47.177,-86.9224 107.845,-162.09 188.051,-220.893 l -1.7518,-2.4909 z "/>
</g>
<g style="fill-rule:evenodd">
<path style="stroke-opacity:.667" id="path3766" d="m 48.051,188.9084 v 29.5221 h 57.992 v -29.5221 h -57.992 z "/>
<path style="opacity:.85" id="path4542" d="m 28.7203,302.0767 c 30.5272,-2.77176 61.2989,-2.83243 91.8207,0 l 8.5715,-16.476 c 2.07713,-4.69308 3.91768,-9.51257 5.14415,-14.5063 1.06786,-4.3479 1.7937,-8.93896 0.782333,-13.3009 -0.904495,-3.90112 -3.28865,-7.27818 -5.85091,-10.3215 -2.9429,-3.49539 -6.30851,-6.6013 -9.81379,-9.50967 l -13.3313,-9.6909 h -57.992 l -15.4393,9.3045 c -4.05647,2.83302 -7.97476,5.90338 -11.4361,9.46205 -2.99722,3.08162 -5.81631,6.5761 -6.95333,10.7556 -1.17,4.30075 -0.499608,8.90381 0.542686,13.2384 1.5e-05,0 1.5e-05,0 1.5e-05,0 1.20368,5.00583 3.06453,9.82703 5.17071,14.5133 l 8.7846,16.5315 z "/>
<path style="opacity:.34" id="path3758" d="m 23.8877,306.9969 c 33.6025,4.88788 67.8835,4.88788 101.486,0 l 14.498,-44.2832 c 1.35509,-4.14002 2.41248,-8.42075 2.58644,-12.7811 0.12468,-3.1382 -0.252258,-6.34727 -1.52904,-9.20699 -1.10763,-2.47984 -2.90927,-4.61235 -5.07819,-6.2075 -2.41052,-1.7733 -5.20477,-2.94235 -8.06087,-3.7867 -7.36594,-2.17775 -15.1349,-2.47792 -22.8044,-2.61372 -9.31162,-0.164337 -18.6251,0.153549 -27.9387,0.153549 -9.5648,0 -19.1306,-0.31395 -28.6935,-0.153549 -8.21844,0.137787 -16.5206,0.472397 -24.4659,2.61372 -3.13495,0.845337 -6.21743,2.00554 -8.94797,3.7867 -2.39769,1.5637 -4.48849,3.6627 -5.85207,6.2075 -1.49686,2.79478 -2.08761,6.02449 -2.07651,9.20699 0.015088,4.35454 1.02618,8.65093 2.37855,12.7811 l 14.498,44.2832 z "/>
<path style="stroke-opacity:.667" id="path3762" d="m 43.2183,228.2713 v -9.8407 h 67.6573 v 9.8407 h -67.6573 z "/>
</g>
<path style="filter:url(#filter4649)" id="path4599" d="m 24.6062,306.404 c 33.0728,4.81015 66.8135,4.81015 99.8859,0 l 14.2699,-43.5855 c 1.33379,-4.07501 2.37477,-8.28784 2.54582,-12.5793 0.122757,-3.089 -0.248383,-6.24786 -1.50487,-9.0623 -1.09024,-2.44051 -2.86386,-4.53952 -4.99797,-6.10912 -2.37282,-1.74573 -5.12357,-2.8961 -7.93425,-3.72768 -7.24998,-2.14329 -14.8962,-2.43849 -22.4448,-2.57234 -9.16487,-0.161392 -18.3317,0.151566 -27.4984,0.151566 -9.41405,0 -18.829,-0.30899 -28.2411,-0.151566 -8.08892,0.135803 -16.2602,0.465454 -24.0802,2.57234 -3.08556,0.832535 -6.11941,1.97406 -8.80696,3.72768 -2.35988,1.53908 -4.41773,3.60465 -5.75983,6.10912 -1.47328,2.75047 -2.05471,5.93002 -2.04377,9.0623 0.014836,4.28564 1.01,8.51419 2.34104,12.5793 l 14.2695,43.5855 z "/>
<path style="opacity:.04;filter:url(#filter4682)" id="path4686" d="m 11.9629,244.0868 c -0.345136,9.93027 8.52329,13.9059 10.1831,8.43449 1.32724,-4.37418 35.981,-19.0595 14.3254,-20.7354 -7.26978,-0.248962 -24.2913,7.32741 -24.5085,12.3009 z "/>
<path style="stroke-opacity:.667;fill-rule:evenodd" id="path3770" d="m 43.2183,191.2584 a 2.52205,2.56781 0 1,0 5.13559,0 0,-5.13559 0 -67,0 0,0"/>
</g>
</g>
</g>
</svg>
