<?xml version="1.0" encoding="UTF-8"?>
<svg version="1.1" viewBox="0 0 364 486" xmlns="http://www.w3.org/2000/svg">
 <path d="m0 0v486h364v-486h-364z" fill="#010101"/>
 <path d="m146 9-2 4 2-4z" fill="#ffc397"/>
 <path d="m147 9-5 17h1l2-5h1c1.21 4.7968 1.657 7.385 7 8l-5-4-2-8 12 10c-0.642-3.9406-2.127-5.1932-6-6v-1l4-1v-1l-10-2 1-7z" fill="#ae6b1d"/>
 <path d="m143 12 1 1-1-1z" fill="#8d8883"/>
 <path d="m143 13-2 4 2-4z" fill="#ffb183"/>
 <path d="m140 14v3h1l-1-3z" fill="#ae6b1d"/>
 <path d="m152 16v1l4 1-4-2z" fill="#eaaf6b"/>
 <path d="m156.33 16.667 0.334 0.6666-0.334-0.6666z" fill="#733314"/>
 <path d="m140 17-1 9h1c1.644-3.4367 2.357-5.8373 0-9z" fill="#f7d8a5"/>
 <path d="m141 17c0.981 5.3459-1.266 7.5115-5 11h3l-1 17c6.973-3.172 8.847-15.645 9-23h-1l-1 5h-2l-1-1 2-9h-3z" fill="#e0a65c"/>
 <path d="m146 17v3l2-3h-2z" fill="#f1b756"/>
 <path d="m150 17v1h4l-4-1z" fill="#f8d195"/>
 <path d="m139 18v3h1l-1-3z" fill="#595133"/>
 <path d="m144.33 19.667 0.334 0.6666-0.334-0.6666z" fill="#350e03"/>
 <path d="m147 19 3 4-3-4z" fill="#fdda82"/>
 <path d="m145 21-2 6c2.554-1.6497 3.098-3.1196 2-6z" fill="#f8d195"/>
 <path d="m137 22-1 5 3-5h-2z" fill="#ca8831"/>
 <path d="m148 25 5-1 2 5-3 5 4-5 8 3v3l-6-1-3 6 4-3c6.313 1.9758 11.808-5.2101 5-6l-6-7v3c-3.498-2.8816-6.206-5.6252-10-2z" fill="#d6a56c"/>
 <path d="m134 23 1 4h1l-2-4z" fill="#f8dea1"/>
 <path d="m151 24 4 5-4-5z" fill="#fdda82"/>
 <path d="m134 25 1 1-1-1z" fill="#89724f"/>
 <path d="m136 28-2.961 24 1.961 21 6 7v2l-4 1c0.322 5.0592-1.964 10.93 3 14l3.98-12.09-2.98-21.91c-9.969-10.594 2.533-23.756-2-35h-3z" fill="#e3bf85"/>
 <path d="m146 28 1 7 6-6-7-1z" fill="#010101"/>
 <path d="m164 28 2 2c1.473 5.7694-1.307 8.0468-7 7l-1 3 6 1-1-2h6v1l-2 1 8 3c-0.501-7.2322-4.54-12.915-11-16z" fill="#c88a50"/>
 <path d="m156 29-6 4c2.965 3.2066 6.487-0.4016 6-4z" fill="#875824"/>
 <path d="m146 30c-2.09 3.8307-4.225 8.2487 1 10-2.663 2.4049-6.837 4.6858-8.257 8.1042-2.877 6.9277 3.667 17.094 5.078 23.985 0.754 3.6806 0.12 7.2607 1.179 10.91l4-3-2-11 3 5h1c-1.21-12.106-15.24-23.312-1-30.999l-4-13z" fill="#a7673c"/>
 <path d="m157 30-7 5c2.857 4.3826 6.221 3.8249 8-1l6 1v-3l-7-2z" fill="#e7c188"/>
 <path d="m151.33 32.667 0.334 0.6666-0.334-0.6666z" fill="#f7d8a5"/>
 <path d="m172 33 3 13 1 2 5 1-9-16z" fill="#a95f26"/>
 <path d="m148 35v4h1l-1-4z" fill="#ffbb71"/>
 <path d="m149 35v4h4v-1l-4-3z" fill="#ca8831"/>
 <path d="m149 41 3-2-3 2z" fill="#655225"/>
 <path d="m143 46 10 31 20-4c-2.61-10.839-1.45-37.904-19.91-33.238-3.58 0.905-6.69 4.609-10.09 6.238z" fill="#010101"/>
 <path d="m163 39 2 3h1l3-2-6-1z" fill="#955b25"/>
 <path d="m133 40v3h1l-1-3z" fill="#bb9b7c"/>
 <path d="m144 40c-4.892 5.7399-12.44 16.358-3 23-1.933-12.908-2.014-12.746 6-23h-3z" fill="#c69257"/>
 <path d="m166 41c1.119 6.5003 4.958 11.791 6.572 18 2.132 8.2039-0.728 15.712 8.428 20l-1-7h1v4l5 3c-2.5-12.872-9.02-26.938-16-38h-4z" fill="#e6cf9d"/>
 <path d="m171 42c2.149 6.4048 4.977 17.694 12 20v-4c-4.858-2.8063-7.62-9.5196-7-15l-5-1z" fill="#d9a84e"/>
 <path d="m132 46v6h1l-1-6z" fill="#bb946a"/>
 <path d="m167 46 1 1-1-1z" fill="#9b7c72"/>
 <path d="m175 46c1.137 4.4316 3.464 10.423 8 12 0.173 8.384 2.406 17.385 9 23l1-3-2-8-8-18-6-6h-2z" fill="#ca8831"/>
 <path d="m142 48 2 9h1l-3-9z" fill="#e0a65c"/>
 <path d="m170 54 3 18h1c-0.119-5.7625 0.061-13.666-4-18z" fill="#fde3c0"/>
 <path d="m133.33 56.667 0.334 0.6666-0.334-0.6666z" fill="#cba979"/>
 <path d="m133.33 58.667 0.334 0.6666-0.334-0.6666z" fill="#68573d"/>
 <path d="m181 62 5 17-5-3v-4h-1c0.146 6.0192 2.406 9.2266 7 13 1.665-6.2276-0.543-19.161-6-23z" fill="#dab77e"/>
 <path d="m244 62 2 3v1l-2 4h4c-0.127-3.9024-0.599-5.9147-4-8z" fill="#9d5d35"/>
 <path d="m93 63-2 5 5-4-3-1z" fill="#c3996a"/>
 <path d="m141 63v6h1l-1-6z" fill="#cda063"/>
 <path d="m171.33 63.667 0.334 0.6666-0.334-0.6666z" fill="#776747"/>
 <path d="m91.333 65.667 0.3334 0.6666-0.3334-0.6666z" fill="#595133"/>
 <path d="m94 73h1l2-1-2-5 3 3 4-2-3-3c-4.826 1.0332-5.3347 3.3698-5 8z" fill="#bb6b1e"/>
 <path d="m249 67 5-1-5 1z" fill="#74472e"/>
 <path d="m266.33 65.667 0.334 0.6666-0.334-0.6666z" fill="#fcf0cd"/>
 <path d="m267.33 65.667 0.334 0.6666-0.334-0.6666z" fill="#c39f7b"/>
 <path d="m98 66v1l6 3-6-4z" fill="#917f69"/>
 <path d="m134.33 66.667 0.334 0.6666-0.334-0.6666z" fill="#59413a"/>
 <path d="m249 67 1 5 4-2v-4l-5 1z" fill="#aa723f"/>
 <path d="m254 66-1 3 11 3v-1l-2-3-8-2z" fill="#875824"/>
 <path d="m261 66v1l1 4 8 1v-3l-9-3z" fill="#54270f"/>
 <path d="m265 66c1.556 1.8129 2.444 1.8129 4 0h-4z" fill="#876254"/>
 <path d="m95 67 2 5 8 4v1l-5 2 10 1 1 14-4-1v1l5 1-1 5 3 2h1l2-2-4-26-4 2-2-6h-9l-3-3z" fill="#7a4218"/>
 <path d="m248 67 2 3-2-3z" fill="#54270f"/>
 <path d="m88 68 2 3-5 2 2 3c-5.4841 0.2185-10.062-1.5204-12 5h1c3.3775-2.2495 6.3298-2.9045 10-1l1-3h7v-1l-5-3 8 1c-0.5789-1.9103-0.9854-3.3337-2-1-1.7427-3.5834-2.9886-4.6886-7-5z" fill="#ba7c2d"/>
 <path d="m135 68v4h1l-1-4z" fill="#fcf0cd"/>
 <path d="m172.33 68.667 0.334 0.6666-0.334-0.6666z" fill="#a99086"/>
 <path d="m190 68 4 4 2 10c2.476-5.9035 0.282-12.193-6-14z" fill="#876f70"/>
 <path d="m82 72v1l8-2c-3.1709-2.0956-5.0165-1.0468-8 1z" fill="#e59758"/>
 <path d="m143 69v14h1l-1-14z" fill="#c88a50"/>
 <path d="m147 69c-1.538 4.6141-0.138 9.2893 2 11-4.338 2.4701-6.577 7.7503-1 10l-2 3 5 5-2-15 5 3 1-6 3 5v-6l3 6 7-5v-1l-5-1v-1l5-1 3 6h-4l6 4c1.016-4.9447-4.554-15.959-10-10h-1c-2.747-3.0947-5.986-0.86-9 1l-1-4-2 1-3-5z" fill="#a95f26"/>
 <path d="m240.67 69.333 0.666 0.3334-0.666-0.3334z" fill="#354331"/>
 <path d="m243 70v1h6c-0.115 5.3824-0.906 9.4537-6 12l2 3h-4v1l6 1v1l-4 3c3.645-0.1653 4.838-1.3419 5-5h3l5-10 4 6h1v-9l-3-3h-2l-1 5h-1v-6l-4 2-1-3-6 1z" fill="#d79f53"/>
 <path d="m67 70v1l5 7h1l1-4-7-4z" fill="#884e2d"/>
 <path d="m104.67 70.333 0.666 0.3334-0.666-0.3334z" fill="#b68869"/>
 <path d="m172.33 70.667 0.334 0.6666-0.334-0.6666z" fill="#595133"/>
 <path d="m238 70-4 8 6-8h-2z" fill="#d9a531"/>
 <path d="m240 70-4 10h1l6-10h-3z" fill="#b76511"/>
 <path d="m254 72 4-1 6 12h1l3-4-4 14v1l3 4-2 7 8 4v1l-1 3-13 5 5 7h1l3-3-4 4v1c5.254-0.874 6.403-5.135 7-10 9.05-1.837 2.526-10.252-3-12l3-8h1v6l3-4-2 1v-1l2-2v-1l-3-13v-1l2-1-6-6 1 3c-3.341-3.3424-10.082-11.534-15-6z" fill="#cb9b35"/>
 <path d="m68 71 4 5v-1l-4-4z" fill="#4f3022"/>
 <path d="m73 72-1 8-5-1v1l6 1v1h-6v1l9 2 1 8h-1l-3-4 1 6 5-1c-1.556-6.536-0.929-11.242 5-15v-1l-8 3h-1v-6l8-1-10-2z" fill="#aa5a1a"/>
 <path d="m233 71 1 4 3-3-4-1z" fill="#9d5f28"/>
 <path d="m242 71v1l7 1-7-2z" fill="#e9cf7d"/>
 <path d="m94 76v1l-8 3 7-1-15 17v1l27-20c-1.031-1.5461-2.114-4.1842-4-4.8333-2.093-0.721-10.499 2.312-7 3.833z" fill="#9d5f28"/>
 <path d="m163 72v1h5l-5-1z" fill="#3e2c1e"/>
 <path d="m190 72 3 6v1l-4 10 9 2c-2.409-6.2553-1.915-15.252-8-19z" fill="#9d5f28"/>
 <path d="m192 72 1 4h1l-2-4z" fill="#49342f"/>
 <path d="m233 72 1 1-1-1z" fill="#d3aa86"/>
 <path d="m237 80 2-3h3v3c4.046-1.3429 3.953-4.0654 4-8-5.229 0.4026-7.692 2.9875-9 8z" fill="#f7f2da"/>
 <path d="m246 72v5h1l1-5h-2z" fill="#e9e5ae"/>
 <path d="m254 72v4h1l1-4h-2z" fill="#8b4c1a"/>
 <path d="m266 72v4h1l-1-4z" fill="#b59087"/>
 <path d="m75 75v1h12c-3.575-3.432-7.488-1.874-12-1z" fill="#824911"/>
 <path d="m89 73 4 2-4-2z" fill="#d6a56c"/>
 <path d="m109 73v1h3l-3-1z" fill="#6a6a54"/>
 <path d="m135 73v10h1l-1-10z" fill="#716b4b"/>
 <path d="m161 73 1 3c6.883-3.3586 11.524 3.6122 11 10l-6-4h4l-3-6-5 1v1l5 1v1l-7 5-3-6v6l-3-5-1 6-5-3 4 19 2 1 3-2c-0.746 2.946-1.197 4.311 2 5l-1 4 3-2c1.912 4.334 7.694 2.171 5 1v-1h5l2-6c1.482 2.1 4.299 2.901 5.543 5.028 5.546 9.48 3.02 18.963 17.457 20.972l1-13h-1l-7 10c-0.7-5.526 14.895-23.425-2-17 10.824-18.637-9.35-35-27-35z" fill="#834416"/>
 <path d="m267 73 2 5-2-5z" fill="#836765"/>
 <path d="m109 76 3-2-3 2z" fill="#d4b4a7"/>
 <path d="m136 74v18h1v-9l4-1v-2l-3-6h-2z" fill="#f8d195"/>
 <path d="m248 74-5 6 2 3h1l2-9z" fill="#e9cf7d"/>
 <path d="m64 75 2 5-4 2v1l7 2-2-2v-1h6v-1l-6-1v-1h3v-1l-6-3z" fill="#884e2d"/>
 <path d="m187 75 1 14c3.794-4.821 2.848-9.5055-1-14z" fill="#d79f53"/>
 <path d="m234.33 75.667 0.334 0.6666-0.334-0.6666z" fill="#fbc28a"/>
 <path d="m259 76 2 7h-4v1l3 2-7 7v8l1-4-7 1 6 10-2 3h5v-3h1l1 6h1v-2h1l1 5 6-1-3-2 3-3 2 4 3-2 1-3v-1l-8-4 2-7-3-4v-1l2-1 2-13-3 4h-1l-5-7z" fill="#aa5a1a"/>
 <path d="m231 77v1h3l-3-1z" fill="#acb0a7"/>
 <path d="m239 77-2 5 8 1-3-6h-3z" fill="#e8dfa4"/>
 <path d="m256 77-1 3c-4.017-0.8773-4.243 2.7757-4 6l8-4-3-5z" fill="#a1690f"/>
 <path d="m84 78-4 2v1l6 2-2-2v-3z" fill="#54270f"/>
 <path d="m197 78v4h-1v-2h-1c0.492 10.733 6.334 12.938 15 17 0.272-6.7599-3.746-13.505-11-12l-2-7z" fill="#6b4a41"/>
 <path d="m230 80h5c-1.769-2.0339-3.231-2.0339-5 0z" fill="#f8dea1"/>
 <path d="m235 78-2 3 2 4v-7z" fill="#7a3709"/>
 <path d="m84 80v1l9-1h-9z" fill="#7a4218"/>
 <path d="m71 132 9-2v-1l-2-1 3-1v4l8-6h1l3 4-8 1 4 3-2 2v1l5 8 5-3v4l3-1v8l5-12v-1l-2-3 5-2h1l9 9c-0.083-7.465-4.046-17.047-13-15l-1-5h-1l-3 13c-3.4877-8.753 4.395-14.903-7-20l3 3v2l-11 2 1-14h8v-2l-5-4 5-3-6 1 6-6-1-3 4-2v-1l-2-2 8-3c-2.24-12.886-20.851 9.912-24.146 13.749-5.692 6.631 0.701 12.641-0.547 19.251-1.014 5.37-5.97 9.47-7.307 15z" fill="#d6b293"/>
 <path d="m229 79-2 6 6-2v-1l-4-3z" fill="#c3996a"/>
 <path d="m231 79v3l4-1-4-2z" fill="#b57c3c"/>
 <path d="m103 80v4l-5 3 7 5 4 1-4-7c3.297-0.4142 2.95-2.9224 3-6h-5z" fill="#aa723f"/>
 <path d="m108 80-3 6 6 8-1-14h-2z" fill="#b99553"/>
 <path d="m236 80-5 8-3-3-2 4c5.436 1.8934 13.554-2.8315 10-9z" fill="#e3bf85"/>
 <path d="m79 85h1l3-3-4 3z" fill="#ebbd7b"/>
 <path d="m87 81-3 10h1l7-9-5-1z" fill="#c77929"/>
 <path d="m220 81v2h2v-2h-2z" fill="#3a262c"/>
 <path d="m239 81-6 8 6-2 4-4-4-2z" fill="#ba7c2d"/>
 <path d="m80 85-1-2h-1v12c5.5275-1.645 6.3087-6.9842 8-12l-6 2z" fill="#e0a65c"/>
 <path d="m144.33 82.667 0.334 0.6666-0.334-0.6666z" fill="#eee8d6"/>
 <path d="m229.33 82.667 0.334 0.6666-0.334-0.6666z" fill="#99570f"/>
 <path d="m257.67 82.333 0.666 0.3334-0.666-0.3334z" fill="#b79d87"/>
 <path d="m272 82v1l3 13v1l-2 3c5.219-3.5551 5.566-15.748-1-18z" fill="#99570f"/>
 <path d="m82 83-2 6 2-6z" fill="#48271f"/>
 <path d="m231 83v5l3-5h-3z" fill="#ae6b1d"/>
 <path d="m240 83v4l5-1-5-3z" fill="#f8d195"/>
 <path d="m252 95h1l3-2-2-6v-1l3-3c-5.804 1.8569-6.807 6.7438-5 12z" fill="#d9a84e"/>
 <path d="m69 84c-1.0494 4.3093 0.4336 6.5529 3 10h1l1-9-5-1z" fill="#e59758"/>
 <path d="m254 87 3 1 3-2c-2.155-2.4424-3.991-1.1129-6 1z" fill="#bb895d"/>
 <path d="m75 85 1 8h1l-2-8z" fill="#d37d30"/>
 <path d="m227 85 1 1-1-1z" fill="#97892f"/>
 <path d="m239.33 85.667 0.334 0.6666-0.334-0.6666z" fill="#834416"/>
 <path d="m218 86 4 5-4-5z" fill="#b97d21"/>
 <path d="m231 90 1 3 8-6-9 3z" fill="#c69257"/>
 <path d="m248 87 1 9 5 1-1 4 2-6c-4.276-2.3229-4.021-4.9249-2-9l-5 1z" fill="#b36d30"/>
 <path d="m95 87v1l8 2-8-3z" fill="#834416"/>
 <path d="m135 87v3h1l-1-3z" fill="#9a715e"/>
 <path d="m240 87 1 4 6-2-7-2z" fill="#c96d39"/>
 <path d="m97 88-1 5h6v-1l-5-4z" fill="#b36d30"/>
 <path d="m99 88 3 4-1-4h-2z" fill="#3a221d"/>
 <path d="m103 88-4 6v5h5l-1-11z" fill="#e5b17f"/>
 <path d="m142 88 2 6-2-6z" fill="#f7f2da"/>
 <path d="m143 88 2 3-2-3z" fill="#e8dfa4"/>
 <path d="m222 89 3 1-1 8 3 3h1l1-8-2 2-1-3 3-2-7-1z" fill="#d9a531"/>
 <path d="m239 88-4 8-4-1c1.359 3.8766 4.249 3.7572 8 4l5-5-5-6z" fill="#f7d8a5"/>
 <path d="m276 88v5h1l-1-5z" fill="#ef992d"/>
 <path d="m68.333 89.667 0.3334 0.6666-0.3334-0.6666z" fill="#74472e"/>
 <path d="m141 89-1 7 2 2h1l2-2-1 4c5.744 0.973 6.279 3.217 9 8h1l2-2v3l4 2v-5l-2-5-3 2-2-1-4-4-3-5 2-3-3-1-3 5-1-5z" fill="#b3823d"/>
 <path d="m176 89 5 5-5-5z" fill="#a95f26"/>
 <path d="m189 89 2.639 15.583l8.36 7.42c12.37-3.271 15.999 3.314 16 15h1l9-18 4 1v-1c-4.422-1.243-8.923-3.25-12 1h-2l-1-3-4 1c-0.59-13.015-11-15.908-22-19z" fill="#dab77e"/>
 <path d="m258 89-1 5h4l-3-5z" fill="#cd8d3d"/>
 <path d="m96 90-3 2 1 3c-3.9221 0.6478-4.9855 2.2363-6 6l6-1 2 3 4-6 1-3v-1h-5v-3z" fill="#c88a50"/>
 <path d="m102.33 90.667 0.334 0.6666-0.334-0.6666z" fill="#b07d4f"/>
 <path d="m119 90 4 6-4-6z" fill="#bb946a"/>
 <path d="m175 90-15 3v4h1l6-2c5.79-4.3802 9.534 1.2659 15 3l-7-8z" fill="#64290d"/>
 <path d="m222 92 3-2-3 2z" fill="#f5b868"/>
 <path d="m69 91 3 3-3-3z" fill="#8b4c1a"/>
 <path d="m73 91-6.59 16-1.41 21l2 2h1l5-16h1l1 3h1c-1.41-8.36-2.1303-14.68 3-22h-5l-1-4z" fill="#c77929"/>
 <path d="m106 91c-2.268 3.2334-4.941 10.446-3 14l2-11h1l4 3c-3.361 9.719-6.043 18.978-0.825 28.91 2.946 5.608 7.924 8.316 8.825 15.09h1l1-8c-9.55-2.942-4.298-15.723-11-20l1-3 2-15-6-4z" fill="#955b25"/>
 <path d="m224 91-1 5h2l-1-5z" fill="#e8dfa4"/>
 <path d="m227 91v4h1l-1-4z" fill="#f8dfb7"/>
 <path d="m228 91 1 3 3-3h-4z" fill="#b97d21"/>
 <path d="m247 91-4 7 4-2h5-3l-2-5z" fill="#cd8d3d"/>
 <path d="m226.33 92.667 0.334 0.6666-0.334-0.6666z" fill="#99570f"/>
 <path d="m231 95 4 1 1-4-5 3z" fill="#bb6b1e"/>
 <path d="m136.33 93.667 0.334 0.6666-0.334-0.6666z" fill="#9f7a62"/>
 <path d="m165 94-2 4 2 4-2 5 6-1 1-5-3 1v-6h1l5 4-1-6 7 4c-1.446-8.6755-11.734-3.4335-14-4z" fill="#9d5d35"/>
 <path d="m230 93-4 15h6c-2.623-5.252-1.503-9.5345 0-15h-2z" fill="#9d4810"/>
 <path d="m105 94c1.296 8.084-1.754 9.997-5 17 6.084-2.427 8.535-7.885 10-14l-5-3z" fill="#5b2c1a"/>
 <path d="m120 94-2 5v1c3.443-1.1515 3.969-2.9631 2-6z" fill="#cdc3c9"/>
 <path d="m128 97 5-2v1c-2.158 2.5229-0.446 5.294 2 7l-1-4 4 1-1-4-3 1c-0.878-4.0962-4.513-3.3499-6 0z" fill="#cba979"/>
 <path d="m204 94v1l16 10c-0.576-3.097-8.65-14.138-10-8l-6-3z" fill="#3a221d"/>
 <path d="m239 99-4-1-6 4 1 4c3.032-0.815 7.408-2.043 8 2l5-1 7 1-2-12-5 2 1-4c-3.403 0.5875-4.272 1.6494-5 5z" fill="#e9b955"/>
 <path d="m72 95v4h1l-1-4z" fill="#5b2c1a"/>
 <path d="m123 95-8 7 4 3v1l7 1 7-11-10-1z" fill="#a7673c"/>
 <path d="m134 95v2h2l-2-2z" fill="#fdfdf8"/>
 <path d="m141 95-4 1 4 2-3 10 4-8 6 2v-1l-7-6z" fill="#884e2d"/>
 <path d="m143 96 2 3v-3h-2z" fill="#f8d195"/>
 <path d="m222 96-1 6h1l2-6h-2z" fill="#ffd76e"/>
 <path d="m76 97-1 9h1l2-9h-2z" fill="#54270f"/>
 <path d="m98 97-1 3 3 2-3 2 3 4h-1l-1-2c-3.6496 3.825-6.9898 3.914-12 3l-1 14 11-2v-2l-3-5c7.084-1.988 14.409-9.313 13-17h-1l-2 8 1-5v-1l-4-2h-2z" fill="#a7673c"/>
 <path d="m221 106-11-7 1 9 4-1 1 3h2l9-4-1-9-5 9z" fill="#cda063"/>
 <path d="m271 97-2 9c2.746-2.689 3.502-5.378 2-9z" fill="#9c501a"/>
 <path d="m119 98 1 1-1-1z" fill="#57665b"/>
 <path d="m138 100-4-1 1 4-4-4-5 8c-2.396-0.575-2.487-0.475-3 2l-7-6 4 12h1v-3l2 2h1l1-4h1l2 11 3-1 2 12c7.704-4.513 1.671-15.053 2-22h1l2 19h1l2-14-2-6 7 2-8-3 3-10-3 2z" fill="#ab6b4f"/>
 <path d="m178 100 3-2-3 2z" fill="#b36d30"/>
 <path d="m230 98v3l3-3h-3z" fill="#c35f1a"/>
 <path d="m232 99v2h2v-2h-2z" fill="#8b4c1a"/>
 <path d="m96 100c0.614 2.851 1.3027 2.854 4 2l-4-2z" fill="#e1bd92"/>
 <path d="m111 100-3 10c5.972-1.219 9.055-6.282 3-10z" fill="#010101"/>
 <path d="m123 102 3-2-3 2z" fill="#e9c3a7"/>
 <path d="m142 100-2 8c6.955 2.206 7.638 7.364 9 14h1l-1-7 4-3-3 1c2.302-4.86 2.244-8.601-1-13h-7z" fill="#daaf7b"/>
 <path d="m181 100v1h4l3 6c-0.514-4.875-1.986-6.621-7-7z" fill="#a64e24"/>
 <path d="m116 101 5 4-5-4z" fill="#d1a395"/>
 <path d="m220 101-1 5 1-5z" fill="#93693c"/>
 <path d="m226 101 1 5h-5l6 1-2-6z" fill="#ab6b4f"/>
 <path d="m230.33 101.67 0.334 0.666-0.334-0.666z" fill="#f7f2da"/>
 <path d="m72.333 102.67 0.3334 0.666-0.3334-0.666z" fill="#ffbb71"/>
 <path d="m92 104 3-2-3 2z" fill="#9f693d"/>
 <path d="m115 102-1 6 1-6z" fill="#48271f"/>
 <path d="m173 102-1 6h-5v1l2 1-7-2-5 11 3 3h1l2-10 5 3 3-3c1.567 2.742 7.383 7.091 8 2h1v2h1l-5-7 5-1-8-6z" fill="#9d5d35"/>
 <path d="m249 102 1 6-5 1 8 5-1 4 3-9-4 2 2-3-4-6z" fill="#ba8330"/>
 <path d="m89 103 5 4-1 2v1l3-6-7-1z" fill="#d6a56c"/>
 <path d="m95 103 1 5h4l-5-5z" fill="#7a3709"/>
 <path d="m190 103-2 5 5-2-3-3z" fill="#bb895d"/>
 <path d="m71 104 1 7h1v-7h-2z" fill="#d88f3b"/>
 <path d="m116 104 3 5-3-5z" fill="#e9c397"/>
 <path d="m231 105 1 3-6 1-9 18h1l1-3 2 2 6-12 3 1-2 3 3 1 2 9h1l3-16-4 1c4.226-7.741 9.685 3.564 11 8l4-2-1 4 12-3-2-12h-1l-4 10 1-4-10-7-5 1c-0.451-3.592-3.782-2.987-7-3z" fill="#d79f53"/>
 <path d="m75 106 1 11h-1l-1-3h-1l-5 16h-1l-2-2 1-8c-4.672 4.126-3.2423 8.343-3 14h1l1-3h1l-3 7c11.2-6.061 17.258-20.291 12-32z" fill="#9d4810"/>
 <path d="m120 106 3 3-3-3z" fill="#5b330d"/>
 <path d="m155 106-5 7 3-1-1 6 4 1 2-10-3-3z" fill="#d9a84e"/>
 <path d="m106 107-6 4v1c2.951-0.708 6.083-1.615 6-5z" fill="#d88f3b"/>
 <path d="m110 110h4l2 5 4-6-10 1z" fill="#c48e64"/>
 <path d="m235.33 108.67 0.334 0.666-0.334-0.666z" fill="#4e2506"/>
 <path d="m236 108-2 1-1 4 4-1-1-4z" fill="#915b32"/>
 <path d="m139 109 1 5 5-4-6-1z" fill="#824911"/>
 <path d="m176 109 4 3-4-3z" fill="#c69257"/>
 <path d="m198 109c-3.114 5.746-9.753 8.722-8 16l7-10h1l-2 12 5-1c-1.509 6.85 4.291 12.391 11 11l-2 4 8 3 2-3v-1h-4v-1l7 3h1c-0.827-3.795-2.171-4.696-6-5l1-2-12-1c2.648-2.434 6.94-4.912 8.397-8.3 4.95-11.53-6.11-17.09-15.4-13.7v-3h-2z" fill="#9d4810"/>
 <path d="m237 109 1 9-2-3h-1c-1.081 9.674 1.241 16.682 12 17l-1-4-8-4 1 4c-5.148-5.931 5.47-11.878-2-19z" fill="#f7f2da"/>
 <path d="m76.333 110.67 0.3334 0.666-0.3334-0.666z" fill="#cd8d3d"/>
 <path d="m99 110 2 3v1c-5.8125 0.973-4.1863 4.646 0 7l-1-6 4-4-5-1z" fill="#8b4c1a"/>
 <path d="m104 110 1 18 4-1-5-17z" fill="#a85e3c"/>
 <path d="m113 110-4 2c3.679 5.34 1.606 15.717 9 17v-15l-2 1-3-5z" fill="#9f693d"/>
 <path d="m125 110-1 4h-1l-2-2-1 26h1v-21l7 2-3-9z" fill="#cda063"/>
 <path d="m135 110c-0.691 7.599 4.724 15.914-2 22l-2-12-5 6h1l1-3h1c-0.69 3.304-0.921 5.088 2 7l-10.86 19.96-5.14 4.04h-1l-6 21h1l6-5h1c0.821 3.814 3.068 2.336 6 1l-1-4c2.953 1.281 4.085 1.231 5-2l3 3 18-7 1-15h3v-1c0.889-5.966 5.078-5.527 10-7l-1-5h-3c-5.116 8.486-12.246 11.256-13 23-2.655-1.664-4.247-2.495-5 1l-3-2-11 7v4h-1v-5h-1l-5 6h-7c4.509-7.909 10.342-15.695 15.434-23.166 2.191-3.215 3.321-6.081 7.566-4.834l5-9-4-20z" fill="#dab77e"/>
 <path d="m146 110-2 4c2.649-0.568 3.355-1.588 2-4z" fill="#f8d195"/>
 <path d="m157 110-1 9-4-1 1-2-4-1 1 7 7-1 3-3 1-6-4-2z" fill="#d88f3b"/>
 <path d="m98 111-5 3 3 3 5-3v-1l-3-2z" fill="#391b0a"/>
 <path d="m117.33 111.67 0.334 0.666-0.334-0.666z" fill="#884e2d"/>
 <path d="m266 111-2 3 4 1-2-4z" fill="#733314"/>
 <path d="m77 112 1 7h1l-2-7z" fill="#ca8831"/>
 <path d="m163 112 4 6 1-6h-5z" fill="#c88a50"/>
 <path d="m171 112-1 4c9.49 6.158-0.493 18.236-10 16l3 6-1 3 5 1-2 3 1 4-6 1 1 4-5 3 1-3-6-1v6h-1v-6h-2l-1 8-18 7-3-3c-1.321 2.681-2.166 2.984-5 2l1 4-6-1h-1l-6 3-5 5v-5h-1c0.152 4.772 1.165 8.425 6 10 0-2.501 17.445-6.525 21-7.167 12.129-2.19 19.005-16.805 33-15.833 4.199 0.292 10.004 5.107 14 7l-2 3 4-3h1c-1.278 7.341 2.915 14.371 9.49 5.941 5.869-7.525 7.858-18.092 13.51-25.941-0.821 4.688-3.273 10.644 1 14l2-5v17l12-11-3-7c7.814 1.493 1.114 19.443 1 26h1v-3l3 2 1-9-2-3 4-6c4.959 3.034 24.722 11.851 27 5l4-4-11 1 4-7-8 5h-1l2-4-3-5v-1h-4l4 7-1 4-3-2h-1l-1 3h-1v-4l-3-3-3 1-4-3 2-2-4-1c2.841-6.906-0.764-8.438-7-10l1 2h-1c-10.634-8.878-23.963-17.826-31-30h-1v3l-8-5z" fill="#bb844d"/>
 <path d="m259 112 2 6-2-6z" fill="#733314"/>
 <path d="m118 113 1 18h1v-18h-2z" fill="#f7d8a5"/>
 <path d="m141 113-1 5 6-3-5-2z" fill="#955b25"/>
 <path d="m237 113-1 5 1-5z" fill="#e1c697"/>
 <path d="m146 114 1 3-1-3z" fill="#d37d30"/>
 <path d="m163 114-1 6h1l1-3h1l-2 12h1l8-11-1 9-4 1c-0.761 3.251-2.915 3.306-6 3 9.435 10.795 11.989-9.729 12-15l-5-1-1 3-1-3-3-1z" fill="#d6ae6f"/>
 <path d="m227 114-6 16h1l3-11h1l-5 17 3 1 2-5h1l2 9h1v-3l3 1-2-20-3-1 2-3-3-1z" fill="#ecd9aa"/>
 <path d="m241 114c-1.069 4.659-7.051 10.435-2 14l-1-4 11 1-2-2 1-4-4 2-3-7z" fill="#e9cf7d"/>
 <path d="m100 115v21c1.287-7.116 6.35-15.391 0-21z" fill="#bf7b39"/>
 <path d="m139 115v4h1l-1-4z" fill="#c4a395"/>
 <path d="m232 115v5h1l-1-5z" fill="#a1690f"/>
 <path d="m69 116-1 6h4l-3-6z" fill="#9d5f28"/>
 <path d="m134 150c5.995-1.683 9.394-6.883 14-10.787 8.632-7.315 15.379-6.152 12-19.213-2.958 0.398-6.932 2.087-9.856 1.224-2.874-0.848-3.656-5.264-7.143-4.218-5.003 1.501-3.277 7.175-3.706 10.994-0.944 8.41-5.958 13.276-5.295 22z" fill="#010101"/>
 <path d="m121 117 2 16h1c2.091-6.189 1.808-11.238-3-16z" fill="#a64e24"/>
 <path d="m147 117 1 5h1l-2-5z" fill="#fbc28a"/>
 <path d="m164 117-1 3-1-2h-1l1 8h2v-9z" fill="#e7d2b2"/>
 <path d="m271 117v3l2-1v-1l-2-1z" fill="#aa5a1a"/>
 <path d="m123 118 2 6h1l2-5-5-1z" fill="#e9c3a7"/>
 <path d="m171 118c-4.12 3.663-6.409 8.521-7 14l3-4 4-1v-9z" fill="#e1c697"/>
 <path d="m234 118v7h1l-1-7z" fill="#e1bd92"/>
 <path d="m249 122v1l3 2 2-4h2l1 3h6v1l-5 3v1l8-5c-7.916 0.283-7.76-8.259-17-2z" fill="#d6ae6f"/>
 <path d="m225 119-3 11h-1l-1-6h-1l2 10c3.856-3.561 6.057-9.957 4-15z" fill="#eaaf6b"/>
 <path d="m118 120v8h1l-1-8z" fill="#7a4218"/>
 <path d="m271 120c-1.694 3.312-2.254 5.691 1 8l-1-8z" fill="#391b0a"/>
 <path d="m101 121v4h1l-1-4z" fill="#9d4810"/>
 <path d="m254 121 2 6 4 1 3-3v-1h-6l-3-3z" fill="#e1c697"/>
 <path d="m266 121-1 3 3-2-2-1z" fill="#794710"/>
 <path d="m253 122-1 3-2-2h-1l-9 1v1l6 3c0.678 4.818 10.436 1.242 13-1h-3l-1-5h-2z" fill="#e7d2b2"/>
 <path d="m128 123c-3.358 5.496-5.377 11.514-9.053 16.91-4.7 6.9-15.03 16.815-14.186 26.045 0.242 2.65 3.04 4.484 4.715 1.712 2.038-3.372 3.904-9.773 4.524-13.667h1l1 2 15-26-3-7z" fill="#dfc2a9"/>
 <path d="m139 124v4h1l-1-4z" fill="#3e2c1e"/>
 <path d="m89 125-8 6v-4c-1.9103 0.579-3.3337 0.985-1 2v1l-12 5c10.801-0.457 14.834 2.728 24 8l-3-10-4-3 8-1-4-4z" fill="#e6cf9d"/>
 <path d="m161.33 125.67 0.334 0.666-0.334-0.666z" fill="#735141"/>
 <path d="m283.67 125.33 0.666 0.334-0.666-0.334z" fill="#acb0a7"/>
 <path d="m282 136h-2l13 18h2c0.788-4.812-7.357-18.249-2-19l1-1 1-7c-7.609-2.411-17.166-1.374-13 9z" fill="#c8b4a6"/>
 <path d="m290 125 1 1-1-1z" fill="#57665b"/>
 <path d="m121 126v10h1l-1-10z" fill="#aa845a"/>
 <path d="m162 126 2 6-2-6z" fill="#fcf0cd"/>
 <path d="m197 128-5-1c4.9 6.957 12.068 13.699 20 17v-7c-6.106 0.724-9.221-2.736-14-6l3-5-4 2z" fill="#623832"/>
 <path d="m232 126 1 10 5-2 4 4v-4l-10-8z" fill="#ebbd7b"/>
 <path d="m234 126 1 4h1l-2-4z" fill="#99570f"/>
 <path d="m281 126-6 7 5-2 1-5z" fill="#d6a56c"/>
 <path d="m61 127 2 3-2-3z" fill="#865b3b"/>
 <path d="m214 127v7l3-1-1-6h-2z" fill="#382f2f"/>
 <path d="m216 127-1 8 5 1-4-9z" fill="#735141"/>
 <path d="m237 131c6.952 10.148 22.639-1.104 31-3l-15.04 3.62-15.96-0.62z" fill="#ae6b1d"/>
 <path d="m118 128v6h1l-1-6z" fill="#48271f"/>
 <path d="m241 132v1l16-2v-2l-16 3z" fill="#e9c397"/>
 <path d="m261 130c1.046 2.786 0.548 3.563-2 5l2 5-3-1-5 16h1v-3l4 1-1 9h1l2-11h1c0 5.355 2.136 21.034-2 20l1 4 3-2c-1.492 4.038-1.244 6.098 2 9l-1-8 3 1 1-6 3 2-2-19c-3.837-2.478-3.45-6.783-3-11l3 1-1-3 6-7c-4.864-3.059-7.52-4.303-13-2z" fill="#cda063"/>
 <path d="m280 128-4 3v1h3l2 3-1-7z" fill="#aa845a"/>
 <path d="m293 129 1 5-1 1-2-1 3 5-1 3 7 2v12l4 1c9.52-7.853 2.972-15.488-3.281-21.858-2.847-2.901-3.271-6.217-7.719-6.142z" fill="#e9e2d2"/>
 <path d="m212 129 2 5-2-5z" fill="#907c77"/>
 <path d="m236 132 4-1c-2.134-1.856-3.361-1.922-4 1z" fill="#ce9d5a"/>
 <path d="m265 129-1 9h1v-9z" fill="#ffd76e"/>
 <path d="m62 130-5 15h1l4-15z" fill="#e58c3c"/>
 <path d="m137 130-3 10 5-10h-2z" fill="#735141"/>
 <path d="m198 130 7 6-7-6z" fill="#8f6652"/>
 <path d="m210 130-3 4 5-1-2-3z" fill="#010101"/>
 <path d="m298 130 1 1-1-1z" fill="#8d8883"/>
 <path d="m65 131-5 12c3.1729-2.044 6.0233-8.273 5-12z" fill="#b97d21"/>
 <path d="m251 134 1 3h-4c-1.881 1.87-3.045 3.089-5 1h-1l-9 14h4v1l-2 1 5 4-2 4h1l2-1 7-4 2-8 3-10 4 5h1v-5l3 1-2-5 4-4-12 3z" fill="#ddb985"/>
 <path d="m298 131 7 7-5-7h-2z" fill="#fdfdf8"/>
 <path d="m226 132c-4.106 8.316 1.931 11.225 2 19h3l1 3-4 2v3l2-1c-0.459 2.722 0.885 8.194 2 3h1l3 2c-2.191-8.472-2.276-10.09 2-18l-6-1v5l-6-17z" fill="#cd8d3d"/>
 <path d="m269 142-3-1c-0.948 3.761-1.509 10.034 3 11l-2 2 2 7h1l1-2c0.592 1.829 2.055 7.865 4 5h1l9 15 5-4 4 1-2-3-10-24-9-8v-1l4-4h-2l2-4c-4.733 1.207-8.451 4.978-8 10z" fill="#f8dfb7"/>
 <path d="m277 132-2 4h2l-4 4v1l9 8 10 24 2 3-4-1-5 4-9-15h-1l-1 2-3-7h-1c0.094 10.376 12.738 29.533 23 32 1.702-5.244 3.273-9.207 0-14l3-1h2v2h1l1-6h-2c1.043-5.605-1.955-13.698-8-15-0.033-9.656-6.051-14.095-12-21h4v-1l-3-3h-2z" fill="#e3bf85"/>
 <path d="m220 133-2 3v1h5v-1l-3-3z" fill="#bb6b1e"/>
 <path d="m301 133 1 1-1-1z" fill="#767b73"/>
 <path d="m67 134c-6.5587 9.057-9 14.782-9 26h3l-1-13 3 1 2-9 4-2h1c3.8483 6.261 9.8453 17.213 18 16l4 4-1 4 6-2 3 6h1l1-3 2 3h-2l1 3 1 10 5-1c-1.716-8.617-4.383-11.344-1-20l-8-5c-5.6957 6.129-10.881-1.369-18 0l-4-13 14 12h1l2-2c-4.639-13.61-16.767-12.81-28-15z" fill="#c3996a"/>
 <path d="m108 134-5 2v6h4l-1 3 8-4-6-7z" fill="#5c3b22"/>
 <path d="m132 152v1l7-1 18-18-25 18z" fill="#fde3c0"/>
 <path d="m233 136c2.158 3.508 4.05 3.82 8 3v-2l-3-3-5 2z" fill="#3a221d"/>
 <path d="m241 135 2 6 5-4h4l-1-3-10 1z" fill="#f1dfbc"/>
 <path d="m61 135-4 14h1l3-14z" fill="#733314"/>
 <path d="m210 135v1h4l-4-1z" fill="#2d1c17"/>
 <path d="m290 135c-0.366 5.479 5.969 27.694 12 28l5 11h1c-1.115-5.61-0.493-18.12-8-18v-12l-7-2 1-3-4-4z" fill="#e1cdb3"/>
 <path d="m303 135 1 1-1-1z" fill="#9f959e"/>
 <path d="m112 136v7l4 2c0.114-3.898-0.607-6.884-4-9z" fill="#824911"/>
 <path d="m278 136 4 4-4-4z" fill="#67350f"/>
 <path d="m57 137-1 3 1-3z" fill="#ffbb71"/>
 <path d="m69 137-4 2v4l26 18 1-4-4-4c-9.2997 0.252-12.137-11.336-19-16z" fill="#daaf7b"/>
 <path d="m104.33 137.67 0.334 0.666-0.334-0.666z" fill="#350e03"/>
 <path d="m122 153h6l5-16c-6.241 2.193-9.767 9.806-11 16z" fill="#ce9d5a"/>
 <path d="m149 137 1 1-1-1z" fill="#89724f"/>
 <path d="m233 137c-0.087 4.123 0.954 6.701 5 8l-1-4 4 1-8-5z" fill="#884e2d"/>
 <path d="m235 137v2l2-2h-2z" fill="#e59758"/>
 <path d="m305 137 1 1-1-1z" fill="#939787"/>
 <path d="m151 146h-3v1l2 2-2 4 2 6h1v-6l6 1-1 3 5-3-1-4 6-1-1-4 2-3-5-1 1-3c-5.827 0.736-12.879 0.411-12 8z" fill="#e0a65c"/>
 <path d="m220 138-3 3 1 3 3-1-1 12 4 3 3-1c-0.013 2.602 1.524 3.506 3 1l-2-2 4-2v-1l-1-2h-3l-3-10-5-3z" fill="#9d5f28"/>
 <path d="m230 138c-0.703 4.041-1.632 8.303 2 11-0.545-3.268-0.703-4.676 2-4l-4-7z" fill="#d6ae6f"/>
 <path d="m239 139 2 3-4-1 1 4 4-7-3 1z" fill="#bb946a"/>
 <path d="m306 138 1 1-1-1z" fill="#767b73"/>
 <path d="m57 139c-5.2837 4.247-6.7023 8.373-7 15h1l1-3h1v11h1v-11h1c0 4.681-1.1412 10.013 3 13l-1 6-5-2v5l5 10h4c1.0385-4.89 6.6215-14.844-1-17l-2.906-13-0.094-14z" fill="#b3823d"/>
 <path d="m78 139 4 13 16 4-2-7-3 2h-1l-14-12z" fill="#bb7d4a"/>
 <path d="m216 139v1h4l-4-1z" fill="#cb9b35"/>
 <path d="m253 139c-1.075 1.909-2.853 3.489-3.81 5.417-4.405 8.872 16.887 3.083 3.81-5.417z" fill="#e6cf9d"/>
 <path d="m282 139 5 5-5-5z" fill="#a7673c"/>
 <path d="m307 139 1 1-1-1z" fill="#665c5d"/>
 <path d="m95 141c-1.9964 5.27 0.9667 9.116 3 14h1l1-11-3 1v-4h-2z" fill="#e7d2b2"/>
 <path d="m104 141v6h1l2-5-3-1z" fill="#917f69"/>
 <path d="m307 141-1 24h1l2-24h-2z" fill="#fdfdf8"/>
 <path d="m63 148-3-1 2 2c-1.4076 4.475-2.764 15.765 3 17v-11c7.0613 1.927 17.695-0.384 18 11l15 11 1 9h1l1-12h1v5h1v-11l-1-3h2l-2-3-1 3h-1l-3-6c-14.108 3.56-15.666-7.35-25.263-13.77-4.129-2.76-7.906-2.21-8.737 2.77z" fill="#e3cda7"/>
 <path d="m105 144 5 5v4l3-5-1-4h-7z" fill="#8b4c1a"/>
 <path d="m110.67 143.33 0.666 0.334-0.666-0.334z" fill="#c5ae9c"/>
 <path d="m112 143-2 5c3.403-0.587 4.272-1.649 5-5h-3z" fill="#54270f"/>
 <path d="m132 143-3 9 6-1-3-8z" fill="#884e2d"/>
 <path d="m139 152c-9.552-0.65-19.691 6.527-25 14l4 1 5-6h1v5h1v-4l11-7 3 2 5-1 3-13-8 9z" fill="#e6cf9d"/>
 <path d="m219 143-1 9c3.693-2.134 4.904-6.448 1-9z" fill="#752b09"/>
 <path d="m113.33 144.67 0.334 0.666-0.334-0.666z" fill="#b36d30"/>
 <path d="m285 144 5 13c3.441-5.129 1.241-12.005-5-13z" fill="#bb946a"/>
 <path d="m310 144v7h1l-1-7z" fill="#c2b9b2"/>
 <path d="m110.33 145.67 0.334 0.666-0.334-0.666z" fill="#d79f53"/>
 <path d="m105 147-5 5 8 5 2-8-5-2z" fill="#c88a50"/>
 <path d="m202 147c-2.197 4.09-6.978 9.993-8.123 14.108-1.838 6.61 0.754 11.535-4.877 16.892l-2 11-17 8-1-3 4-3h1l1 2 3-2v-1h-10l1 3-6-4h4v-1l-11-4-3-3 2 11 3-1-1 4 6 1-1 3c5.826-0.716 9.025-0.549 12 5h1l8-6 4 2-1-3 11-3-1-4c12.194-5.586 17.759-16.075 22-28-6.596 0.525-7.522 6.98-12 11v-17l-2 5-3-1 1-13z" fill="#bb895d"/>
 <path d="m50 148-2 19h2l-1-11 1-8z" fill="#eaaf6b"/>
 <path d="m57 149v8h1l-1-8z" fill="#99570f"/>
 <path d="m249 149-5 10-1 5c8.79 0.615 12.779-2.191 15-11-2.793-0.453-3.636-1.001-4 2l-5-6z" fill="#a95f26"/>
 <path d="m52 151c-1.8959 6.412-2.946 14.877 0 21h1l-1-4 5 2v-7h-1v4h-1l-3-16z" fill="#c69257"/>
 <path d="m54 151 1 16h1l-2-16z" fill="#9d5f28"/>
 <path d="m111 167c5.213-2.704 16.011-9.429 18-15-8.236-0.422-15.199 7.723-18 15z" fill="#ad714d"/>
 <path d="m129 154 4-2-4 2z" fill="#5b330d"/>
 <path d="m260 151-2 11h-1l-1-3-6 8-2 5 13 7 2 17h-1l-5-5 1 10h1l1-2 2 5v-7l2 1v-8h1l3 3c0.729 3.403 2.806 2.987 6 3v-1l-2-1c4.876-5.003 3.749-9.775 2-16l2-2 3 1-9-14h-1l2 8-3-2-1 6-3-1 1 8-2-9-3 2-1-4c4.833-0.789 2.689-16.503 1-20z" fill="#a97d65"/>
 <path d="m291 151 4 9-4-9z" fill="#ad714d"/>
 <path d="m48.333 152.67 0.3334 0.666-0.3334-0.666z" fill="#b07d4f"/>
 <path d="m91 152v1h5l-5-1z" fill="#d1bca9"/>
 <path d="m65 155v11h-2l8 15 5-1 4 4-4 5-9-3 6 13v1c-4.4494 2.959-5.7321 6.78-6 12h1l1-3 2 1 10-15h1c-0.7996 5.161 0.5389 7.438 6 7v-1l-5-6c3.5088 0.184 5.1932 0.116 7-3l-5 1 1-3h-7v-1l1-2 3-1c-1.9087-3.909-4.588-6.615-9-7l3-10h-1l-1 2h-1l-6-2v-3l22 5 1-4-8-1c0.4497-11.798-10.625-9.685-18-11z" fill="#cba979"/>
 <path d="m215 155 3 2-1-3-2 1z" fill="#f5b868"/>
 <path d="m233 154 4 6v-1l-4-5z" fill="#9c501a"/>
 <path d="m294 154 4 18h2l-1 6h-1l-2-2-3 1 1 10 6-6-1 5c12.96-1.698 4.749-7.133 7-16l-4-7-8-9z" fill="#d19d65"/>
 <path d="m47 156v7h1l-1-7z" fill="#59413a"/>
 <path d="m49 156 1 6h1l-2-6z" fill="#b36d30"/>
 <path d="m218 156v8h1l1-8h-2z" fill="#d5c4a3"/>
 <path d="m59 160 2 6h1l-3-6z" fill="#836765"/>
 <path d="m157 161 6 6-1 8 5-1v1l-4 1 1 4h-6l4 5-1-4 23-3v-1c-5.132-1.533-4.415-5.37-4-10h-1l-4 3 2-3c-6.781-3.87-11.944-7.913-20-6z" fill="#e0a65c"/>
 <path d="m295.33 160.67 0.334 0.666-0.334-0.666z" fill="#876254"/>
 <path d="m307 160v3h1l-1-3z" fill="#776e68"/>
 <path d="m158 173v3l6 2 3-3v-1l-5 1 1-8c-2.428-1.248-4.566-4.577-7.154-5.169-6.688-1.53-5.4 15.612 2.154 11.169z" fill="#daaf7b"/>
 <path d="m223 162-4 6 2 3-2 6 8-2 3 2-2 5 7 3c1.252-8.43-4.319-19.362-12-23z" fill="#ddb985"/>
 <path d="m147 166 3-3-3 3z" fill="#62402b"/>
 <path d="m150 163c4e-3 6.468-0.39 17.385 9 15l5 2v-1l-6-6-2 2h-1l-3-12h-2z" fill="#e6cf9d"/>
 <path d="m60.333 164.67 0.3334 0.666-0.3334-0.666z" fill="#daaf7b"/>
 <path d="m149 164c-2.42 4.564-2.015 7.656 2 11l-2-11z" fill="#9a715e"/>
 <path d="m217 164-2 8h1l1-8z" fill="#d4b4a7"/>
 <path d="m68 166v3h9l-3 10 9 7-3 1-1 2v1h7l-1 3 5-1-7 3 5 6v1l-3 1 9 2v-10l-3-1v-1l3-3-3 2 2-9-5 4 1-7 4 1-1-13h-1l-1 3-15-3c-2.0654-2.859-3.6634-2.903-7-2z" fill="#c88a50"/>
 <path d="m146 165-10 10h1l1-3h2l1 17h1c2.482-2.432 6.183-3.391 8.258-6.308 3.32-4.666-2.249-13.087-4.258-17.692z" fill="#010101"/>
 <path d="m229 165 5 5-5-5z" fill="#bb6b1e"/>
 <path d="m74 166 3 2-3-2z" fill="#653a1e"/>
 <path d="m192 166c-3.04 11.645-13.524 13.099-22 19l3 3h5l3-3-1-2 7-4-1 3 5-1-2-3c4.297-2.783 4.788-7.135 5-12h-2z" fill="#dfc2a9"/>
 <path d="m234 166v4l-3-1 6 21h1l1-8 3 6h1l-1-5h1l6 4 1 7-5 1 3 3-2 16v1l1 17-3 1 5 22 2 3h1l-2-15 2 3h1c0-12.046 2.308-23.065 2.972-35 0.224-4.01-0.637-9.076-4.972-10l3-17-7 1 1-5v-1l-5-9-9-4z" fill="#cd8d3d"/>
 <path d="m306.33 166.67 0.334 0.666-0.334-0.666z" fill="#564c3c"/>
 <path d="m49 167 3 10h1l-4-10z" fill="#e9c3a7"/>
 <path d="m238 167 5 3c1.016 4.819 4.11 8.203 9 9l5 12 5 5h1l-2-17-23-12z" fill="#bb9b7c"/>
 <path d="m63 169 3 11h1v-3h1v4l5 5h1l-11-17z" fill="#946a44"/>
 <path d="m56 171 2 5-2-5z" fill="#8b4c1a"/>
 <path d="m214 171 3 6-3-6z" fill="#9b7c72"/>
 <path d="m305 171 5 8v-5l-5-3z" fill="#d6b293"/>
 <path d="m63 172 2 6h1l-3-6z" fill="#c5ae9c"/>
 <path d="m135 172-4 3v1l4-4z" fill="#67350f"/>
 <path d="m138 172c-1.66 2.993-3.172 6.106 1 7l-2 2-3 9h6v-18h-2z" fill="#23181d"/>
 <path d="m223 172-3 4 5-4h-2z" fill="#f8dea1"/>
 <path d="m226 172v2h2v-2h-2z" fill="#b3823d"/>
 <path d="m53 173 2 6h1l-3-6z" fill="#c3996a"/>
 <path d="m304 173 4 6-4-6z" fill="#ad714d"/>
 <path d="m101 174c-0.531 3.242-3.2737 6.101 1 7l2 4-3-11z" fill="#b07d4f"/>
 <path d="m135 174-27 7 1 2h-6v1c10.063 1.079 32.587 7.582 31-7 2.237 0.015 2.064-1.119 1-3z" fill="#955b25"/>
 <path d="m213 175-17 15 1 4-11 3 1 7 5 4h1v-7l-1-5 3 6h1l5-6 4 3v-6c4.087-1.432 4.459-5.012 5-9l3 2h1l-1-11z" fill="#a7673c"/>
 <path d="m225 175-6 2 1 3-3-2v10h1v-2h1c1.008 9.839 8.03 21.339 16 27l-3-23-6-1v-4l11 6-1-7-8-2 2-5-3-2h-2z" fill="#e7d2b2"/>
 <path d="m244 175 6 5-6-5z" fill="#915b32"/>
 <path d="m309.67 175.33 0.666 0.334-0.666-0.334z" fill="#fdfdf8"/>
 <path d="m53 176 5 6-5-6z" fill="#f7f2da"/>
 <path d="m276 176-2 2 1 6h1v-3l7 5-7-10z" fill="#623832"/>
 <path d="m309 176 6 13 3-4-3-1 2-2-8-6z" fill="#e3cda7"/>
 <path d="m63 177c-3.7818 6.984-0.0182 15.505 7 19l-3-10 2 2 4-2-5-5v-4h-1v3h-1l-1-3h-2z" fill="#bb9361"/>
 <path d="m94 177v2h2v-2h-2z" fill="#655225"/>
 <path d="m96 177-1 6h2l1-6h-2z" fill="#ab6b4f"/>
 <path d="m134.33 177.67 0.334 0.666-0.334-0.666z" fill="#ce9d5a"/>
 <path d="m152 177-5 17h7l-1-13 3 3h1l2-6-7-1z" fill="#ae9471"/>
 <path d="m214 177-2 29h1l3-29h-2z" fill="#47292f"/>
 <path d="m301 177v3h1l-1-3z" fill="#f9c9cd"/>
 <path d="m135 178 3 33h1l3-11-3 2 2-5-7-7 5-11-4-1z" fill="#10050d"/>
 <path d="m161 181c0.587 4.311 1.543 6.285 6 7v1h-4l6 4-1-3h10v1h-5l-4 3 1 3 17-8 4-8-5 1 1-3-7 4 1 2-3 3h-5l-3-3 13-7-22 3z" fill="#d6a56c"/>
 <path d="m93 179 2.9221 9.039l-2.922 14.96 2 1 7-5c-3.4619-4.207-1.59-9.578 2-13v5l3-5-6-2 1-3h-3l1 5h-1l-1-5h-1l-2 2v-4h-2z" fill="#bb946a"/>
 <path d="m102 179 4 4-4-4z" fill="#e59758"/>
 <path d="m247 185 7-1-3 17 3 4h2v-7h1l-2 36 2-1v15l2 1h1l2-3-1-5 2 6 3-5h1l-2 13c13.668-0.282 26.788-4.037 24-21h1v2h1l2-20-2-4-2 3h-1c0.447-3.884 1.158-6.606-3-8l3 23v1l-3 2c-2.964-8.049-8.623-27.322-18-29l-5-7 2 3-3 4-1-5-1 2h-1c-0.024-8.863-1.918-14.397-6-22-3.646 1.181-5.618 1.948-5 6z" fill="#bb7d4a"/>
 <path d="m308 179c-0.776 4.921-3.66 6.927-8 9v1c3.349-0.396 7.291-0.401 8-4h1l3 1 3 7h1c-0.676-5.391-3.449-10.9-8-14z" fill="#aa845a"/>
 <path d="m72 180 4 9 4-5-4-4h-4z" fill="#e1c697"/>
 <path d="m89 180-1 7 5-5-4-2z" fill="#a85e3c"/>
 <path d="m315 180v1l10 8v6l-1 2-2-2h-1l3 4c4.282-8.897 0.516-16.711-9-19z" fill="#fdfdf8"/>
 <path d="m317 180 1 1-1-1z" fill="#939787"/>
 <path d="m151 181-1 3 1-3z" fill="#6b4a41"/>
 <path d="m276 181-0.14 13 18.14 16-1-18-17-11z" fill="#010101"/>
 <path d="m297 184 3-3-3 3z" fill="#fdfdf8"/>
 <path d="m239 182 1 10c-3.971 4.584-3.878 12.1-4 18h1l3-15 5 2 1 12h-2l-1 7v1l4 15-1-17v-1l2-16-3-3 5-1-1-7-6-4h-1l1 5h-1l-3-6m51 0-2 2 3 5 1-7h-2z" fill="#d9a84e"/>
 <path d="m315 183v1l3 1-2 25 7-12-2-3h1l2 2 1-2v-6c-3.335-3.656-4.453-6.734-10-6z" fill="#eee8d6"/>
 <path d="m93 183-2 9 3-2-3 3v1l3 1c2.0664-4.67 4.0107-8.896-1-12z" fill="#aa723f"/>
 <path d="m105 184v1l27 3c-7.689-4.636-18.409-4.368-27-4z" fill="#5c3b22"/>
 <path d="m135 189v1l4 5h1l1-3 2 2 2-1 2 3 3-12-15 5z" fill="#884e2d"/>
 <path d="m210 184-5 9v6l-4-3-5 6h-1l-3-6 1 5v7c-3.321 0.553-1.662 5.377-1 8-2.68 0.443-1.723 2.717-1 5l3-1 10 14h1l-1-30 2 3c2.555-5.277 7.633-17.985 4-23z" fill="#bb844d"/>
 <path d="m212 184-6 22v1l4 14h1v-13h1v8h1l2-22h-1l-1 12h-1v-22z" fill="#6a554f"/>
 <path d="m276 184-4 11c4.821-1.601 5.857-6.568 4-11z" fill="#2d1c17"/>
 <path d="m293 191-4-1v1c4.03 0.915 5.42-0.277 7-4l2 2 6-4-5 1v-2l-6 7z" fill="#f7d8a5"/>
 <path d="m64 185 1 5h1v-5h-2z" fill="#e1c697"/>
 <path d="m105 185v1l2 1-2 4-3-2-2 10h2l-6 8c10.55 1.055 11.017-10.255 14-18h1l-3 11h1c1.157-3.937 1.888-6.702 6-8l-2 6 5-3v6l-4 1-1-3h-1v15h1l1-4h1c0 4.075-0.097 8.726-3 8l1 5 4-17 1 3 4-2 5 5-6 3 4 7c-4.157 0.886-3.937 5.266-4 9h1l1-7h1c1.186 5.733-1.192 8.205-6 11v15l5-4 3 2-1-4 4-1-1 4c3.817-2.098 3.824-4.902 4-9l3 1c0.01-15.446 9.534-37.164-4-50l-2 1 2 5h-3l-4 6c3.193 0 0.795 2.842 0 5h-2c-2.84-6.346 0.499-11.573-1.326-16.852-1.67-4.85-11.65-4.14-15.67-4.15z" fill="#bb844d"/>
 <path d="m153 185 1 9-3 6 2 1h1v-3h1l3 2v1h-3l3 2 3 3c8.431-4.151 10.729 13.056 12 18l6-3h1l4 6-6-3 1 3h-2l1 4-7 3v1h3v1l-5-1c4.31 8.545 14.558 1.148 19 8l-5-2-1 3 3 1v1h-4l-1 15c10.565-0.771 1.463 8.047 0.488 12.039-0.95 3.889 0.697 7.649 2.512 10.961h1l-1-4 3-1-2-5h6l-1-5h6l-2-5 4 2-5-9 4 2-6-9 5 1-2-5c10.309 2.756 14.641 6.033 20 16h1l-9.483-23.895-19.52-16.1 6 2-1 3 6 1-12-15c-6.298-1.515-13.318-5.638-17-11l3-4-8 1 1-3-6-1 1-4-3 1v-7h-2z" fill="#cda063"/>
 <path d="m226 185v4l6 1v4h1l1-3 1 3h1l1-3-11-6z" fill="#bb895d"/>
 <path d="m308 185-5 3 2 2-4 3 2 4 8-5h-7l6-4-2-3z" fill="#e7c188"/>
 <path d="m324 185 1 1-1-1z" fill="#767b73"/>
 <path d="m102 186-2 11h1l3-11h-2z" fill="#f1dfbc"/>
 <path d="m120 186 2 20h2c1.018-2 2.731-4.523 0-5l4-6 2 1 1-1-2-5 3-2-12-2z" fill="#aa723f"/>
 <path d="m216 186c0 10.055-5.211 35.433 4 42l1-4h1l-1 5h1l1-5h1l-1 10 6-1-1 2h1v-9l3-1 1 10c5.218-3.762 0.701-13.568 0-19l4 1-3-26c-3.341 5.864-0.542 15.739 1 22-7.201-7.262-14.161-16.683-16-27h-3z" fill="#e1bd92"/>
 <path d="m310 186-6 6h7l-5 10 9-2-13 4v1l9 1v1l-7 1v1l7 2v1h-3v1l9-2v-21h-1l-1 3-3-7h-2z" fill="#ce9d5a"/>
 <path d="m215 187v19h1l-1-19z" fill="#b07d4f"/>
 <path d="m296 187-3 6 3 3h1c0.568-3.582 1.508-4.943 5-6v-1l-4-2h-2z" fill="#daaf7b"/>
 <path d="m325 187 1 1-1-1z" fill="#9f959e"/>
 <path d="m140.33 188.67 0.334 0.666-0.334-0.666z" fill="#d37d30"/>
 <path d="m110 189-6 28h-1v-9l-10 3c0.9118 4.255 4.5333 2.655 8 2l-8 5 1 4 4-2 3 1v1c-6.621 3.847-7.5967 4.804-15 3l1 4-8 23 7-3-1 5-9 8 10-6-1 3c7.2109 3.9 3.6564 10.141 1 16l10 2v1l-12 2 3 5 9-1h-4l-5 6-2 5 2 9-2 3 3 1v1l-4-1-5 4 4 3-1-2h1l3 5-2 2c2.6906 8.842-14.143 22.384-1 29l-1-3 4-8h1c0.4958 3.034 0.874 4.071 4 4v5h1l3-31-2 2h-1c5.1168-8.021 6.3294 3.729 5 8l3-6h1l1 8h1l5-30-3-2h-1c-1.288 7.256 2.051 17.918-3 23l-3-10v-1l-8e-3 -17.58 3.008-12.42-4 1 2-3-10-1v-1h5v-9h4l-5-3v-1c3.5728-3.666-1.5181-6.455-5-7v-1h7v-1l-7-1 1-5-5 2 3-3c-0.7198-3.328 1.0464-3.6 4-3l-2-7 4 5-2-5c5.6509 2.394 12.672 3.094 16-3h-2l2-7c4.432-0.955 5.229-2.571 5-7 3.454-0.516 2.963-4.95 3-8h-1l-1 4h-1l3-22c-6.435 1.117-4.545 7.904-6 13h-1l2-16z" fill="#cba979"/>
 <path d="m296 201 11-5-4 1c0.577-2.711 0.768-3.395-2-4l4-3c-7.517-2.277-8.753 5.274-9 11z" fill="#fde3c0"/>
 <path d="m237 190-1 14h1l3-12-3-2z" fill="#ae6b1d"/>
 <path d="m264 190c3e-3 3.291-0.855 10.098 3.969 10.384 2.37 0.141 4.345-2.247 6.651-0.637 4.226 2.948 5.093 11.695 4.38 16.253l5 2 1-17-17-8-4-3z" fill="#9d5d35"/>
 <path d="m141 192-2 5h2l-2 5 4-1 2-8-2 1v-2h-2z" fill="#653a1e"/>
 <path d="m293 193-2 43h-1v-2h-1l1 6 2-6 4-1v-17c3.832 0.472 6.546 1.364 9-2l-3-1 2-2-5-1 5-4v-1h-2v-1l13-4-9 2-1-3-9 2-1-8h-2z" fill="#f8dea1"/>
 <path d="m142 203 8-9-8 9z" fill="#dfc2a9"/>
 <path d="m147 203h1v-5l4-4c-4.16 2.005-6.021 4.368-5 9z" fill="#a07051"/>
 <path d="m265 194v4h1l-1-4z" fill="#d59b71"/>
 <path d="m292 194v5h1l-1-5z" fill="#c2b9b2"/>
 <path d="m294 194v4h2v-4h-2z" fill="#c48e64"/>
 <path d="m78 195v3h1l-1-3z" fill="#955b25"/>
 <path d="m81 195-8 11h1l7-11z" fill="#e1bd92"/>
 <path d="m117 195-3 7 4-1-1-6z" fill="#955b25"/>
 <path d="m142 198 3-3-3 3z" fill="#a95f26"/>
 <path d="m240 195c-5.034 10.463 0.804 19.936 2.656 30.015 0.984 5.358-0.403 12.721-1.656 17.985 3.974 4.729 0.938 13.786 9 15l-3 3 6 12h1l-5-11c3.086-2.059 2.913-4.773 0-7l-3.786-12-2.214-26v-1l1-7h2l-1-12-5-2z" fill="#e3bd6d"/>
 <path d="m150 197-2 6h-1l-1-4h-1c-9.065 19.837-6.002 36.739-6 58h1v-18l3 1c1.048-5.641 6.192-22.954 2-27 1.832-5.24 7.216-10.311 5-16z" fill="#bb946a"/>
 <path d="m189.33 197.67 0.334 0.666-0.334-0.666z" fill="#f1b756"/>
 <path d="m109 198-1 7h1v-7z" fill="#d5c4a3"/>
 <path d="m154 198v3h-1c-2.23-3.284-5.863 9.494-6 12h1v-2h1l1 18h3c0.916 4.721 1.121 9.086 6 11l3-7 7 2c-4.771-3.889-8.918-4.97-8-12l5-2h1l2 6h1l-4-8 2-3-11 1-2-4-3 2-1-7 7-7v-1l-4-2z" fill="#e7d2b2"/>
 <path d="m170 198-3 4c2.791 5.872 10.708 10.052 17 11 0.49 6.202 16.223 22.188 22 25l-12-18-3 1c-1.024-3.073-2.055-5.764 1-5-0.853-4.595 0.047-10.325-5-12l1-4-5-2-8 6h-1l-4-6z" fill="#b57c3c"/>
 <path d="m256 198v14h1l-1-14z" fill="#7a4218"/>
 <path d="m266 201 1 3c9.626 2.771 13.79 20.937 18 29l3-2v-1l-3-14h-6c1.053-4.179 0.07-15.667-5.135-17.253-2.304-0.702-5.627 1.673-7.865 2.253z" fill="#74472e"/>
 <path d="m77 200v1h3v1c-9.2323 4.717-11.384 18.827-14 28l10-1 1-9 2 3 2 1h1l2-4-1-4h2l-3-10 5 2v-1l-2-5-8-2z" fill="#f4d8b3"/>
 <path d="m106 200c-1.951 4.915-4.588 7.315-10 7l1 3-2-8h-1v3l-10-2 3 4v1l-5-2 3 10h-2l1 4-2 4h-1l-2-1v-3h-2l-1 9-6 1v1l5-1 7 2-1-4 3 3h1l2-2-1-4c3.0016 1.001 5.646 3.295 8.9722 1.861 2.7375-1.18 7.9398-5.807 3.0278-6.861l-4 2-1-4 8-5c-3.4926 0.402-5.9203 1.117-8-2l10-3v9h1l2-17z" fill="#e3bf85"/>
 <path d="m110 200-1 4h1v-4z" fill="#aa723f"/>
 <path d="m136 200v3h1l-1-3z" fill="#74472e"/>
 <path d="m263 200 1 3-1-3z" fill="#884e2d"/>
 <path d="m70 213h1l9-11c-5.4725-1.131-8.7072 6.638-10 11z" fill="#875824"/>
 <path d="m170.67 201.33 0.666 0.334-0.666-0.334z" fill="#e7a545"/>
 <path d="m179.33 201.67 0.334 0.666-0.334-0.666z" fill="#fbc28a"/>
 <path d="m97 202c-1.4203 2.961-2.6916 5.61 0 8v-8z" fill="#e7e1c3"/>
 <path d="m154 202-3 6 1 7 3-2 2 4 11-1-2 3 4 8h-1l-2-6h-1l-5 2c-2.131 8.208 5.812 12.06 13 13v-1h-3v-1l7-3-1-4h2l-1-3 6 3-4-6h-1l-6 3c-0.582-3.781-5.085-25.274-12-18l-3-3-4-1z" fill="#e1bd92"/>
 <path d="m284 202 3 2-3-2z" fill="#fcf0cd"/>
 <path d="m286 202 1 1-1-1z" fill="#6a6a54"/>
 <path d="m319 202 1 1-1-1z" fill="#a39493"/>
 <path d="m141 203-1 7h1v-7z" fill="#f7f2da"/>
 <path d="m172.33 203.67 0.334 0.666-0.334-0.666z" fill="#f5b868"/>
 <path d="m287 203 1 1-1-1z" fill="#6a6a54"/>
 <path d="m204 204-1 13h1v-13z" fill="#d6ae6f"/>
 <path d="m285 204 3 11h1l2-3 2 4v10c3.295-7.835 1.926-20.337-8-22z" fill="#d1bca9"/>
 <path d="m148 205-3 8 3-8z" fill="#735743"/>
 <path d="m214 205-3 16-5-14 1 13 6.329 27 12.671 27h1c-0.26-12.62-8.261-20.016-13-31l9 12h1l-6.485-23-3.52-27z" fill="#4f3022"/>
 <path d="m116 206-1 15h1v-3l5 1v-5l6-2-5-5-4 2-2-3z" fill="#daaf7b"/>
 <path d="m299 210 5 1-2 2 3 1-1 3 10-4v-1l-6 1v-1h3v-1l-7-2v-1l7-1c-4.303-1.806-10.347-1.98-12 3z" fill="#e7c188"/>
 <path d="m139.33 208.67 0.334 0.666-0.334-0.666z" fill="#89724f"/>
 <path d="m211 208v12h1l-1-12z" fill="#2d1c17"/>
 <path d="m69 209-3 2 1 15h1l1-2v-1l-2-5 3 1-1-10z" fill="#bb844d"/>
 <path d="m237 209v8l-4-1c0.475 5.974 4.197 14.014 0 19l-1-10-3 1 2 2c-2.716 4.494 2.435 12.836 5 17l3-9h1v4h1l-2-31h-2z" fill="#c39d82"/>
 <path d="m107 210-6 16c4.919-3.581 8.383-9.894 6-16z" fill="#e7d2b2"/>
 <path d="m205 210c-3.913 21.079 5.057 41.176 11 61h-1v-2h-1l1 7h-1l-3-6h-4c0.18 3.737 5.915 10.568 0 11l-8 8v1l2 2-5-5c-4.29 3.764-6.903 11.581 0 14l1 6 2-2 4 1-5-3-2-10 7 1-1-4h15l-1-17 8 7 5 11h1l-2-27h-1v10h-1c-1.005-11.522-9.267-17.558-12.491-27.715-2.518-7.933 0.988-20.252-6.509-26.285 1.09-3.795 1.353-7.448-2-10z" fill="#9f693d"/>
 <path d="m148 211c-7.681 22.757-5.824 49.105 0.595 72 2.87 10.239 11.262 24.697 10.405 35 3.159 3.56 3.569 7.175 9 7v-5h-3l-3-11h7v-2c-7.559-0.586-3.924-4.646-5.745-9.91-1.6-4.61-5.67-13.13-8.26-17.09l5-1 4-6v-1l-3-10 2-5 7-4-3 1c-0.572-7.607-6.228-8.835-10.297-14.188-2.31-3.05-2.76-7.2-3.7-10.81h-3l-2-18z" fill="#f7d8a5"/>
 <path d="m122 212 1 1-1-1z" fill="#653a1e"/>
 <path d="m65 213v8h1l-1-8z" fill="#5c3b22"/>
 <path d="m215 213v5h1l-1-5z" fill="#876254"/>
 <path d="m255 214-2 32h-1l-2-3v8l2-2 1 3 4-3-4 9 5 1v-1l-2-1 9-3 2-12h-1l-3 5-2-6 1 5-2 3h-1l-2-1-3.181-14 1.181-20z" fill="#a7673c"/>
 <path d="m303 217v1c2.41 3.568-1.015 9.136-2.463 13-3.361 8.967-16.355 39.584-29.537 25-4.537 0.855-9.427 0.794-12 5l-6-3 4-9-4 3-1-3h-1c0.396 5.02 1.918 9.159-2 13l2 3h1c4.519-2.8 7.172-1.191 12 0l7-5-2 4 3 2h9v-1h-5v-1h7v-1h-4v-1c4.931-0.434 8.44-1.6 11-6h1l-1 4 4-6h1l1 2 1-3 2 2c0.575-2.396 0.475-2.487-2-3l16-38-10 3z" fill="#bf7b39"/>
 <path d="m122 216-1 3-2-2-3 1-10.185 17.775l-10.82 9.22 6 6 2-4-6-5 8 2-1 3 5-6h1l2 7 2-5h1v3h1l2-11c5.372-2.176 7.644-5.225 6-11h-1l-1 7h-1l4-9-1-6h-2z" fill="#c3996a"/>
 <path d="m296 216v17l-4 1c-0.374 11.628-10.348 20.653-21 22 4.139 6.746 12.866 3.108 17.361-1.705 7.88-8.44 12.23-25.27 15.64-36.3l-8-2z" fill="#ebbd7b"/>
 <path d="m67 218v5h2l-2-5z" fill="#915b32"/>
 <path d="m304 218-2 5c3.012-0.646 3.498-2.387 2-5z" fill="#d9a84e"/>
 <path d="m138 219-1 9h1v-9z" fill="#e3dcce"/>
 <path d="m240 220 1 22h1c4e-3 -6.292 3.686-17.671-2-22z" fill="#e7d2b2"/>
 <path d="m262 220-1 5 7 19h1l3-15h-1l-1 3-8-12z" fill="#a7673c"/>
 <path d="m185 222c3.09 5.584 10.458 11.991 17 12-3.222-5.079-6.04-6.715-12-7l1-3-6-2z" fill="#c88a50"/>
 <path d="m112 223-5 2-2 7h2c-4.562 5.531-9.6891 4.965-16 3l2 5-4-5 2 7-2-2c-2.6777 1.445-3.4559 2.233-2 5l-3 3 5-2v3l8 3 3-1c-0.8549-3.99-5.3697-3.817-9-4v-1c2.2389-1.551 2.9673-4.505 5.3025-5.843 6.608-3.79 17.978-6.15 15.698-17.16z" fill="#b07d4f"/>
 <path d="m140 223v4h1l-1-4z" fill="#9f693d"/>
 <path d="m136 224-2 20h1c2.196-5.864 4.045-14.23 1-20z" fill="#d5c1bb"/>
 <path d="m221 224-3 3 8 20 2-3 3 3-2-9 8 12h1l-6-16-4 1 1-2h-1l-5 1c2.873-3.438 2.056-5.871 1-10h-1l-1 5h-1v-5z" fill="#daaf7b"/>
 <path d="m301 225-8 24h1c2.5-6.192 9.281-17.567 7-24z" fill="#e1a347"/>
 <path d="m98 229 3-3-3 3z" fill="#e7e1c3"/>
 <path d="m217 227c0.149 6.973 1.574 15.283 8 19l-8-19z" fill="#805b4b"/>
 <path d="m81 228 1 4-7-2-5 2v2c5.3326-0.225 9.1465-1.352 13 3 2.9388-2.998 2.1509-5.172 1-9h-3z" fill="#ad714d"/>
 <path d="m64 233 4-1v4l-14 8-1 10h1c5.1706-9.344 9.6727-15.108 20-19v-1h-4c-0.2224-4.728-3.7517-4.625-6-1z" fill="#c69257"/>
 <path d="m254 230 3 13h1l-1-10-2 1-1-4z" fill="#dfc2a9"/>
 <path d="m47 251 21-15v-4c-8.3458 1.984-17.93 11.076-21 19z" fill="#e9e5ae"/>
 <path d="m63 233 1 1-1-1z" fill="#865b3b"/>
 <path d="m75 233v1l6 1 1 5c1.222-5.415-2.0682-6.729-7-7z" fill="#bb946a"/>
 <path d="m162 233-6 6 11 15 3-1-7 4-2 5 3 10v1l-4 6-5 1c2.3 5.042 6.822 12.892 8.145 18.039 0.594 2.312-1.151 5.275 0.163 7.353 1.514 2.395 5.128 0.87 5.707-1.451 0.615-2.462-1.192-5.694-2.015-7.941l4 2 3-2v-1c-4.966-0.828-4.309-12.827-1-12l-3-9 10 4h1c-0.633-4.834 10.14-19.226-1-17l-4-9c-2.825-0.177-3.65-1.471-1-3v-1h-8l-1-13-4-2z" fill="#e9c397"/>
 <path d="m54 254h-1l2-7h-1l-4 15h1l6-9-5 12 3-1c3.1653 8.353-0.0794 17.622-2 26l6-2 1-7c3.146 2.078 3.924 3.306 3 7l4 3-4 1v1l5 1h1l3-3-3 4 2 3-5-1v7h-1v-3c-5.7364 2.017-4 9.946-4 15l-2-1c0.0926 3.957 1.8955 8.125 1.3665 12-1.0408 7.624-7.4553 12.13-3.3665 20h1l2-14 2 2h1v-8h1v4h1l2-13h1l2 2-1-7h1l2 1v4h1c-0.1205-9.664 1.3857-23.606 13-26l1-4-8 6h-1l4-8 5-4c-4.4991-0.67-5.7864 1.963-7 6l-8-1 1-3h-1l-1 3-4-2-1-7 1-2h4v-1l-2-1v-1l3-3 5 1v5l-3 3h10l2-3v3l10-1v-1l-10-2c3.0455-5.102 6.862-13.389-1-16l1-3-10 6 9-8 1-5-7 3 6-16h-1l-2 4-1-5c-12.711-2.913-22.894 8.159-27 19z" fill="#e6cf9d"/>
 <path d="m137 235-2 9h-1l-1-6h-1l-4 9 1-4-4 1 1 4-3-2-5 4v-7h-1l-1 3h-1v-3h-1l-2 5-2-7h-1l-5 6 1-3-8-2 6 5c-2.867 6.802-0.915 10.96 6 6l-6 7 2-1v1l-1 5h1c8.095-13.443 18.403-11.727 31-19l2 14h1l-2-25z" fill="#9f6a47"/>
 <path d="m164 235 3 13h8v1h-3l4 3 4 3 1-9h4v-1l-3-1 1-3 5 2-19-8h-5z" fill="#dab77e"/>
 <path d="m47 236v1h6v1c-5.0974 0.961-10.234 1.143-13 6l4-2-4 6 18-9-11-3z" fill="#ad714d"/>
 <path d="m239 236-1 14h-1l-8-12 2 9-3-3-1 7h1l1-3h1l-1 5v7l4-1-1-6 10 10-7-5-3 3 1 4h1l4 2 4 1 2-4 4 4-9-32z" fill="#b68869"/>
 <path d="m305 236v11h1l-1-11z" fill="#f7d8a5"/>
 <path d="m42 239v1l11-2-11 1z" fill="#e9c397"/>
 <path d="m303 238-6 14 2 3-2-2c-2.242 3.747-7.367 7.942-5.392 12.791 2.166 5.317 13.973 7.629 8.392 14.209v-6l-5-2 2 5-7-6-1 3-5-2v1l7 6h-3v1l12 12-7-15 7 7c4.525 2.544 5.068 6.114 5 11h1l4-4-3-13c7.036-2.838 0.79-8.899-2-13h2l-7-9c2.732-5.74 7.107-11.987 3-18z" fill="#b68869"/>
 <path d="m91 246v1l7 1-3-3 4-5c-4.3836-1.435-5.4002 3.288-8 6z" fill="#9d5f28"/>
 <path d="m140 239v18h1l1-18h-2z" fill="#dfc2a9"/>
 <path d="m306 239-1 12c3.978-2.811 3.567-8.243 1-12z" fill="#eee8d6"/>
 <path d="m31 254 12-13c-5.8878-1.195-11.003 8.054-12 13z" fill="#c88a50"/>
 <path d="m142 240v17h1l-1-17z" fill="#a07051"/>
 <path d="m71 241-5 10 4 1 5-7-4-4z" fill="#f3d4bd"/>
 <path d="m79 241c-5.1162 6.105-18.061 15.717-17 24 4.6382-3.947 17.479-18.165 17-24z" fill="#e3bd6d"/>
 <path d="m122 241-3 7h1l2-7z" fill="#9d5f28"/>
 <path d="m31 276h1c0.0359-13.018 5.0308-23.32 12-34-14.449 6.458-13.009 20.815-13 34z" fill="#e1c697"/>
 <path d="m34 268h1l8-18 6-6c-10.38-0.87-13.918 15.962-15 24z" fill="#d6ae6f"/>
 <path d="m214 243c1.921 6.527 7.115 16.403 13 20l-1-9c3.249-0.553 1.007-4.731 0-7h-1l-1 8h-1l-9-12z" fill="#6b4a41"/>
 <path d="m241 243 1 8h1l-2-8z" fill="#f1dfbc"/>
 <path d="m48 245-1 4h1l2-4h-2z" fill="#74472e"/>
 <path d="m54 245c-6.5699 7.647-6.9797 15.339-7 25h1l6-25z" fill="#955b25"/>
 <path d="m223 245 1 7h1l-2-7z" fill="#907c77"/>
 <path d="m286.33 245.67 0.334 0.666-0.334-0.666z" fill="#7a4218"/>
 <path d="m135 246-21 8v1c8.725 1.097 12.832-1.162 20-6l-3 3 1 3h-4v1l7-4 3 3-2-2-1-7z" fill="#c69257"/>
 <path d="m193 246 2 5-5-1 6 9-4-2 5 9-4-2 2 5-2 2-4-2 1 5h-6l-1 6 1 4-2 1-7-2 7 5v1l-3 1 1 9 16 16 3-1 1 3 3-5c-3.649-2.111-9.498-5.366-7-10v-1c-3.942-2.22-6.724-6.432-7-11l4 1 3-4 2 2 4-2 5-6c6.614-0.343 0.588-7.18 0-11h4l3 6h1l-1-7h1v2h1l-1-8h-1l-2 3c-3.291-8.87-9.157-18.139-19-20z" fill="#bb895d"/>
 <path d="m199 247 13 19c3.743-6.324-6.593-18.724-13-19z" fill="#ddb985"/>
 <path d="m88 247v4l17 8-2 1v-1l6-6c-4.24 2.259-7.162 3.853-8-2l-4 1-8-3 1-2h-2z" fill="#9d5f28"/>
 <path d="m304 247-4 9 6 1-2-10z" fill="#ecd9aa"/>
 <path d="m39 248-6 22 4 6h1l1-13-4 5h-1l5-20z" fill="#aa723f"/>
 <path d="m136 248v5h1l-1-5z" fill="#67350f"/>
 <path d="m229 248-1 9 1-4v-5z" fill="#cda063"/>
 <path d="m46 249-3 1-2 6c3.366-1.112 5.5346-3.33 5-7z" fill="#b36d30"/>
 <path d="m49 249c-3.972 4.371-4.654 9.392-3 15l3-15z" fill="#bb9361"/>
 <path d="m115 253-3 3h1l-1 6h1l4-4v1h-2v1l4-1-2 6 5-3c-0.075 9.548-9.871 15.998-14 24h-1v-5h-2v5h-1v-15h-1v7h-6v1l4-1v17c3.465-1.773 5.809-2.948 6-7l1-1 2 1c5.471-8.76 14.353-15.401 16-26h1l-5 50h1l2-9h1v3h1v-30l3 1-2-22h4l-1-3 3-3c-2.292 0.382-21.174 12.695-19 4z" fill="#865b3b"/>
 <path d="m277 250v1h4l-4-1z" fill="#e1c697"/>
 <path d="m134 252v2h2l-2-2z" fill="#5b330d"/>
 <path d="m30 253v4h1l-1-4z" fill="#805b4b"/>
 <path d="m45 253-9 34 3 7h1v-7l3 2-4-17h1l3 11h1l-1.637-18 2.637-12z" fill="#f4d8b3"/>
 <path d="m55 253-6 9-1 6 2 11c6.853-4.664 1.8303-10.81 2.9614-17.09 0.5571-3.093 2.9241-5.965 4.0386-8.91h-2z" fill="#c39f7b"/>
 <path d="m88 253v1c3.0009 0.695 8.428 3.687 5 7v1l5 3h-4v9h-5v1l14 3v-7h1v15h1v-5h2v5h1c5.03-6.675 15.164-15.013 14-24l-5 3 2-6-4 1v-1h2v-1l-4 4h-1l1-6h-1l-4 22c-4.166-11.947-4.012-24.988-20-25z" fill="#bb7d4a"/>
 <path d="m232 253 1 7 3-2 6 5-10-10z" fill="#865b3b"/>
 <path d="m243 253 3 8 4-3-7-5z" fill="#f4d8b3"/>
 <path d="m143 254-2 2-1 11h1v-8h1l1 13h-1v-2h-1l1 8h1v-5h1l4 18 3-1-8-36z" fill="#bb9b7c"/>
 <path d="m226 254 9 52 3 2h1l-6-16 3 2c-1.356-5.857-4.71-11.104-5.7-17-1.179-7.025 0.719-17.644-4.3-23z" fill="#2e2025"/>
 <path d="m258 254-2 4 2-4z" fill="#e5b17f"/>
 <path d="m259 254-1 5 24-4-23-1z" fill="#9c501a"/>
 <path d="m294 254-2 5 4-2-2-3z" fill="#74472e"/>
 <path d="m37 263 4-7-4 7z" fill="#bb895d"/>
 <path d="m41 256-2 8h1l3-8h-2z" fill="#7a3709"/>
 <path d="m229.33 256.67 0.334 0.666-0.334-0.666z" fill="#fde3c0"/>
 <path d="m290 256-11 6v1h4v1h-7v1h5v1h-9l-3-2 2-4-11 9 6 1v1h-2v1l3-3 11-2c6.771 1.687 14.523-3.478 12-11z" fill="#8b4c1a"/>
 <path d="m29 257v10h1l-1-10z" fill="#915b32"/>
 <path d="m30 257v6h1l-1-6z" fill="#b07d4f"/>
 <path d="m109 257v5h2v-5h-2z" fill="#67350f"/>
 <path d="m139 257v4h1l-1-4z" fill="#e9c3a7"/>
 <path d="m303 257 4 8h-2l5 6c-1.393-5.263-0.774-12.961-7-14z" fill="#f1dfbc"/>
 <path d="m43 259-1 10h3v-10h-2z" fill="#ddb985"/>
 <path d="m99 259 2 3-2-3z" fill="#8b4c1a"/>
 <path d="m108 259c-1.542 2.811-3.671 5.52-1 8v-3l2 3-1-8z" fill="#955b25"/>
 <path d="m141 259 1 9h1l-2-9z" fill="#d5c4a3"/>
 <path d="m229 260 2 14h1l1-2c1.015 2.334 1.421 0.91 2-1l4 2-2-7h-1v3c-2.949-2.342-4.402-5.797-2-9h-5z" fill="#f8dfb7"/>
 <path d="m244 259 4 5-4-5z" fill="#875824"/>
 <path d="m256 259 3 2-3-2z" fill="#5b2c1a"/>
 <path d="m261 259v4l2-4h-2z" fill="#9d4810"/>
 <path d="m263 260-1 4h1v-4z" fill="#e7c188"/>
 <path d="m308 261v6h1l-1-6z" fill="#3a262c"/>
 <path d="m126 262-19 34c7.899-0.352 14.251-10.833 15-18h1v5h1c2.584-5.37 4.272-15.346 2-21z" fill="#bb946a"/>
 <path d="m139 262v10h1l-1-10z" fill="#eddae0"/>
 <path d="m229.33 262.67 0.334 0.666-0.334-0.666z" fill="#9e8575"/>
 <path d="m254 262 2 2-1 5h1c0.883-3.304 0.957-5.08-2-7z" fill="#edb387"/>
 <path d="m257 262-1 7-3-2 1 6h-1l-1-3h-1l1 5 6-2-2-2 5-1v-6l-4-2z" fill="#9d5d35"/>
 <path d="m290 262c-3.802 3.547-6.674 5.785-12 5l-4 1 5 2 3 5h-2l16 19 3 5v-6l6 2c0.239-4.846 0.164-9.246-5-11l-7-7 7 15-12-13h3v-1l-7-5v-1c2.941 0.856 5.196 2.656 6-1l7 6-2-5 5 2v6c6.647-4.868-7.323-12.982-10-18z" fill="#9a715e"/>
 <path d="m45 263c-0.2472 5.759-2.4672 12.167 3 16l-3-16z" fill="#9f693d"/>
 <path d="m49.333 263.67 0.3334 0.666-0.3334-0.666z" fill="#f4d8b3"/>
 <path d="m141 263 1 9h1l-2-9z" fill="#93693c"/>
 <path d="m226.33 263.67 0.334 0.666-0.334-0.666z" fill="#99888b"/>
 <path d="m234 263c-1.004 3.468 1.392 8.014 2 3h1l9 39 3-20h1l2 1 2 12h1l-12-32-3 2-2-1-4-4z" fill="#caad8a"/>
 <path d="m253 263-1 3 1 1 3-1v-2l-3-1z" fill="#653a1e"/>
 <path d="m54 264c-5e-4 4.521-1.8384 11.056 2 14-0.0836-5.214 2.2157-9.989-2-14z" fill="#fde3c0"/>
 <path d="m107 264v14h1l-1-14z" fill="#64290d"/>
 <path d="m127.33 264.67 0.334 0.666-0.334-0.666z" fill="#54270f"/>
 <path d="m229 264v7h1l-1-7z" fill="#59413a"/>
 <path d="m243 264 10 23h1l2-6h1v7h1c1.077-9.885-1.973-12.652 9-15l-4 5c6.322 0.632 11.613 8.713 16 13l-7-4 5 16h1l3-3c-1.017 5.726-5.615 12.329 3 13v8c-7.453 4.722-6.293 22.906-1 29-5.104 7.287 0.602 14.09 7 18v1l-6-1 6 7-4-2-1 1c2.963 3.611 6.239 6.033 11 6l1 1-1 2 12 15c-0.96-12.23-4.67-24.04-13.15-33.29-3.63-3.96-10.37-10.15-6.85-15.71l-1 3c4.182-3.659 0.975-9.62-3-12 5.474-5.06 4.349-13.407 2-20l3 1-2-5v-1c5.398-3.118 5.273-13.322 6-19-2.508-2.661-7.903-12.426-12-9h-1l-3-3c1.3-3.674 1.288-5.801-3-6l-5-7 6 2c-3.097-5.302-6.566-3.181-11-1v-1h2v-1c-2.693 0-10.9-1.177-8 3-9.685 4.433-9.118-2.943-15-9z" fill="#b07d4f"/>
 <path d="m247 264 4 11h1l-3-11h-2z" fill="#b57c3c"/>
 <path d="m261 264c-1.298 2.185-1.211 2.693 1 4l-1-4z" fill="#d59b71"/>
 <path d="m30 266c-1.5941 8.586 1.3231 12.485 5 20h1l-5-10-1-10z" fill="#f8dfb7"/>
 <path d="m29.333 267.67 0.3334 0.666-0.3334-0.666z" fill="#bb9b7c"/>
 <path d="m32 267v8h1v-2h1v4h2v-7l-4-3z" fill="#c3996a"/>
 <path d="m140 267 1 8 2 11-3-19z" fill="#c5ae9c"/>
 <path d="m48 268v10h1l1-10h-2z" fill="#e2d6c0"/>
 <path d="m246 268c1.213 3.794 5.041 11.359 9 6l-4 1-5-7z" fill="#c5ae9c"/>
 <path d="m42 269 2 14h-1l-3-11h-1l3 21 4-1-1-6c4.0164-0.673-0.7605-13.47-1-17h-2z" fill="#c88a50"/>
 <path d="m100 269v5h1l2-5h-3z" fill="#915b32"/>
 <path d="m272 269v1l6 3v1l-9-3 3 2 2 5c3.873 0.452 3.629 2.55 3 6l3 3h1c6.87-1.095 15.583 13.977 19 19l2-2 5 3-3-13c-3.291 2.711-6.296 5.474-8 0l-5.167-8-10.833-11h2l-3-5-7-1z" fill="#b1867b"/>
 <path d="m72 270c-1.455 1.977-3.5177 3.601-1 5v1h-4l-1 2 1 7 4 2 1-3h1l-1 3 8 1 7-11c-2.3962-0.575-2.487-0.475-3 2h-10l3-3v-5l-5-1z" fill="#e7e1c3"/>
 <path d="m129 270v3h1l-1-3z" fill="#c39f7b"/>
 <path d="m230 270 3 16h1l-4-16z" fill="#9b7c72"/>
 <path d="m310 270 1 1-1-1z" fill="#68573d"/>
 <path d="m235 271-2 1h-1c0.789 9.995 3.433 19.395 6.14 29 0.615 2.18 1.107 8.451 3.397 9.503 3.844 1.766 1.845-5.358 1.463-6.503l2-2-5-2 3-5h-4l1-12c-2.941-3.43-1.92-5.916-1-10l-4-2z" fill="#eee8d6"/>
 <path d="m310 271 3 5-3-5z" fill="#fde3c0"/>
 <path d="m36 272v4h1l-1-4z" fill="#7a3709"/>
 <path d="m244 272 3 4-3-4z" fill="#e7d2b2"/>
 <path d="m275 272 3 2-3-2z" fill="#9d5f28"/>
 <path d="m33 273c0.2156 4.719 0.893 10.189 5 13l-1-10-3 1-1-4z" fill="#915b32"/>
 <path d="m143 273 2 11h1l-3-11z" fill="#a07051"/>
 <path d="m216 273 10 29 7 16-1-7h1l3 12 7 7-12-29h1l2 5h1l-4-16-2-1h-1l-1 2-3-11-3 2-5-9z" fill="#8d7261"/>
 <path d="m258 288h-1v-7h-1l2 33h1l-1-18h1l3.705 23.09 3.882 32.74 10.42 23.17h1l1-2c1.563 4.389-1.151 29.679 8 24l5 5-1-7-8-17 10 6-1-5c-6.143-3.114-11.66-5.903-13-13l3-4-6-12 2-2v-1l-5-15-5-1 2-22-2 2-1-14-4-2c3.33-0.975 3.63-2.752 3-6l-3 2c-2.815-7.928-0.214-11.452 4-18-11.616 1.123-8.337 5.44-9 15z" fill="#e1cdb3"/>
 <path d="m170 274 3 9c-4.212 0.667-2.041 8.638-2 12l5 1-2 2 2 5 2 4h-1v-2h-1l-2 4v1l4 11c6.638-0.886 6.798-5.25 3-10l4 1 1-4-3-3 3-3-6-3-1-9 3-1v-1l-7-5 7 2-3-10-9-1z" fill="#cca471"/>
 <path d="m218.33 274.67 0.334 0.666-0.334-0.666z" fill="#d4b4a7"/>
 <path d="m140.33 275.67 0.334 0.666-0.334-0.666z" fill="#fcf0cd"/>
 <path d="m240 283-1 12h4l-3 5 5 2-2 2-0.072 11 7.072 19c5.365-0.391 8.879 5.185 12 9h1c-4.916-19.674-10.986-36.154-11-57l-2-1h-1l-3 20c0.141-4.695-0.781-26.629-5.255-28.744-4.556-2.152-2.894 5.108-0.745 6.744z" fill="#e1cdb3"/>
 <path d="m313 275 1 1-1-1z" fill="#776e68"/>
 <path d="m37 276v5h1l-1-5z" fill="#d3b68c"/>
 <path d="m57 276 1 4 2-4h-3z" fill="#fde3c0"/>
 <path d="m117 276-9 11-1 1c-0.379 2.923-2.812 6.306-6 5h-1l-2 15v1l3 10c5.698-3.781 2.383-16.423 3-23h1l3 2-5 30h-1v-3c-5.9079 3.439-6.168 11.166-4 17l-4 3 6 5-7 1-2-9-3 1-1-5h-1l-4 8-2 3 2 2-5.3241 17.961-0.676 21.04h2l-2 3 4 1v-8h1l1 11-4-1 2 11h-1l-4-4 10 23-3 3c3.0644 1.893 11.434 11.311 13 4l3 2-9-20 6 6h1l-5-6v-2l6-3-8 3v-17h-1v4h-1c-0.1222-14.764 0.7743-22.513 9-35l-9 1c2.9717-8.284 7.6579-11.707 15-16-0.266-3.981 1.781-7.555-2-10l1-5h1l2 11c3.988-3.249 6.428-6.835 7-12l3 2c0.836-3.268 3.545-11.318-1-12l1-4-5-1 1-11h4l-3-3 2-8 5-9-11 8c3.408-4.466 12.8-14.416 10-20z" fill="#b07d4f"/>
 <path d="m127 276v14h1l1-14h-2z" fill="#907c77"/>
 <path d="m219 276 2 6h1l-3-6z" fill="#bb946a"/>
 <path d="m307 278 2 10 9-1v-1l-5-10-6 2z" fill="#cca471"/>
 <path d="m313 276 3 10h1l-4-10z" fill="#f3d4bd"/>
 <path d="m29 277 3 10h1l-4-10z" fill="#e1bd92"/>
 <path d="m49 277 1 13h1l4-13h-6z" fill="#c2b9b2"/>
 <path d="m128 277v24h1c2.051-6.469 6.199-20.03-1-24z" fill="#c88a50"/>
 <path d="m178 277 4 6-4-6z" fill="#bb844d"/>
 <path d="m255 277-3 1v1l3-2z" fill="#c48e64"/>
 <path d="m263 291 3-2-3 6 1 3 3-1 1 14 2-2-2 22 5 1 3 18 4 11h1l2-11c-7.905-7.355-7.009-21.548 1-29v-8c-7.93-1.268-3.574-7.393-3-13l-3 3h-1l-5-16 7 4c-2.603-3.579-8.702-12.019-13.215-13.044-6.95-1.58-4.22 10.17-2.78 13.04z" fill="#d3aa86"/>
 <path d="m314 277 1 1-1-1z" fill="#716b4b"/>
 <path d="m46 278c0 3.769 2.7133 8.928-1 8l5 5-4-13z" fill="#7a4218"/>
 <path d="m54 278-3 16h1l4-16h-2z" fill="#a97d65"/>
 <path d="m122 278-9 19-2 8 3 3h-4l-1 11 5 1-1 4c3.665 0 2.075 5.159 2 8h1c5.483-17.111 9.998-33.883 10-52h-1l-1 3h-1l-1-5z" fill="#d6a56c"/>
 <path d="m215 279 3 14 5.278 7.778l4.72 28.22h1v-3h1l7 6-4-9c5.361-0.8 1.477-8.895 0-12h-1l1 7-7-16c0.343-7.749-5.576-17.741-11-23z" fill="#6b4a41"/>
 <path d="m32 281 3 9c1.7001-3.543-0.464-6.347-3-9z" fill="#bb895d"/>
 <path d="m60 281-1 7-3-1-4 7 4 21h1c1.0513-5.782-5.9645-18.711 3-21v-13z" fill="#d1bca9"/>
 <path d="m61 282-1 34h1c0-2.212 0.2061-18.396 4-12h1v-7l5 1-2-3 3-4-3 3h-1l-1-2-4 1v-1l4-1-4-3 2-2-1-4h-3z" fill="#e2d6c0"/>
 <path d="m82 286-4 8h1l8-6-1 4-11 8v17h5l2 3v1l-1 2-4-2-4 13v1l4 3 7-18v-1l2-1-4-5 1 2h-1l-3-3 5-4 4 1v-1l-3-1 2-3-2-9 2-5 5-6h4l-14 2z" fill="#e1bd92"/>
 <path d="m144 283v10l7 5h1v-8l-4 1-4-8z" fill="#b68869"/>
 <path d="m224 283 3 8h1l-4-8z" fill="#62402b"/>
 <path d="m255 283v15h-1v-2h-1c0 13.095 1.562 25.647 6 38h1l-2-9 2 2h1l2-8h-1l-1 3h-1l-3-5c1.817-8.357 1.304-26.126-2-34z" fill="#d59b71"/>
 <path d="m99 285v19h1l-1-19z" fill="#d6b293"/>
 <path d="m128 286-1 11h1v-11z" fill="#ab979a"/>
 <path d="m200 286-3 5 4 1-2-2v-1l1-3z" fill="#c39d82"/>
 <path d="m308 287 1 5c4.652 3.309 8.704 7.058 9 13l5-2c-1.068-2.155-3.17-10.024-6-7l-3-10-6 1z" fill="#805b4b"/>
 <path d="m314 286c-0.436 4.221-0.129 7.01 3 10l3-1 1-4-6-1v-1l4-3h-5z" fill="#9f7a62"/>
 <path d="m32 287 1 1-1-1z" fill="#776747"/>
 <path d="m33 287 2 6h1l-3-6z" fill="#d6ae6f"/>
 <path d="m40 287-1 11 6-6-3 1-2-6z" fill="#e7c188"/>
 <path d="m118 287 1 1-1-1z" fill="#5b330d"/>
 <path d="m131 287v6h1l-1-6z" fill="#4f3022"/>
 <path d="m319.33 287.67 0.334 0.666-0.334-0.666z" fill="#6f5b56"/>
 <path d="m36 288 2 9h1l-1-9h-2z" fill="#946a44"/>
 <path d="m52 288v6h1l-1-6z" fill="#68573d"/>
 <path d="m234 288 1 1-1-1z" fill="#9f6a47"/>
 <path d="m54 289-1 6h1v-6z" fill="#eee8d6"/>
 <path d="m202 290 1 4-7-1 2 10 5 3-4-1-1 3c10.274 5.911 26.335 19.561 24 33l4 11 7 2-9.438-47-6.38-16.103-15.18-0.9z" fill="#c88a50"/>
 <path d="m210 289v1h4l-4-1z" fill="#e1bd92"/>
 <path d="m315 289v1l6 1-1 4 3-1 2 9c2.924-7.185-2.942-13.769-10-14z" fill="#b8aba6"/>
 <path d="m46 290v1h3l-3-1z" fill="#d3b68c"/>
 <path d="m189 290 2 7h1l-3-7z" fill="#875824"/>
 <path d="m190 290 2 3v-3h-2z" fill="#e1cdb3"/>
 <path d="m39 299 6-5h3l-4 7h6l-3 7 3 2 2-2h1l-10 14c17.191-6.256 9.3023-13.808 9-28l-3-3-10 8z" fill="#876254"/>
 <path d="m49.333 291.67 0.3334 0.666-0.3334-0.666z" fill="#d3aa86"/>
 <path d="m50 291v4h1l-1-4z" fill="#74472e"/>
 <path d="m144 291 1 1-1-1z" fill="#f7f2da"/>
 <path d="m235 291 1 1-1-1z" fill="#ae9471"/>
 <path d="m219 292 9 32h1c-0.525-9.399-3.478-24.992-10-32z" fill="#48271f"/>
 <path d="m233 292 4 6-4-6z" fill="#752b09"/>
 <path d="m307 292-1 12 8 5h1v-3h1v2h1l-8-16h-2z" fill="#876254"/>
 <path d="m309 292 7 13h2c0.638-6.024-3.795-10.535-9-13z" fill="#9e8575"/>
 <path d="m58 293c-3.6928 7.179-2.4906 10.443-1 18h1l2-17-2-1z" fill="#c39d82"/>
 <path d="m145 293 2 6h1l-3-6z" fill="#e9c3a7"/>
 <path d="m299 293v6h1l-1-6z" fill="#624436"/>
 <path d="m45 294 1 3h1l1-3h-3z" fill="#d59b71"/>
 <path d="m147 294 2 8 3 13h1l2-2-1-5 3 1-4-13h-1l-1 2-4-4z" fill="#9f7a62"/>
 <path d="m301 294v2h2v-2h-2z" fill="#d1bca9"/>
 <path d="m322 294-2 1 3 8-1 3c4.354-3.14 3.018-8.204 0-12z" fill="#876254"/>
 <path d="m41 298v1l5-2-5 1z" fill="#e7d2b2"/>
 <path d="m58 296v4h1l-1-4z" fill="#9f6a47"/>
 <path d="m167 296 1 11 2 4c4.719 2.808 7.451 9.667 8 15l6 4-3-1 2 6-2-2h-1c0.737 4.613 6.465 17.992 11 19v1h-4l1 6h1l2-2-1 6c0.892 3.377 2.171 7.153 6 5h1l3 2-3-6c2.469 1.497 3.333 2.034 4-1-5.658 0-7.6-13.347-7-18l-3 1-4-11 3-1-5-8-4-3 6 1c-2.223-3.159-5.311-3.372-9-3 0.791-3.692 0.108-10.106-4-11v-1l2-4h1v2h1l-2-4v-7l-5 2-4-2z" fill="#dab77e"/>
 <path d="m258 296-1 21 5 3-4-24z" fill="#d1a395"/>
 <path d="m293 296c-1.667 7.14 1.191 13.011 5 19l-3 1-1-4h-1c-0.584 3.308-1.697 14.384 2 15l-5 5v20h4l5-5c1.883 6.766 3.345 13.137 11 15l-2-5 3 2h4l-1-7 5 3-1-5 2 2c6.007 1.848 7.736 15.348 9 21h-4c0.05 3.078-0.297 5.586 3 6l-4 3c-0.683 3.915-1.184 6.607 3 8v4h1l1-3h1l-1 4c5.033-2.49 5.286-5.77 5-11l-4 6h-1l5-23h1l1 8h1c1.837-10.357-2.46-21.261-11-27.502-3.533-2.581-8.557-3.589-11.185-7.317-3.575-5.072 3.081-11.693-2.815-16.181 1.421 5.908 0.44 9.694-4 14v1l9 12c-7.303-1.839-10.916-5.489-11-13h-1l-3 4 3 7 4 3h-6l-3-22 5 1v4l2 1h1v-5h1l1 2v-13h-1l-2 2v-5h3l-5-5-3 4c2.853-7.865-3.541-14.631-9-20z" fill="#6a554f"/>
 <path d="m126 297 1 9h-1v-3h-1l-6 27h2l4-10h1l2-23h-2z" fill="#82738d"/>
 <path d="m213 297 6 13-6-13z" fill="#c39d82"/>
 <path d="m30 327h1c0-7.049-0.2965-14.108 4.5563-19.867 3.0312-3.598 7.2653-4.762 9.4437-9.133-14.835 3.834-15 16.331-15 29z" fill="#b68869"/>
 <path d="m237.33 298.67 0.334 0.666-0.334-0.666z" fill="#9e8575"/>
 <path d="m303 298 5 11 4 3h1c-0.994-4.178-2.632-7.218-7-8l-1-6h-2z" fill="#62402b"/>
 <path d="m147 299 5 13c0.43-3.94 0.522-7.719-3-10v-3h-2z" fill="#c4a395"/>
 <path d="m326 299v3h1l-1-3z" fill="#7e6c66"/>
 <path d="m46 300-3 5 7-4-4-1z" fill="#aa845a"/>
 <path d="m237 300v3h1l-1-3z" fill="#74472e"/>
 <path d="m37 301 1 1-1-1z" fill="#6a6a54"/>
 <path d="m42.667 301.33 0.6666 0.334-0.6666-0.334z" fill="#955b25"/>
 <path d="m35 308 5-3-5 11 11-15-11 7z" fill="#f3d4bd"/>
 <path d="m75 301-2 17h-1v-4l-2-1h-1l1 7-2-2h-1l-2 14 2-1-1 5c3.4072 4.498 1.3501 9.965 0.0139 15-2.4522 9.241-5.0075 18.39-5.0139 28h1l1-9h1v5l2-8h1l4 1v-8l3 1-3-3 4-2-1-4 1-5 4 5h1l-1.32-13 4.32-13h-1l-5 12-4-3v-1l4-13 4 2 1-3-2-3h-5l2-16h-2z" fill="#e2d6c0"/>
 <path d="m231 301 8 19c1.432-5.515 0.964-10.118-2-15l-3 1-3-5z" fill="#6b4a41"/>
 <path d="m194 302c0.99 6.399 6.245 9.818 12 12l-12-12z" fill="#edb387"/>
 <path d="m238.33 302.67 0.334 0.666-0.334-0.666z" fill="#b69692"/>
 <path d="m35 303 1 1-1-1z" fill="#68573d"/>
 <path d="m46 303-6 6c3.2751-0.928 6.0802-2.328 6-6z" fill="#c4a395"/>
 <path d="m58 303-3 18 1-5-5 3 2 2-7 11 1 7h1c6.3082-9.586 14.995-24.097 10-36z" fill="#a07051"/>
 <path d="m183 305 3 3-1 4-4-1 3 2-2 7v1l5 3-6-1 4 3 5 8-3 1c1.205 4.474 1.368 10.11 7 10-0.697 5.321 0.479 17.092 7 18l-1 3-3-2 3 6-4-2 4 7-1 3c8.774 1.192 4.77 13.288 5.419 18.996 0.636 5.592 6.516 9.615 11.581 11.004l-2-2c4.829-12.682-4.793-23.896-12-33l3 1 1-1-1-4 3 2-12-43h1c4.553 12.121 9.643 21.551 18 31l8-3v1l-4 5h1l4-4 1 4h7v1c-4.109 2.801-6.907 9.152-6 14l5-8v2l7-3 1-1c-0.785-8.285-4.712-13.264-13-15v-5h-1l-1 4h-2c-0.575-8.376 0.927-17.349-8-21v6l-6-22-8 3-3-3 3 13c-4.908-5.458-6.933-25.371-17-22z" fill="#cda063"/>
 <path d="m291 303 4 13 3-1-7-12z" fill="#ab979a"/>
 <path d="m301 304c1.19 3.848 3.21 4.283 7 5l-7-5z" fill="#c5ae9c"/>
 <path d="m309 304 4 8h-1l-2-4h-1v4l-3-3h-2l-2 7 3-4c4.181 3.074 6.342 5.756 7 11h2l2-17h-1v3h-1l-5-5z" fill="#9c837b"/>
 <path d="m317 307 5-3-5 3z" fill="#b3a7b8"/>
 <path d="m36 311h1l3-6-4 6z" fill="#a07051"/>
 <path d="m46 305-5 7 7-3-2-4z" fill="#a7673c"/>
 <path d="m153.33 305.67 0.334 0.666-0.334-0.666z" fill="#49342f"/>
 <path d="m239 305v4h1l-1-4z" fill="#9f7a62"/>
 <path d="m50.667 306.33 0.6666 0.334-0.6666-0.334z" fill="#d4b4a7"/>
 <path d="m291 306-2 36h1v-10c5.363-3.477 4.043-20.919 1-26z" fill="#9f693d"/>
 <path d="m318 306v2h4v1l-3 4 4-7h-5z" fill="#9c837b"/>
 <path d="m48 307-1 4 3-4h-2z" fill="#e3dcce"/>
 <path d="m169 307-7 2 3 11h3l-3 5c2.083 6.751 6.738 13.198 9.381 20 5.596 14.399 9.462 29.773 12.04 45 1.463 8.645 3.483 19.307 12.579 23l6-2 2 8h1l1-6h1l2 2-3-3c-0.253-4.185-3.983-6.123-4.976-10.039-1.55-6.112 5.852-23.409-5.024-23.961l1-3-10-12c3.814-0.821 2.336-3.068 1-6l-2 2h-1l-1-6h4v-1h-3l-8-19h1l2 2-2-6 3 1-6-4c0.402-5.076-2.941-13.188-8-15l-1-4z" fill="#e1cdb3"/>
 <path d="m235 307 2 5h1l-3-5z" fill="#907c77"/>
 <path d="m317 307v4l5-2v-1l-5-1z" fill="#5c3b22"/>
 <path d="m34 308c-3.0456 6.67-3.9684 19.228-1 26l5-5-3-13-2 1 1-9z" fill="#e1bd92"/>
 <path d="m35 308-2 9h1l1-9z" fill="#c69257"/>
 <path d="m49 308v9l4-9h-4z" fill="#bb844d"/>
 <path d="m127 308-2 8h1l1-8z" fill="#665c5d"/>
 <path d="m154 308c2.546 12.335 4.046 33.844 18 38l-9.66-20.17-8.34-17.83z" fill="#50413a"/>
 <path d="m304 308v1l5 3-5-4z" fill="#745e5d"/>
 <path d="m39 309v4h1l2-4h-3z" fill="#e9cf7d"/>
 <path d="m35 324h1v-3l3 1v-4l4 2c1.2505-1.675 6.5991-6.369 3-7l1-4c-8.0683 2.113-11.971 6.828-12 15z" fill="#bb895d"/>
 <path d="m156 309 4 7-4-7z" fill="#c3996a"/>
 <path d="m192.33 309.67 0.334 0.666-0.334-0.666z" fill="#8b4c1a"/>
 <path d="m316 310-1 4h4l-3-4z" fill="#805b4b"/>
 <path d="m46 313-3 7c4.4986-2.045 5.839-4.082 6-9l-3 2z" fill="#d6b293"/>
 <path d="m193 311 7 16-7-16z" fill="#a07051"/>
 <path d="m240 311 2 9-1 3h1c1.232-4.178 1.771-9.13-2-12z" fill="#876f70"/>
 <path d="m153 312 5 10-5-10z" fill="#99888b"/>
 <path d="m238.33 312.67 0.334 0.666-0.334-0.666z" fill="#9c837b"/>
 <path d="m289 312-2 3v1l2 5-3-1c1.775 7.277 2.836 13.945-2 20l4 5h1v-33z" fill="#c88a50"/>
 <path d="m57 313-2 2v6l2-8z" fill="#c39f7b"/>
 <path d="m121 313v5h1l-1-5z" fill="#6b4a41"/>
 <path d="m92 318h1l2-2 1 18h1l4-14h-1l-3 6c1.1947-2.709 2.7428-5.905 1.5231-8.912-1.658-4.09-5.59-2.28-6.523 0.91z" fill="#946a44"/>
 <path d="m126 314v4h1l-1-4z" fill="#b69692"/>
 <path d="m153 314 1 6h1l-2-6z" fill="#564c3c"/>
 <path d="m308 314 2 2v-2h-2z" fill="#d5c1bb"/>
 <path d="m31 315v14h1l-1-14z" fill="#f8dfb7"/>
 <path d="m207 315 6 12-2 5 3 4v-6c8.504 4.878 6.948 12.232 8 21h2c0.966-4.066 1.651-7.367-2-10 2.468-9.258-6.905-22.222-15-26z" fill="#d3aa86"/>
 <path d="m251 316c-0.241 4.189-0.886 7.597 3 10l-3-10z" fill="#daaf7b"/>
 <path d="m42 320c-2.4865 4.115-2.8415 6.537-1 11 4.6604-1.629 7.9461-4.881 7-10l5 1-2-3 3-1-12 2z" fill="#c8b4a6"/>
 <path d="m243 317 1 14-8-8v-3l2 12-7-5 1 19c4.042 0 3.815 5.156 1 7v1l3 4h1l6-5 5 9 3-1-2-8-2-8-3 1 1-6h2l1 4h5c-0.73-8.367-4.704-20.444-10-27z" fill="#745e5d"/>
 <path d="m307 317v5l2-2h1l-1 11h-1v5h-1l-1-2-3 8h1c3.954-7.245 11.664-7.692 8-18 7.601 8.75-3.813 17.434 12 22v-1c-2.739-1.625-7.495-3.425-7.978-7.043-1-7.47 8.64-13.2-4.02-14.96l-1-6h-4z" fill="#836765"/>
 <path d="m39 318v4l-3-1 2 8c-4.8469 2.834-4.0654 7.136 1 9v-20z" fill="#8f6652"/>
 <path d="m120.33 318.67 0.334 0.666-0.334-0.666z" fill="#735141"/>
 <path d="m124 318-3 12h-2v-5h-1l-18 37 3 1 2-6 5-1 1-11h1v4l4-2-2 5 11-16-1-18z" fill="#745e5d"/>
 <path d="m126 318v6h1l-1-6z" fill="#5a3631"/>
 <path d="m160 318 1 6h1l-2-6z" fill="#9b7c72"/>
 <path d="m58 319-4 11 2-1v1l-8 9h-1l1-6-8 3-2 3 11 8 2-4c-3.9854-8.708 17.112-11.281 7-24z" fill="#b59087"/>
 <path d="m239 319 4 12h1c-2e-3 -3.346 0.858-7.515-3-8l-2-4z" fill="#49342f"/>
 <path d="m260 319v3h1l-1-3z" fill="#eddae0"/>
 <path d="m155 320 2 8h1l1-6-4-2z" fill="#8d7261"/>
 <path d="m48 321-7 14c5.6405-2.815 9.6539-6.022 12-12l-5-2z" fill="#ae9471"/>
 <path d="m233 323 4 9h1l-5-9z" fill="#907c77"/>
 <path d="m162 324v4h1l-1-4z" fill="#8d7261"/>
 <path d="m261 327h-1l-2-2 4 15h1l-1-16-1 3z" fill="#bb7d4a"/>
 <path d="m68 325v11c4.4408-1.779 4.6476-5.581 5-10l-5-1z" fill="#d3b68c"/>
 <path d="m164 326 4 9c2.588-4.207-0.722-6.411-4-9z" fill="#cca471"/>
 <path d="m229 326 4 27c3.08-1.955 2.822-6.48-1-7-0.036-6.558 0.966-14.434-3-20z" fill="#4f3022"/>
 <path d="m63 327v8h-1l-2-2c-0.711 4.836-3.936 10.797 1 14l-2-4c5.7427-3.012 7.57-10.555 4-16z" fill="#ab979a"/>
 <path d="m294 327-1 4h1v-4z" fill="#62402b"/>
 <path d="m39 328 1 7h1l-2-7z" fill="#eddae0"/>
 <path d="m158.33 328.67 0.334 0.666-0.334-0.666z" fill="#e3dcce"/>
 <path d="m196 328c1.817 14.305 4.187 30.74 12 43l-3-2 16 29h1l-1-6h1l4 10h1v-5c3.605-3.166 1.805-13.533-2-16l1 3h-1l-1-3-6-3 1-1 4 2c-1.493-3.523-3.724-8.46-8-7-5.615-13.689-8.461-32.939-19-44z" fill="#665c5d"/>
 <path d="m55 329-3 5 3-5z" fill="#d4b4a7"/>
 <path d="m94 329-2 20h1l1-6 4-1-2-13h-2z" fill="#74472e"/>
 <path d="m109 329-1 6h1l2-6h-2z" fill="#93693c"/>
 <path d="m159 329v4h1l-1-4z" fill="#8d8883"/>
 <path d="m300 330 3 22h1l3-2v-1l-1-2c-4.883-4.943-1.384-9.967-1-16l-5-1z" fill="#3a262c"/>
 <path d="m66 331-1 22h1c1.0033-4.863 4.3247-13.221 0-17v-5z" fill="#e1bd92"/>
 <path d="m165 331 7 15c3.699-5.409-2.995-11.523-7-15z" fill="#7e6c66"/>
 <path d="m94 332-2 10h1l1-10z" fill="#b3823d"/>
 <path d="m41 336 5-2-5 2z" fill="#9d5d35"/>
 <path d="m251 333 1 7h1v-5h1l5 19-3-1 5 22 5-3 1 6h1v-11l-7-12 3 2c-0.431-7.977-4.443-21.613-13-24z" fill="#f4d8b3"/>
 <path d="m111 334-4 10c4.268-1.462 6.497-6.054 4-10z" fill="#e3cda7"/>
 <path d="m39 335-2 3v1h4v-4h-2z" fill="#c4a395"/>
 <path d="m51 343-2 5 6-3 2-10c-4.8741 0.369-9.3157 2.965-6 8z" fill="#9b7c72"/>
 <path d="m101 335-1 5 2 10c-7.7286 3.221-13.08 7.539-15 16 13.634-0.113 17.296-10.686 22-22l-5 2c0.954-4.681 0.428-7.541-3-11z" fill="#d6b293"/>
 <path d="m123 335-7 23h1v-3h1v2h1l4-22z" fill="#a78c78"/>
 <path d="m253 335c4e-3 6.213-0.026 15.68 6 19-0.31-7.518-0.558-13.03-6-19z" fill="#f7f2da"/>
 <path d="m263 335v8h-1l-2-4h-1l2 10h1l1-3 4 2-4-13z" fill="#c39f7b"/>
 <path d="m277 336c-1.022 4.777-0.15 9.084 4 12l-2-12h-2z" fill="#bb9361"/>
 <path d="m64 337-5 8c5.6498 0.95 7.0282-3.155 5-8z" fill="#907c77"/>
 <path d="m248 337 1 4h1l-2-4z" fill="#2d1c17"/>
 <path d="m241 338v3h-1v-2h-1l2 13h1l-1-14z" fill="#99888b"/>
 <path d="m306 338c0.026 7.667 3.006 11.854 11 13l-9-13h-2z" fill="#44363c"/>
 <path d="m248.33 339.67 0.334 0.666-0.334-0.666z" fill="#9c837b"/>
 <path d="m245 340-1 6 3-1 2 8h-2c1.641 3.588 3.665 5.55 1 9l-4-6 1 4v1l-4 1-4-4 3 3 14 24c5.045 1.585 7.564 8.081 7 13h1l2-3 1 3h1l-4.571-11.015-2.43-15.98-2 1-1-4 4-1v-2l-7-3-3-15c3.925 0.027-2.054-5.018-3-7h-2z" fill="#876f70"/>
 <path d="m251 342 1 5h1l-2-5z" fill="#5b2c1a"/>
 <path d="m53 344-5 14h-1v-8h-2l-1 8 1 10h1c2.268-5.092 9.8401-19.642 7-24z" fill="#865b3b"/>
 <path d="m95 344-2 7h1l6-1-5-6z" fill="#cba979"/>
 <path d="m253 344-3 3 3 15 6 2-6-20z" fill="#66515c"/>
 <path d="m42 346v1l7 1-7-2z" fill="#62402b"/>
 <path d="m55 345-9 25h1l10-25h-2z" fill="#b79d87"/>
 <path d="m64 345-2 3v1c2.0586 4.019-0.8251 7.426-4 10l2 8-1 9h1c2.5381-9.028 7.851-21.823 4-31z" fill="#a99086"/>
 <path d="m111 345-1 11-5 2 7 3 4-14-4 2-1-4z" fill="#a78669"/>
 <path d="m174 345 1 7h1l-2-7z" fill="#836765"/>
 <path d="m47 373-4 3h-2l-1-4h-4l1 13h-1v-9h-1v7h-1v-6h-1l1 10 4-1 4 9h1v-4h1v4h1l-4-16-3-3 4 1v4l2-3h1l2 2 12-32h1l-2 10h1l4-12c-8.4761 0.978-17.029 18.668-16 27z" fill="#735743"/>
 <path d="m254.33 346.67 0.334 0.666-0.334-0.666z" fill="#c5ae9c"/>
 <path d="m263 346c-1.61 8.361 7.441 18.466 12 25h1l-11-25h-2z" fill="#c88a50"/>
 <path d="m39 348c-2.3653 9.408-5.9215 15.494-4 26h1c1.1709-6.28 1.7806-11.759 7-16l-1-3-3 1 5-9-5 1z" fill="#caad8a"/>
 <path d="m44 347-5 9 3-1 1 3c-5.368 2.905-5.6807 8.552-7 14h4l3 4-1-3c4.2117-1.762 4.5465-15.017 2-15l1-8h2v8h1l1-10-5-1z" fill="#a07051"/>
 <path d="m75 347-1 5 1 4-4 2 3 3-3-1v8h-3v9l9-8 5-18-3 1-4-5z" fill="#d6ae6f"/>
 <path d="m298 347-4 2c0.881 5.664 4.749 8.323 10 10l-6-12z" fill="#49342f"/>
 <path d="m59 348c-3.1578 5.211-5.837 9.769-5 16h1l4-16z" fill="#c5ae9c"/>
 <path d="m31 370h1l8-21c-7.8272 2.448-8.9414 13.922-9 21z" fill="#e2d6c0"/>
 <path d="m62 349-3 10 5-10h-2z" fill="#d3cbc9"/>
 <path d="m286 349c0.906 10.302 10.118 18.169 15 27h1l-12-26-3 2 1-3h-2z" fill="#d19d65"/>
 <path d="m291 350v4l3-1-3-3z" fill="#9c837b"/>
 <path d="m306 350 3 2-3-2z" fill="#10050d"/>
 <path d="m318 350v6h4l-11 3-3-2 5 7 2-1 3 7 3-1-2 3 2 3h-2l4 10h1v-3l3 1 1-4c-3.287-0.43-2.95-3.04-3-6h4c-0.199-7.364-3.649-20.637-11-23z" fill="#4b3a3f"/>
 <path d="m113 352v13c4.915-3.044 3.042-7.882 3-13h-3z" fill="#623832"/>
 <path d="m176 352 5.694 27.715l2.31 9.28c-0.222 3.874 0.59 6.052 4 8-2.726-14.048-4.285-32.739-12-45z" fill="#47292f"/>
 <path d="m314 352c0.186 5.603 3.426 8.617 8 4l-8-4z" fill="#7e6f75"/>
 <path d="m241 353-1 4 5 2-2-6h-2z" fill="#342b26"/>
 <path d="m292 353 12 21h1l-4-7c8.771-1.879-4.676-13.255-9-14z" fill="#6f5b56"/>
 <path d="m264 354v3h-1l-1-2h-1c0.66 4.335 2.101 12.953 8 10l5 10h1l2-2-2-5 1 3h-1l-11-17z" fill="#d6a56c"/>
 <path d="m57 355c-1.1537 5.574-1.9173 14.891-7 18l-1 9h1v-3h1l-3 23 1 10h-1l-2-4-3 1 1 3-4-1h-1v4h-1l2-5v-1c-4.4773 1.394-3.9567 3.893-3 8l3-1v2h2l1-3 2-1 4-1 2 4 3-14c-4.976 0-1.6377-7.869-1.3333-11 0.8294-8.532 1.8531-17.295 3.6666-26 0.8163-3.918 3.5592-7.651 0.6667-11z" fill="#89724f"/>
 <path d="m117 355v9h2l-2-9z" fill="#876f70"/>
 <path d="m210 355c2.49 9.882 8.666 20.08 17 26l5-9 1 4c4.885-2.45 9.875-7.651 6-13v4l-1 1-7 3v-2l-5 8c-0.229-5.057 2.508-10.404 6-14v-1h-7l-1-4-1 3-3 1h-1l4-5v-1l-8 3-5-4z" fill="#ddb985"/>
 <path d="m119 356v5h1l-1-5z" fill="#49342f"/>
 <path d="m237 357 4 5 4-1-8-4z" fill="#acb0a7"/>
 <path d="m247.33 358.67 0.334 0.666-0.334-0.666z" fill="#44363c"/>
 <path d="m101 366 5-6 2 1-7 5z" fill="#b8aba6"/>
 <path d="m302 359c0.648 3.335 2.02 5.853-1 8l4 7h-1l-1-2 3 14 4-1 5 9-3-27h1l5 18c4.308 0 5.901 11.224 6 15 2.806-3.873 0.385-7.694-0.548-12-2.62-12.1-8.84-24.97-21.45-29z" fill="#7e6c66"/>
 <path d="m321 359-1 9h1l2-9h-2z" fill="#745e5d"/>
 <path d="m58 360-1 10h1v-10z" fill="#f1dfbc"/>
 <path d="m106 360-6 12 5-3 1 7 6-14-6-2z" fill="#6a554f"/>
 <path d="m211 360 4 12h1l-5-12z" fill="#a78669"/>
 <path d="m310 360c0.205 4.777 6.416 13.363 11 15l-2-3 2-3-3 1-3-7-2 1-3-4z" fill="#2e2025"/>
 <path d="m52 361-1 5h1v-5z" fill="#d5c1bb"/>
 <path d="m53 361-3 9v1l2 2h1v-12z" fill="#9e8575"/>
 <path d="m110 361v1l-2 12 1-5 4-1-3 8h4l-7 6 3 6 8-19c-4.156-0.571-4.492-4.32-5-8h-3z" fill="#8d7261"/>
 <path d="m239.33 361.67 0.334 0.666-0.334-0.666z" fill="#48271f"/>
 <path d="m88 381h1l13-19c-7.5521 2.132-14.609 11.097-14 19z" fill="#342b26"/>
 <path d="m280 362-1 4c0.344 4.214 1.742 9.645 7 7h1l3 2-6-7 6 1-10-7z" fill="#c48e64"/>
 <path d="m34 363-2 7h-1v-2h-1l3 4-2 8h1l1-3h1v6h1v-7h1v9h1l-3-22z" fill="#9b7c72"/>
 <path d="m114 364 2 6h1v-7l-3 1z" fill="#a99086"/>
 <path d="m103 364-3 1c-6.9945 8.14-12.96 13.191-13 25h1v-4h1l1 10 3 3h1l-1-23h1v17h1l2-3-1-4h1l1 2 7-19-5 3 5-8h-2z" fill="#876254"/>
 <path d="m56 365v9h1l-1-9z" fill="#cdc3c9"/>
 <path d="m114 365v4h1l-1-4z" fill="#d1bca9"/>
 <path d="m181 365v3h1l-1-3z" fill="#c4a395"/>
 <path d="m268 365 8.328 18 2.672 26h-1v-5h-1l-2 6 3 7-4 6 5-1v1l-6 4 5-1 4 4-1 3 4 3h-6v1l10 5v-5l-4 1v-1l3-7-8-3v-1l1-2 8-3-1-5h-8v-1l8-1c0.018-4.224 2.322-11.86-3-13v-1l2-3h-1c-10.198 5.494-1.597-25.841-9-22l-1-3-1 3h-1l-6-10z" fill="#bb895d"/>
 <path d="m50 366-1 8h1v-8z" fill="#e7d2b2"/>
 <path d="m209.33 366.67 0.334 0.666-0.334-0.666z" fill="#8d79ad"/>
 <path d="m241 366-2 8 3-1v4l3 6 6-1-10-16z" fill="#c3996a"/>
 <path d="m249 366c-2.309 4.685-0.161 6.448 3 10h1l-2-8h1l6 8-5-10h-4z" fill="#a39493"/>
 <path d="m255.33 366.67 0.334 0.666-0.334-0.666z" fill="#a99086"/>
 <path d="m59 367-3 12h1v-2h1v3h1v-13z" fill="#82738d"/>
 <path d="m66 367-2 8v-5h-1l-1 9h-1v-5h-1c-1.4282 8.396-5.2373 13.356-2 22h1l1-3-2 1v-1l2-8 2 1v-5h1l2 8h1c0.6532-7.435 4.7601-15.034 0-22z" fill="#d3b68c"/>
 <path d="m258 367 2 8h1l-1-8h-2z" fill="#4b3a3f"/>
 <path d="m312 367 3 27-5-9c-5.431 3.917-2 15.83-2 22h1v-4h4v-1h-2v-1l5-3h-7l1-4c3.137 0.834 5.231 1.589 6-2l2 1v-3h1l1 4h2l1-1-5-8-6-18z" fill="#6f5b56"/>
 <path d="m334 367-5 23h1l4-6v5h2l2-17-1 3h-1l-2-8z" fill="#4b3a3f"/>
 <path d="m75 368c-8.607 8.661-10.79 23.991-6 35l-2-1 8 12v-1c-5.9403-6.831-3.0033-18.608-4-27h-1v4h-1v-9h3l3-13z" fill="#e3cda7"/>
 <path d="m109 369c0.212 5.445-4.04 10.822-3.353 15.941 0.754 5.629 5.675 3.119 6.353-0.941l-2 4c-4.444-5.364 0.232-14.524 3-20l-4 1z" fill="#a39493"/>
 <path d="m256 368 1 4h1l-2-4z" fill="#bca0a2"/>
 <path d="m266 369c0.561 3.367 4.684 11.421-1 10l1 4 2-1 3 11-1 18 3 9h1c0.97-2.531 4.831-9.348 1-10l2-6h1v5h1l-3-29-2 2c-1.109-5.881-1.54-11.142-8-13z" fill="#d3aa86"/>
 <path d="m45 370-1 3h3l-2-3z" fill="#d6a56c"/>
 <path d="m97 370-3 6h1l2-6z" fill="#ab979a"/>
 <path d="m182 370v3h1l-1-3z" fill="#9c837b"/>
 <path d="m260.33 370.67 0.334 0.666-0.334-0.666z" fill="#a99086"/>
 <path d="m50 371v2h2v-2h-2z" fill="#caad8a"/>
 <path d="m74 371c-2.5729 11.256-1.4391 21.613 0 33l5 3h1l-2-11 4 1-1-11h-1v8l-4-1c1.3791-1.587 2.6509-3.073 0-3 1.7622-6.379 5.648-15.795-2-19z" fill="#c3996a"/>
 <path d="m106.33 371.67 0.334 0.666-0.334-0.666z" fill="#d4b4a7"/>
 <path d="m30 372c0 6.626-1.2279 15.049 4 20l-1-20h-3z" fill="#b8aba6"/>
 <path d="m55 372c-0.2988 4.449-2.4723 10.399 3 12v-7h-1v2h-1l-1-7z" fill="#9f959e"/>
 <path d="m237 412-6-22h1l3 11h1c2.759-7.058 7.224-8.591 14-6l-3-4 1-5c-2.695-0.142-8.193-1.427-6-5l-3-8-6 3-1-4c-9.114 6.384-4.083 35.126 5 40z" fill="#e3cda7"/>
 <path d="m265 372c-8.815 7.942-1.496 17.305 1.136 26.004 1.398 4.621 1.613 10.177 5.864 12.996 0-3.081-6.076-19.269-1-18l-3-11-2 1-1-4c3.165-0.539 1.251-4.852 0-7z" fill="#dfc2a9"/>
 <path d="m42 373v2h2v-2h-2z" fill="#3e2c1e"/>
 <path d="m48 373-1 7 4-6-3-1z" fill="#ab979a"/>
 <path d="m202 373 5 7h1l-2-7h-4z" fill="#e3bd6d"/>
 <path d="m239 374 3 7c-3.181 3.776 3.09 5.307 6 5l-1 5 3 4c-8.509-4.426-14.574 0.978-13 10h1l1-8h1l-1 11h1l1-8 11-1c-0.91 3.984-1.068 6.364 3 8l3-3-1-3 3 1-8-23h-3l2 3-6 1-3-6v-4l-3 1z" fill="#d6ae6f"/>
 <path d="m180.33 374.67 0.334 0.666-0.334-0.666z" fill="#776e68"/>
 <path d="m38 376 3 3c-0.737 9.267 8.5358 7.732 4-1h-1l-2 3v-4l-4-1z" fill="#9f7a62"/>
 <path d="m93 376c-3.0124 8.265-0.3921 13.81 1 22h2v-8h-1v3h-1l-1-17z" fill="#9c837b"/>
 <path d="m109 376-1 7 4-7h-3z" fill="#6a554f"/>
 <path d="m112 376v3l2-3h-2z" fill="#bb9b7c"/>
 <path d="m257.33 376.67 0.334 0.666-0.334-0.666z" fill="#eddae0"/>
 <path d="m180 377 1 8h1l-2-8z" fill="#6d6771"/>
 <path d="m219 377-1 1c1.62 2.941 2.686 3.499 6 3l1 3c1.541-4.437-2.337-5.884-6-7z" fill="#907c77"/>
 <path d="m258 377 1 6h1l-2-6z" fill="#9f959e"/>
 <path d="m248 378v1l3 1-3-2z" fill="#f1dfbc"/>
 <path d="m273 378 1 4h1l-2-4z" fill="#e1c7d7"/>
 <path d="m283 378 8 17 1 7-3-1c1.509 5.239 8.609 30.322 15 20l-5-11c-5.441-7.182-0.319-20.17-11-24l-1-8h-4z" fill="#ddb985"/>
 <path d="m50 379v5h1l-1-5z" fill="#d4b4a7"/>
 <path d="m31.333 380.67 0.3334 0.666-0.3334-0.666z" fill="#f3d4bd"/>
 <path d="m47 380v6h1l1-6h-2z" fill="#d1bca9"/>
 <path d="m70 380-1 10h1v-4h1l2 26 3-2 1 4h1l-4.532-15-3.468-19z" fill="#e3bf85"/>
 <path d="m209 380c5.214 10.188 7.968 22.298 8 34 13.639-3.855-0.087-30.133-8-34z" fill="#44363c"/>
 <path d="m287 380 1 6c5.372 2.94 6.861 7.074 7 13l5 2v-9l4 2-1 5 4 4-3-1-3 7-1 2v1l7-3v5h1c3.385-14.729-7.795-20.635-11-33l-1-1h-6l3 4-6-4z" fill="#c39f7b"/>
 <path d="m53 381-2 21h1l2-7h1v3h1c0-5.264 1.6171-13.485-3-17z" fill="#735141"/>
 <path d="m62 381v13h1l4-10h-1v5h-1l-3-8z" fill="#ce9d5a"/>
 <path d="m48 382-3 5v23l3 2h1l-1-10c3.401-3.075 1.6848-15.949 0-20z" fill="#b59087"/>
 <path d="m49 382v5h1l-1-5z" fill="#62402b"/>
 <path d="m281 382 2 9h1l-3-9z" fill="#daaf7b"/>
 <path d="m185 384v3h1l-1-3z" fill="#8f6652"/>
 <path d="m255 384c1.476 6.16 3.959 20.213 9 24-2.032-8.862-1.978-17.437-9-24z" fill="#74472e"/>
 <path d="m30.333 385.67 0.3334 0.666-0.3334-0.666z" fill="#44363c"/>
 <path d="m60 385-2 9 2-1v1l-3 1 4 12h2l1-1-4-21z" fill="#e3cda7"/>
 <path d="m212 385v5l3-1-3-4z" fill="#665c5d"/>
 <path d="m36 386 2 7-2-7z" fill="#4b3a3f"/>
 <path d="m37.333 386.67 0.3334 0.666-0.3334-0.666z" fill="#e9c397"/>
 <path d="m88 386 1 27h1l2-10-4-17z" fill="#5a3631"/>
 <path d="m96 386v3h1l-1-3z" fill="#bca0a2"/>
 <path d="m216 386 2 5h1l-3-5z" fill="#937d95"/>
 <path d="m324 386v3l2-3h-2z" fill="#3a221d"/>
 <path d="m86 387 1 13h1l-2-13z" fill="#cda063"/>
 <path d="m37 388 6 10-6-10z" fill="#b68869"/>
 <path d="m45 388v7h-1v-4h-1v7h-5l4 9h3v-19z" fill="#93693c"/>
 <path d="m183.33 389.67 0.334 0.666-0.334-0.666z" fill="#ab979a"/>
 <path d="m32 390v3h1l-1-3z" fill="#4b3a3f"/>
 <path d="m64 406-3 1 6 9c6.1961-0.486 8.5556 0.58 13 5l-4-2-1 1 3 2-2 1v1c2.4638 0.259 4.7766 0.462 3 3l5 1 1-2-6-16h-1v4h-1l-1-4c-1.6993 1.275-4.5412 2.292-1 3v1l-8-10 2 8h-1l-4-13h1l1 4h3l-2-13c-6.0232 2.421-4.2553 10.727-3 16z" fill="#cba979"/>
 <path d="m231 390 5 24 4 1-9-25z" fill="#9c837b"/>
 <path d="m318 390-2 2c1.916 7.213 1.335 9.745-7 11l1 22 14-3-1-3 6-6 3 1c-0.633-7.934-15.128-1.999-22-2 0.432-5.675 3.68-7.794 9-9l-1 3v1c2.851-0.614 2.854-1.303 2-4l2 3h1l3-7-3-6-3 1-2-4z" fill="#59413a"/>
 <path d="m324 390c1.463 8.136 3.716 11.627 1 20l18-7-14-8 1-4h-1l-1 3h-1v-4h-3z" fill="#382f2f"/>
 <path d="m34 391-1 3 1-3z" fill="#9b7c72"/>
 <path d="m35 391v6h1l-1-6z" fill="#c4a395"/>
 <path d="m56 391v7h-1v-3h-1l-2 9h1l1-5 3 1 6 20c2.4871-0.793 4.5306-1.904 3.8781-5.019-0.777-3.71-4.445-6.68-6.197-9.98-2.436-4.59-2.746-9.43-4.681-14z" fill="#bb9361"/>
 <path d="m36 392-2 4 5 11 3-1v-2l-4-6 3 1-2-7h-3z" fill="#8d7261"/>
 <path d="m221 392 3 25h-1v-6l-6 3 5 29 23-9-4 14c5.009-3.185 10.008-7.268 12-13h1l-2 11 7 2-7-20-3 1v-6h-1v6l-8-18-3 4 6 11-6 4c1.436-9.02-2.088-27.585-10-33v5h-1l-5-10z" fill="#574748"/>
 <path d="m300 392v9l-2-2h-1l2 11 2 10 7-1v4l-10 1 12 5-1 3 2 1h1l-3-21h-1v2h-1v-5l-7 3v-1c1.91-0.579 3.334-0.985 1-2l3-7 3 1-4-4 1-5-4-2z" fill="#b07d4f"/>
 <path d="m310 394-1 4h7l-5 3c2.409 0.929 9.805-0.081 6.914-4.277-1.467-2.128-5.618-2.276-7.914-2.723z" fill="#8d7261"/>
 <path d="m91 395v8h1l-1-8z" fill="#9e8575"/>
 <path d="m263 395-1 13c1.524 5.265 6.371 17.505 3 22 5.066 2.322 8.782 1.026 8-5l-5 1c1.669-9.865 3.113-23.352-5-31z" fill="#805b4b"/>
 <path d="m239 397-1 10h1v-10z" fill="#e1cdb3"/>
 <path d="m326 397v10h1l-1-10z" fill="#23181d"/>
 <path d="m94 398 2 12h1c0-4.386 1.0329-9.385-3-12z" fill="#c39d82"/>
 <path d="m204 398 5 14 3 3-2-2h-1l4 25 3 1v1l-8-2 3.372 15.83-6.37 11.17 9-1c-1.876-4.171-2.206-7.443 2-10v-4l3 3h1l-4-12h4l-5-34-11-9z" fill="#daaf7b"/>
 <path d="m222 398 1 19h1c0.847-6.959 2.611-12.812-2-19z" fill="#7e6f75"/>
 <path d="m45 399 1 9h1l-2-9z" fill="#7a4218"/>
 <path d="m54 399v4h1l-1-4z" fill="#6f5b56"/>
 <path d="m64 399 4 13h1l-5-13z" fill="#bb9361"/>
 <path d="m94 399-4 13 6-2-2-11z" fill="#865b3b"/>
 <path d="m241 400-1 11h2v-4h1l4 3 2 15 5-1-3-4v-1l2-2h1l1 4 3-1-4-5h5v-1l-8-3 5-3v-1c-4.288-1.581-4.669-3.672-4-8l-11 1z" fill="#dfc2a9"/>
 <path d="m285 400v1h3v13h1l2-5h1l-2 5v1l3 2-5-1c0.237 6.18 5.769 15.643 9 5l-7 1v-5h1l5 3-8-21-3 1z" fill="#77626e"/>
 <path d="m55 400-6 24-3-1 1 3-3 3h4c0.4874-3.543 2.7091-3.774 6-4v-1l-2-1 4-1-1-9 10 9-2-2-6-20h-2z" fill="#ddb985"/>
 <path d="m330 408 2 5c8.605-3.715 12.52-10.657 23-10-6.149-6.434-18.795 1.469-25 5z" fill="#665c5d"/>
 <path d="m87 401v4h1l-1-4z" fill="#daaf7b"/>
 <path d="m257 401 1 3-3 1c1.666 4.451 6.782 6.988 4 12v1l5 3h1c-0.877-6.515-1.427-17.023-8-20z" fill="#c48e64"/>
 <path d="m324 401-1 5h-1l-2-3-2 4v-1l2-1-1-2c-5.811 0.774-8.804 3.016-9 9 10.116 7e-3 15.899 1.011 16-11h-2z" fill="#836765"/>
 <path d="m189 402 1 6h1l-2-6z" fill="#382f2f"/>
 <path d="m338 412 14-9c-5.972-1.467-13.08 2.993-14 9z" fill="#23181d"/>
 <path d="m215 403-1 3 2 6h1l-2-9z" fill="#946a44"/>
 <path d="m345 409 10-5c-4.285-1.624-7.811 1.406-10 5z" fill="#836765"/>
 <path d="m35 409h5l-1-3-4 3z" fill="#574748"/>
 <path d="m40 406v4h1v-2h1l-2 5 4-1-1-3 3-1-6-2z" fill="#b79d87"/>
 <path d="m191.33 406.67 0.334 0.666-0.334-0.666z" fill="#6d6771"/>
 <path d="m242 407-1 6 4 2 2-5-5-3z" fill="#e3bf85"/>
 <path d="m30 409c2.7688 2.088 4.3825 2.305 7 0h-7z" fill="#23181d"/>
 <path d="m41 408-3 2v5h1v-4c2.3905 0.012 3.1166-0.687 2-3z" fill="#955b25"/>
 <path d="m192 408 4 12 3 1-7-13z" fill="#66515c"/>
 <path d="m251 411 8 3v1h-5l4 5-2-1v1l5 4-2 3 9 5v-1l-3-1c3.273-5.25-0.163-11.051-6-12 3.841-5.985-3.48-13.19-8-7z" fill="#d3b68c"/>
 <path d="m338 413 8-3c-3.562-2.321-5.682-0.034-8 3z" fill="#574748"/>
 <path d="m4 413c1.7408 8.354 9.3506 6.054 16 6l-6-6h11v-1l-4-3-17 4z" fill="#23181d"/>
 <path d="m20 411 5 1v1h-11l6 2 3 4 1 4v-3c5.9578-0.194 8.4831-2.729 11-8-4.9295-2.761-9.8994-4.055-15-1z" fill="#4b3a3f"/>
 <path d="m269 409 1 16h3l-4-16z" fill="#ae9471"/>
 <path d="m291 409c-2.773 4.44-5.965 5.345-11 6v1c4.846-1e-3 13.885 0.41 11-7z" fill="#c2b9b2"/>
 <path d="m195 411c3.927 10.454 7.931 27.546 21 29v-1l-3-1 2-2-4.305-13-5.695-12-6 2-4-2z" fill="#e3dcce"/>
 <path d="m335 411-6 2-6 8 16-5v1l-2 1 4 2 1-5-7-4z" fill="#2e2025"/>
 <path d="m35.333 412.67 0.3334 0.666-0.3334-0.666z" fill="#e3cda7"/>
 <path d="m93 412-1 4 1-4z" fill="#735141"/>
 <path d="m34 413-6 11h1l6-4-1-7z" fill="#907c77"/>
 <path d="m48 413-3 1-2 1-1 3-2-2-6 2c-0.4321 3.214-1.8903 3.733-5 4l10 3-3 1 4 4 1-6h1v3c3.034-0.496 4.0714-0.874 4-4l3 1c1.9875-4.208 1.9433-7.294-1-11z" fill="#735141"/>
 <path d="m55 413 1 9-4 1v1c6.8949-1.068 10.157-7.397 3-11z" fill="#c3996a"/>
 <path d="m341 414v6l-4-2 2-1v-1l-9 5 19-1c-2.347-3.434-3.524-6.175-8-6z" fill="#50413a"/>
 <path d="m35 414-1 4 3-4h-2z" fill="#c39d82"/>
 <path d="m46 414 1 1-1-1z" fill="#f9c9cd"/>
 <path d="m236 414 1 16 6-4-7-12z" fill="#342b26"/>
 <path d="m325 414-2 3c2.251-0.473 3.118-0.86 2-3z" fill="#23181d"/>
 <path d="m18 415 3 3-3-3z" fill="#7e6c66"/>
 <path d="m68 415 2 4 2-3-4-1z" fill="#876f70"/>
 <path d="m72 415c-1.4066 12.172 7.4833 16.334 17 20l-10-8 2-2-5-1v-1l2-1-3-2 1-1 4 2-8-6z" fill="#e7c188"/>
 <path d="m89 415 1 5h1l-2-5z" fill="#4f3022"/>
 <path d="m194 415 4 4-4-4z" fill="#2e2025"/>
 <path d="m290 415v1l3 1-3-2z" fill="#74472e"/>
 <path d="m294 415 2 3-2-3z" fill="#d5c1bb"/>
 <path d="m346 415 5 4-5-4z" fill="#9a715e"/>
 <path d="m46.667 416.33 0.6666 0.334-0.6666-0.334z" fill="#c8b4a6"/>
 <path d="m68 416-4 9 7 3v1l-6 2 1 4 3-1c2.2056 5.589 4.841 9.137 11 10v-1l-5-1 2-4 5 4-4-7-2-1-4-3c1.78-6.527 1.2747-10.481-4-15z" fill="#74472e"/>
 <path d="m245 416 1 13h1c0.858-5.329 1.61-8.56-2-13z" fill="#b3a7b8"/>
 <path d="m275 416-2 9 6-2v-1l-5 1 4-7h-3z" fill="#f3d4bd"/>
 <path d="m91 417 2 11c4.9561-3.216 2.17-8.428-2-11z" fill="#735141"/>
 <path d="m253 417-2 2v1l2 3 8 3-8-9z" fill="#fbe7e7"/>
 <path d="m290 417 2 3-2-3z" fill="#cdc3c9"/>
 <path d="m8 419 4 7 4-2c1.0989 3.321 2.5902 3.737 6 4l1-9h-15z" fill="#47292f"/>
 <path d="m222 419-1 4 10 16c-0.647-7.416-3.69-14.732-9-20z" fill="#7e6c66"/>
 <path d="m307 419-6 1v1h3l-2 4 6-2-1-4z" fill="#ae9471"/>
 <path d="m310 425v1l29-5v-1c-3.534 0-8.988 2.952-8-1l-21 6z" fill="#745e5d"/>
 <path d="m24 420v3l5-3h-5m6 3 4-3-4 3z" fill="#2d1c17"/>
 <path d="m54 424v1c4.279 0 8.3058 0.736 11-3-4.6899-1.558-6.8962-0.545-11 2z" fill="#aa845a"/>
 <path d="m269 420-1 6h2l-1-6z" fill="#382f2f"/>
 <path d="m290 422 3-1-3 1z" fill="#564c3c"/>
 <path d="m293 420v1l3 1-3-2z" fill="#342b26"/>
 <path d="m35 422v1h4l-4-1z" fill="#b59087"/>
 <path d="m199.33 422.67 0.334 0.666-0.334-0.666z" fill="#5a3631"/>
 <path d="m280 426v1h8v-5l-8 4z" fill="#b07d4f"/>
 <path d="m23 423 1 2h1l1-2h-3z" fill="#8d8883"/>
 <path d="m24 430 7-4c-4.4223-3.629-6.4674-0.758-7 4z" fill="#665c5d"/>
 <path d="m250 427v1l2 3h1c1.959-5.305 5.375-3.9 7.181 1.005 2.484 6.742-0.663 14.737 6.819 18.995l-3-11c4.571 2.777 4.895 6.954 5 12h1l-1-20c-7.999-1.234-11.298-12.436-19-5z" fill="#b36d30"/>
 <path d="m14 424v2h2v-2h-2z" fill="#7e6c66"/>
 <path d="m22 424v5h1l-1-5z" fill="#665c5d"/>
 <path d="m29 424v1h9l-9-1z" fill="#917f69"/>
 <path d="m41 424v3h1l-1-3z" fill="#a78669"/>
 <path d="m91 424 1 5h1v-5h-2z" fill="#6d6771"/>
 <path d="m200 424 1 1-1-1z" fill="#805b4b"/>
 <path d="m219 424v4h1l-1-4z" fill="#9f7a62"/>
 <path d="m281.67 424.33 0.666 0.334-0.666-0.334z" fill="#eddae0"/>
 <path d="m288 424c0.956 4.462 9.044 4.462 10 0h-10z" fill="#62402b"/>
 <path d="m25 431 3 1v-3l7-3c-4.719-1.689-7.9998 0.783-10 5z" fill="#342b26"/>
 <path d="m28 429v3l11-6-11 3z" fill="#59413a"/>
 <path d="m48 425v4l-5-1 1 5 5-1-1-7z" fill="#cda063"/>
 <path d="m49 425v7l-5 1-1-3h-1l11 21 4-1-2-2 2-3-3-1 4-3-1-4c4.3182-0.921 5.5317-8.117 7-12h-15z" fill="#ba8330"/>
 <path d="m65 425-2 12 6 1-4-7 6-2-6-4z" fill="#48271f"/>
 <path d="m73 425-1 6 4 3-1 2h4l-6-11z" fill="#49342f"/>
 <path d="m247 425v4h1l-1-4z" fill="#7e6c66"/>
 <path d="m249 425 2 4v-4h-2z" fill="#7e6f75"/>
 <path d="m201.33 426.67 0.334 0.666-0.334-0.666z" fill="#49342f"/>
 <path d="m254 426 6 14c2.329-5.552 0.435-12.896-6-14z" fill="#dab77e"/>
 <path d="m270 426-2 3v1h4l-2-4z" fill="#333b3d"/>
 <path d="m274 426 1 11 6 1v-1h-2v-1h6l-4-3 1-3-4-4h-4z" fill="#e1c697"/>
 <path d="m311 426v1h4l-4-1z" fill="#3a262c"/>
 <path d="m254 427c-2.05 7.689 3.867 15.26 7 22h1c-0.156-7.345-2.313-16.967-8-22z" fill="#e7d2b2"/>
 <path d="m287 427v1h5l-5-1z" fill="#99888b"/>
 <path d="m291 428v1l7 1c-0.829-3.867-3.813-3.165-7-2z" fill="#8f6652"/>
 <path d="m298 427-2 5h13l1-3-12-2z" fill="#c69257"/>
 <path d="m288 429v2h10l-10-2z" fill="#66515c"/>
 <path d="m273 430-3 2v2l4 1-1-5z" fill="#62402b"/>
 <path d="m285 430v8c3.403-0.729 2.987-2.806 3-6h8l-11-2z" fill="#c2b9b2"/>
 <path d="m61 431v7h1l-1-7z" fill="#745c29"/>
 <path d="m78 431 3 24h1l1-3 3 1c0.8653 10.056-0.4215 15.168 12 13l3 2-5-4 1-15-4 2 1-4-5-1 1-6-4-2 1-3-1-2-8-2z" fill="#cda063"/>
 <path d="m274 431-4 11 5-1-1-3h4v-1h-3l-1-6z" fill="#fde3c0"/>
 <path d="m298 432v1l6 1v1h-2v1l4-3 5-2-13 1z" fill="#d6ae6f"/>
 <path d="m269 432v9l5-6-5-3z" fill="#010101"/>
 <path d="m288 432v1l6 3 1-3-7-1z" fill="#6a554f"/>
 <path d="m293 433v1h6l-6-1z" fill="#333b3d"/>
 <path d="m305 436c9.44-1.997 7.134 5.737 12.218 9.921 1.858 1.53 8.826 3.203 6.782 6.079v1l3 2-6 1h7v3h4c-1.481-9.533-6.74-16.334-14-22.186-3.994-3.219-9.482-6.092-13-0.814z" fill="#9c501a"/>
 <path d="m60 433v6h1l-1-6z" fill="#f1b756"/>
 <path d="m95 433 2 3-2-3z" fill="#dab77e"/>
 <path d="m204.33 433.67 0.334 0.666-0.334-0.666z" fill="#595133"/>
 <path d="m288 433 1 5h9v-1l-10-4z" fill="#23181d"/>
 <path d="m68 434 4 6-4-6z" fill="#9a715e"/>
 <path d="m85 434v1l1 3 4 2-1 6 5 1-1 4h3l-2-15-9-2z" fill="#b57c3c"/>
 <path d="m220 434 1 12h1l-2-12z" fill="#f3a652"/>
 <path d="m235 439v2c3.578 0.323 5.006-0.504 6-4l3 1 1-4-10 5z" fill="#7e6f75"/>
 <path d="m293 434v1l7 1-7-2z" fill="#a39493"/>
 <path d="m300 434 1 3 3-2-4-1z" fill="#f8dfb7"/>
 <path d="m205 435 3 7c0.849-3.608 0.34-5.282-3-7z" fill="#fdda82"/>
 <path d="m253 435-2 9h1l1-9z" fill="#10050d"/>
 <path d="m295 435v1l6 3-6-4z" fill="#735743"/>
 <path d="m305 436 2 10c7.271-0.629 6.078 7.513 11 11l-9-22-4 1z" fill="#e7c188"/>
 <path d="m309 435 6 15 12 5-3-2v-1l2-1-9.397-6.532-7.6-9.47z" fill="#ba7c2d"/>
 <path d="m79 436 2 3-2-3z" fill="#350e03"/>
 <path d="m95.667 436.33 0.6666 0.334-0.6666-0.334z" fill="#564c3c"/>
 <path d="m301 437 1 7h2l1-8-4 1z" fill="#bf7b39"/>
 <path d="m57 437 1 4c-3.0063 0-4.8722 3.149-1 4v5l-4-1h-1c0.5387 4.78 2.1614 6.626 7 7 0-5.412-1.6151-14.904 2-14l-1-5h-3z" fill="#a95f26"/>
 <path d="m241 437-5 8 8-7-3-1z" fill="#49342f"/>
 <path d="m252 437-7 11h1l6-11z" fill="#776e68"/>
 <path d="m291 437c2.174 4.624 6.038 8.523 11 10v-1l-1-4-5-1-5-4z" fill="#59413a"/>
 <path d="m77 438-1 4 6 2-5-6z" fill="#23181d"/>
 <path d="m274 438 1 3-5 1c2.766 3.787 5.981 2.061 10 1l3-4-9-1z" fill="#d6ae6f"/>
 <path d="m289 438 2 2v-2h-2z" fill="#c2b9b2"/>
 <path d="m296 438 3 3-1-3h-2z" fill="#b17171"/>
 <path d="m298 438 2 4 2-4h-4z" fill="#391b0a"/>
 <path d="m304 438 3 8-1-8h-2z" fill="#e59758"/>
 <path d="m271 439 1 1-1-1z" fill="#939787"/>
 <path d="m280 439v4l-8 2c2.353 3.73 6.788 4.308 11 4v-6l-3-4z" fill="#b36d30"/>
 <path d="m281 439 2 4v6c-6.393-0.054-10.347-2.037-13-8h-1c0.387 3.06 0.088 11.555 4.174 12.212 4.193 0.674 6.189-2.333 10.826-0.212h1c4.371-3.962 4.995-6.006 5-12l-9-2z" fill="#7a4218"/>
 <path d="m289 439 6 6-6-6z" fill="#3a262c"/>
 <path d="m291 439 8 7v-1l-8-6z" fill="#99888b"/>
 <path d="m230 442v1l5-3-5 2z" fill="#ab979a"/>
 <path d="m264 440v4c5.14 0 1.681 10.871-1 13v1l17 3c-2.948-2.841-7.613-4.569-9.682-8.209-2.73-4.8-0.27-10.38-6.32-12.79z" fill="#d79f53"/>
 <path d="m59 441c-0.414 4.962 1.6295 11.999-3 15v1h5l-2-16z" fill="#834416"/>
 <path d="m75 441 1 1-1-1z" fill="#d6b293"/>
 <path d="m208 441 3 15h1l-4-15z" fill="#fde3c0"/>
 <path d="m216 441 7 20h1l-1-16-7-4z" fill="#bb6b1e"/>
 <path d="m230 443 2 2-1 3c4.271 2.982 8.622 6.819 14 6l-11-6 3-7-7 2z" fill="#745e5d"/>
 <path d="m253 441-3 6 3-6z" fill="#887140"/>
 <path d="m223 442v1h5l4 4c-2.002-4.041-4.643-4.86-9-5z" fill="#967546"/>
 <path d="m237 444c2.696 1.765 4.137 1.043 5-2l-5 2z" fill="#ab979a"/>
 <path d="m250 442-3 5c2.749-0.958 3.801-2.092 3-5z" fill="#47292f"/>
 <path d="m265 443 1 4h1l-2-4z" fill="#f8d195"/>
 <path d="m301 443-1 3h3l-2-3z" fill="#c2b9b2"/>
 <path d="m82 444v3h1l-1-3z" fill="#67350f"/>
 <path d="m258 444v3h1l-1-3z" fill="#915b32"/>
 <path d="m226.67 445.33 0.666 0.334-0.666-0.334z" fill="#ffc397"/>
 <path d="m234 448 5 1 1-3-6 2z" fill="#d5c1bb"/>
 <path d="m240 445-1 4h1l2-4h-2z" fill="#6f5b56"/>
 <path d="m238 449v1l5 1 3-1v-5l-8 4z" fill="#9c837b"/>
 <path d="m259 445 1 4h1l-2-4m49 0 6 7c-0.898-4.071-1.681-6.281-6-7z" fill="#e0a65c"/>
 <path d="m225 446 4 3v-1l-2-2h-2z" fill="#9f7a62"/>
 <path d="m226 447 3 1v1h-2v1l8 2c-2.063-3.812-4.651-5.651-9-5z" fill="#5b2c1a"/>
 <path d="m252 448 3-2-3 2z" fill="#767b73"/>
 <path d="m262 446-1 17h1c1.11-7.3 5.892-10.118 0-17z" fill="#e3bf85"/>
 <path d="m236.67 447.33 0.666 0.334-0.666-0.334z" fill="#8d7261"/>
 <path d="m246 447-1 7h1l3-7h-3z" fill="#5d4018"/>
 <path d="m249 447 1 1-1-1z" fill="#ae9471"/>
 <path d="m236 448 5 3v-1l-5-2z" fill="#0f0101"/>
 <path d="m248 448 1 1-1-1z" fill="#c3996a"/>
 <path d="m258 448 2 7h1l-3-7z" fill="#b3823d"/>
 <path d="m241 451 3-2-3 2z" fill="#4e2506"/>
 <path d="m247 449 1 1-1-1z" fill="#a78669"/>
 <path d="m257 449 1 6-8 2v1l10-2-3-7z" fill="#dab77e"/>
 <path d="m60 450 1 7 2-2h2l2 2 1-1v-2l-8-4z" fill="#ae6b1d"/>
 <path d="m216 450-1 16c2.601 1.195 3.606 2.248 4-1h1v4l4-4-8-15z" fill="#e6cf9d"/>
 <path d="m231.67 450.33 0.666 0.334-0.666-0.334z" fill="#cba979"/>
 <path d="m256 450-8 7v1l5 1v-1h-3v-1c4.27-0.481 7.793-2.262 6-7z" fill="#c88a50"/>
 <path d="m316 450 1 8 4-4-5-4z" fill="#d79f53"/>
 <path d="m234 452 5 1-5-1z" fill="#9b875f"/>
 <path d="m285.33 451.67 0.334 0.666-0.334-0.666z" fill="#7e6f75"/>
 <path d="m83 452c-1.2377 3.731-0.4799 5.203 3 7v-6l-3-1z" fill="#b57c3c"/>
 <path d="m97 452-1 12 5 4-3-2-8 3 12 6v-4l4 1-3-3v-1l6 3-10-19h-2z" fill="#b3823d"/>
 <path d="m257 452v3h1l-1-3z" fill="#884e2d"/>
 <path d="m270 452c1.512 4.472 5.776 6.38 10 8v1l-18-3v7l5-4 5 3-1 4 4-2-2 4 2 6c4.524-0.99 5.922-12.6-1-11l2-4 8 2v-1l-14-10z" fill="#9c501a"/>
 <path d="m237.67 453.33 0.666 0.334-0.666-0.334z" fill="#623832"/>
 <path d="m99.333 454.67 0.3334 0.666-0.3334-0.666z" fill="#745c29"/>
 <path d="m213 454-1 5 3 1-1 4h1l1-10h-3z" fill="#d9a84e"/>
 <path d="m250.33 454.67 0.334 0.666-0.334-0.666z" fill="#875824"/>
 <path d="m315.33 454.67 0.334 0.666-0.334-0.666z" fill="#655225"/>
 <path d="m63 455-2 2v1l4-3h-2z" fill="#933301"/>
 <path d="m221 455c0.301 6.239 0.046 9.847 7 11l-6-3-1-8z" fill="#cb9b35"/>
 <path d="m224.33 455.67 0.334 0.666-0.334-0.666z" fill="#74472e"/>
 <path d="m260 455-3 1v1l4 2-1-4z" fill="#a95f26"/>
 <path d="m319 458 4-1c0.931 4.323 4.307 2.431 5-1l-9 2z" fill="#c35f1a"/>
 <path d="m249 459v1c3.807 0.617 6.582 1.018 8-3l-8 2z" fill="#a64e24"/>
 <path d="m257 457v2h2v-2h-2m61 1v1l5 1c-0.683-3.123-2.087-2.5-5-2z" fill="#752b09"/>
 <path d="m325 457v2l2-2h-2z" fill="#eaaf6b"/>
 <path d="m199 465h5l-1 3 11-1-1 2h4v-3l-2-2-10 1 3-6-9 6z" fill="#fde3c0"/>
 <path d="m211 459 3 4 1-3-4-1z" fill="#c77929"/>
 <path d="m222 463 6 1-2-4-4 3z" fill="#9d4810"/>
 <path d="m195 466v1l5-1 2-3c-3.659-4.879-7.334 3.084-7 3z" fill="#f8d195"/>
 <path d="m276 461-2 4 3-1 3 12h9l-5-7 2 2v1l-5 3 1-6v-5h4l-10-3z" fill="#794710"/>
 <path d="m269 463 1 1-1-1z" fill="#a39493"/>
 <path d="m270 463-1 3 3-2-2-1z" fill="#010101"/>
 <path d="m201.67 464.33 0.666 0.334-0.666-0.334z" fill="#653a1e"/>
 <path d="m268 464 2 4-2-4m14 0v5l4-2c0.705 3.206 3.106 10.411 7 6l-4-2c3.354-4.147-3.751-6.545-7-7m-86.333 1.333 0.666 0.334-0.666-0.334z" fill="#64290d"/>
 <path d="m219 465-3 2-3 2 1-2-11 1 18 3-2-6z" fill="#f3a652"/>
 <path d="m221 471h-4v1l9-5 2 4c1.682-7.214-5.47-5.467-7 0z" fill="#ae6b1d"/>
 <path d="m202.33 466.67 0.334 0.666-0.334-0.666z" fill="#875824"/>
 <path d="m272 466 3 2-3-2z" fill="#391b0a"/>
 <path d="m281 466-1 4h1l2-4h-2z" fill="#bb6b1e"/>
 <path d="m195 467v1h4l-4-1z" fill="#875824"/>
 <path d="m224 467-3 6 7-1-2-5h-2z" fill="#7a3709"/>
 <path d="m270 467 1 1-1-1z" fill="#e5b17f"/>
 <path d="m272 467c-0.298 3.768 0.722 6.047 4 8v-5l-4-3z" fill="#c88a50"/>
 <path d="m281 475c2.133-0.699 5.273-1.866 3-4l2-4c-3.578 1.877-4.557 4.032-5 8z" fill="#aa5a1a"/>
 <path d="m103 468v1l3 3-4-1v4l6-1v2l3-5-8-3z" fill="#9d5f28"/>
 <path d="m199 469 4 2v-1l-4-1z" fill="#794710"/>
 <path d="m207 470v1h9l-9-1z" fill="#64290d"/>
 <path d="m277 471 1 4 2-4h-3z" fill="#54270f"/>
 <path d="m289 471v1l2 2h1l-3-3z" fill="#b76511"/>
 <path d="m107 474-2 1v1l2-2z" fill="#ca8831"/>
 <path d="m105 476v1h3l-3-1z" fill="#83331b"/>
</svg>
