<?xml version="1.0" encoding="UTF-8"?>
<svg viewBox="0 0 317.79272 390.21487" xmlns="http://www.w3.org/2000/svg">
 <defs>
  <radialGradient id="a" cx="155.16" cy="442.1" r="82.133" gradientTransform="matrix(.84685 .74448 -.91251 1.038 427.18 -131.85)" gradientUnits="userSpaceOnUse">
   <stop stop-color="#ffa600" offset="0"/>
   <stop stop-color="#ed4400" offset="1"/>
  </radialGradient>
 </defs>
 <g transform="translate(-91.879 -170.87)" stroke="#000">
  <path d="m252.23 340.89-29.045-12.994c-57.084 39.222-136.12 114.58-120.76 168.15 26.548 58.093 98.813 65.044 121.53 52.739 54.938-46.544 40.973-150.09 28.28-207.9z" fill="url(#a)" fill-rule="evenodd"/>
  <path d="m223.18 327.63 53.82-123.82 94.513-17.194 10.201 4.9649-82.864 21.672-47.389 126.11-28.28-11.735z" fill="#c87137" fill-rule="evenodd"/>
  <path d="m220.13 551.85c65.183-56.424 40.083-150.01 31.338-212.48 16.217 31.639 34.22 61.046 26.752 122.29-4.3503 30.716-8.0473 61.461-58.089 90.191z" fill="#a40" fill-rule="evenodd"/>
  <path transform="matrix(.92737 .37414 -.37414 .92737 168.98 -47.318)" d="m230.83 411.59a24.459 27.134 0 1 1 -48.917 0 24.459 27.134 0 1 1 48.917 0z" fill="#c5c5c5" fill-opacity=".75175" stroke-linejoin="round"/>
  <path d="m146.75 484.59-1.5287 9.9363 52.739 22.166 4.586-9.9363-7.6433 3.0573-45.096-19.873-3.0573-5.3503z" fill="#212121" fill-rule="evenodd"/>
  <path d="m250.7 340.13 48.917-127.64 79.985-20.637-8.3904-5.3006-80.272 15.237 84.347-21.401 16.815 7.6433-4.586 6.879-87.898 29.045-45.86 123.82-3.0573-7.6433z" fill="#a05a2c" fill-rule="evenodd"/>
  <path d="m288.19 193.82c-2.4786 0-4.4687 2.4771-4.4686 5.5364 0 1.2478 0.3481 2.3733 0.91261 3.3l7.6785-1.1182c0.23501-0.67236 0.37763-1.4034 0.37763-2.1818 0-3.0593-2.0216-5.5364-4.5001-5.5364z" fill="#241c1c" stroke-linejoin="round" stroke-width=".93747"/>
  <path d="m301.97 191.34c-2.2083 0-3.9814 2.2029-3.9814 4.9236 0 1.1097 0.31015 2.1107 0.81309 2.9348l6.8413-0.99442c0.20939-0.59795 0.33645-1.2481 0.33645-1.9404 0-2.7207-1.8011-4.9236-4.0094-4.9236z" fill="#241c1c" stroke-linejoin="round" stroke-width=".83449"/>
  <path d="m315.35 188.87c-2.1518 0-3.8795 1.9184-3.8795 4.2876 0 0.96637 0.30221 1.838 0.7923 2.5557l6.6662-0.86597c0.20403-0.52071 0.32785-1.0869 0.32785-1.6897 0-2.3693-1.755-4.2876-3.9069-4.2876z" fill="#241c1c" stroke-linejoin="round" stroke-width=".7687"/>
  <path d="m328.73 186.4c-1.9492 0-3.5142 1.7128-3.5142 3.8282 0 0.86282 0.27377 1.641 0.7177 2.2818l6.0384-0.77317c0.18481-0.46492 0.29698-0.97042 0.29698-1.5086 0-2.1154-1.5898-3.8282-3.5389-3.8282z" fill="#241c1c" stroke-linejoin="round" stroke-width=".6913"/>
  <path d="m341.7 183.16c-1.9492 0-3.5142 1.7128-3.5142 3.8282 0 0.86282 0.27377 1.641 0.7177 2.2818l6.0384-0.77317c0.18481-0.46492 0.29698-0.97042 0.29698-1.5086 0-2.1154-1.5898-3.8282-3.5389-3.8282z" fill="#241c1c" fill-opacity=".99301" stroke-linejoin="round" stroke-width=".6913"/>
  <path d="m354.54 180.96c-1.7465 0-3.1488 1.5072-3.1488 3.3688 0 0.75927 0.24531 1.4441 0.64309 2.008l5.4107-0.68038c0.1656-0.40913 0.2661-0.85396 0.2661-1.3276 0-1.8615-1.4245-3.3688-3.171-3.3688z" fill="#241c1c" stroke-linejoin="round" stroke-width=".61386"/>
  <path d="m320.62 212.75c-2.3121 0-4.1875 2.3725-4.1875 5.2812s1.8754 5.25 4.1875 5.25 4.1875-2.3412 4.1875-5.25-1.8754-5.2813-4.1875-5.2812zm-11.469 0.8125-1.375 2.4375 8.375 3.5 0.28125-4.5938-7.2812-1.3438z" fill="#241c1c" fill-opacity=".9965" stroke-linejoin="round"/>
  <path d="m332.99 209.23c-2.2051 0-3.9937 2.3775-3.9937 5.2925s1.7886 5.2612 3.9937 5.2612 3.9937-2.3462 3.9937-5.2612-1.7886-5.2925-3.9937-5.2925zm-10.938 0.81423-1.3114 2.4427 7.9874 3.5074 0.26823-4.6035-6.9442-1.3466z" fill="#241c1c" stroke-linejoin="round" stroke-width=".97762"/>
  <path d="m345.43 205.95c-2.0672 0-3.7439 2.2096-3.7439 4.9186s1.6767 4.8895 3.7439 4.8895 3.7439-2.1804 3.7439-4.8895-1.6767-4.9186-3.7439-4.9186zm-10.254 0.75671-1.2294 2.2701 7.4878 3.2596 0.25146-4.2783-6.5099-1.2515z" fill="#241c1c" stroke-linejoin="round" stroke-width=".91251"/>
  <path d="m357.88 202.4c-1.9293 0-3.4942 2.0416-3.4942 4.5447s1.5649 4.5178 3.4942 4.5178 3.4942-2.0147 3.4942-4.5178-1.5649-4.5447-3.4942-4.5447zm-9.5698 0.69919-1.1473 2.0975 6.9883 3.0119 0.23469-3.9531-6.0757-1.1563z" fill="#241c1c" stroke-linejoin="round" stroke-width=".84738"/>
  <path d="m368.56 199.14c-1.8611 0-3.3707 1.9285-3.3707 4.293s1.5096 4.2676 3.3707 4.2676 3.3707-1.9031 3.3707-4.2676-1.5096-4.293-3.3707-4.293zm-9.2318 0.66046-1.1068 1.9814 6.7415 2.845 0.2264-3.7341-5.861-1.0923z" fill="#241c1c" fill-opacity=".99301" stroke-linejoin="round" stroke-width=".8089"/>
  <path d="m380.18 195.9c-1.8611 0-3.3707 1.9285-3.3707 4.293s1.5096 4.2676 3.3707 4.2676 3.3707-1.9031 3.3707-4.2676-1.5096-4.293-3.3707-4.293zm-9.2318 0.66046-1.1068 1.9814 6.7415 2.845 0.2264-3.7341-5.861-1.0923z" fill="#241c1c" fill-opacity=".98951" stroke-linejoin="round" stroke-width=".8089"/>
  <path d="m276.45 204.65 21.619 9.7284h0.54046l-0.27023-0.27023" fill="none"/>
  <path d="m271.04 218.43 21.889 10.269" fill="none"/>
  <path d="m264.83 231.94 22.699 10.269" fill="none"/>
  <path d="m259.42 245.46 22.97 10.269" fill="none"/>
  <path d="m253.48 258.97 24.051 10.809" fill="none"/>
  <path d="m247.26 271.94 25.402 11.08" fill="none"/>
  <path d="m241.05 286.8 26.212 10.809" fill="none"/>
  <path d="m235.64 299.5 25.672 11.62" fill="none"/>
  <path d="m229.43 313.01 26.483 12.431" fill="none"/>
  <path transform="matrix(.83812 .35017 -.33814 .86794 172.58 -17.772)" d="m230.83 411.59a24.459 27.134 0 1 1 -48.917 0 24.459 27.134 0 1 1 48.917 0z" fill="none" stroke-linejoin="round"/>
  <path d="m197.54 389.76h19.727l9.9986 10.269-0.8107 21.348-11.35 11.89-20.267 0.54047-8.3772-9.9986-0.54046-21.889 11.62-12.16z" fill="none"/>
  <path d="m198.08 392.19-10.539 10.269 0.27023 20.267 8.107 9.4581 18.376-0.54047 10.539-10.809 0.8107-19.457-9.4581-9.7284-18.106 0.54047z" fill="none"/>
  <path d="m205.92 392.19-13.782 35.671 32.698-15.944-32.698-13.782 13.512 34.049 14.593-35.13-32.428 15.673 31.347 13.512-13.241-34.049z" fill="none"/>
  <path d="m278.88 204.92-123.77 287.53-0.54047-0.54047" fill="none"/>
  <path d="m281.26 206.66-120.91 287.34" fill="none" stroke-width=".99293"/>
  <path d="m283.77 208.1-119.56 289.06" fill="none" stroke-width=".99754"/>
  <path d="m286.47 209.06-117.49 289.02" fill="none" stroke-width="1.002"/>
  <path d="m289.3 210.48-115.17 290.2" fill="none"/>
  <path d="m292 211.53-112.49 291.54" fill="none"/>
  <path d="m294.51 212.97-109.24 292.49" fill="none" stroke-width="1.0054"/>
  <path d="m296.97 213.88-106.91 293.5" fill="none"/>
 </g>
</svg>
