<?xml version="1.0" encoding="UTF-8"?>
<svg width="13in" height="18in" clip-rule="evenodd" fill-rule="evenodd" image-rendering="optimizeQuality" shape-rendering="geometricPrecision" text-rendering="geometricPrecision" version="1.1" viewBox="0 0 13000 18000" xmlns="http://www.w3.org/2000/svg">
 <defs>
  <style type="text/css">.fil0 {fill:black}</style>
 </defs>
 <path class="fil0" d="m2057 9938c21-17 16-21 31-25 6 5 23 25 23 33-18-4-39 4-54-8zm83 4c4-5 11-16 17-22 8 4 12 9 19 18l-14 4c-8 1-15 0-22 0zm-40-42c6-11 9-23 20-30 29 32 35 39 10 68-7-5-11-13-15-18l-15-20zm176-10l-2 19c9-2 11-7 15-12l18 12-26 10-23 6c-9-22 0-6-16-23-12-13-5-28 6-46l2-2c0-1 1-2 1-2l7 9c5 7 2 4 8 10 5 6 11 11 10 19zm82 4c8-9 13-10 18 1-1 1 0 3-7 2-14 0-7-1-11-3zm-198-5c-13-4-15-11-18-22l31 2-13 20zm-82-23c2 0 12 1 12 1 6 1 3-2 11 6l-7 12c-11-4-7-1-12-9 0 0-4-9-4-10zm226 22c2-16 11-31 21-39 8 5 25 20 28 28-5 10-10 21-19 24-14 5-24-5-30-13zm-311-38c24 6 45 11 67 15 13 36 15 19 18 27 3 11-15 23-21 29l-10 10c-8-8-13-16-19-28-12-25-9-9-4-35l-17 4c-8-16-10-5-14-22zm440 35c7 7 1 0 6 7 3 5 1 2 3 6h-16c-17-6-7 1-27 0-20-27-15-11-23-26l18-26c8 8 14 15 22 20 12 8 4-1 11 9l6 10zm-233-9c30 42 0 10-8 53 20-4 20-14 33-20l3 4 17 8c-3 11 7 4-13 11-18 6-17 7-42 5-13-37-34-18-15-54 3-4 3-6 4-9 3-6 2-4 5-6 9-11 34-19 49-19 0 12-1 17-10 27-14-5-28-24-23 0zm-505-65c12-23 20-17 41-13 6 17 16 31 7 49-5 10-18 35-28 43-22-2-70-19-92-30-11-5-17-9-30-12 2-5 7-9 3-20-2-6-6-7-10-16 9-10 16-14 30-15 5 5 23 27 25 34-12 18-13-2-19 24 17-3 13-7 28-11 8 11 8 25 19 23 15-9-4-22-7-34 6-3 12-5 18-10 23 19 18 58 47 51-1-18-9-18-16-32-6-10-10-20-16-31zm-22-18l3 13c-7 9-12 11-21 15-4-4-24-27-21-36 5-16 30 1 39 8zm112-5l11-1c-2 21 21 52 28 68-9 15-21 18-27 36 15 0 10 2 20-8 7-7 7-8 16-12 9 6 8 7 12 15l-42 9c-13 3-32 6-48 1-14-2-13 2-25-5 1-18 7 6 21-39 10 4 8-5 22 30 10 5 5 7 17 6 4-26-39-41-20-68 9-12 11-7 15-24-15-3-10-1-19 11-7 9-3 4-7 7-7-7-9-8-9-19 14-5 4-2 18-3 13 0 2 1 17-4zm23 0c23 0 28-2 37 16 8 17 2 21-11 34-2-2-2 0-5-4l-21-46zm566 25c2 14 8 12 6 25-2 11-9 18-16 23-10-6-14-10-25-18-25-20-5-16-23-21-8 11-5 16-10 28l-14 26c-10-4-35-34-36-37 16-16 65-24 87-30 12-3 11-12 29-13 6-5-4-1 12-5 5-1 9-2 15-2l29 3c2 22 1 40-1 64l-25-26c4-11-1-4 6-10 5-10 4 2 3-16-11 2-11 5-17 13l-20-4zm-768-30c-5 4-23 15-27 17-8-14-4-21-15-32-13 19-4 33 4 44l13 25c-8-4-23-13-30-20-8-7-2-1-6-7-12-21 7-38 28-83l11-16c5 14-7 16 5 37 7 13 16 16 17 35zm324-844c3-5 17-21 21-24l31-6s2 1 3 1c6 12 8 24 6 39-8 6-26 18-34 25-10-6-25-26-27-35zm-12-11c-16-4-48-35 3-57 8-4 40-10 50-10l8 30c-3 2-3 2-9 4-50 15-31 21-52 33zm-33-53l-3 14c-10-4-6-2-10-9-10-6-3 1-9-10-3-6-6-10-8-16-4-28 72-46 97-49 2 17 8 24 11 39-78 18-27 3-78 31zm129 61c-5-8-36-96-36-107 14 5 22 5 35 12-7 14-8 28-4 47s8 22 5 48zm-171-99l-19-37c12-15 53-46 74-47s10 7 29-1c2 15 2 8 8 19 4 6 6 12 8 21-26-3-58 15-81 28-10 7-12 11-19 17zm-22-53c-17-30-6-32-3-39 5-14-5-35 20-41 7-2 9-1 16-3 16-4 30-11 53-2l10 41c-48-3-57 11-96 44zm-16-53l-25-68c30-17-7-8 49-29 33-11 39 1 68 8l6 33c-40 5-95 10-98 56zm-29-80c-6-6-15-28-14-38 2-17 12-26 28-30 34-8 62-4 96 0 4 13 6 21 6 37-29-5-38-18-94 12-15 9-9 6-20 17l-2 2zm-20-65c-1-19-4-24 1-44 36-27 110-30 122 24-59-5-83-4-123 20zm433-2c10 3 10 7 11 19l-17 1c-8 5-8 1-19 4l-11-23c-7-12-12-7-24-16 17-37 56 2 60 15zm21-52c18-1 25 5 36 14 9 8 15 21 15 34-6 6 1 1-6 6-5 3 0 0-7 3-10 4-7 1-18 7-14 4-11-1-11-2l-10-21c-8-3-13-12-17-18-6-3-8-4-14-9l-10-12c5-5 7-8 11-13 16 0 22 0 31 11zm-435-47c15-3 28-8 45-1 1 1 11 7 15 9 7 5 8 6 13 14-18-2-32-2-50 1-11 1-12 4-19 7-8 2-16 3-24 4 2-16 1-19 9-30 1-21-2-34 22-38-6 23-11 10-11 34zm155 100s2-2 2-1c1 2 4-11 19-15 14-14 87-54 93-11l-15 5c2 17 8 22 17 28l-8 13c3 8 3 6 9 11-16 21-26 17-34 44-6 18-21 51-7 63 12-1 3 6 11-5 1-2 2-12 18-34 9-14 23-21 25-41-14 2-17 13-33 21 3-18 17-19 28-34 13-18 15-25 35-31 5-10 8-15 24-12 10 2 21 7 24 15 7 16-6 39-11 54-5 19-10 30-14 52-3 21-5 42-10 61 5 4 2-1 3 7 0 3-1 9-1 13 0 8 1 17 1 25v19c-11 4-8-6-15 9 7 17 7 7 18 14l2 28c-3 5-3 3-7 6-22-37-87-75-136-82-6-18-14-28-21-44-7-15-12-32-19-46-17-32-19-120-36-161-53-124-85-77-94-102 5-2 17-6 23-9 6 11 22 19 31 27 11 10 21 18 31 28 13 13 13 22 24 36 18 23 13 12 15 45l8 4zm330-126l14-6c8-2 15-3 24-1 14 3 6 7 28 10h4s1 0 1 1c35 21 2 81-24 96-10 6-23 15-32 18-1-24-8-38-21-48-10-8-38-15-51-24 5-8 11-12 17-17 40 14 45 6 60 15 9 6 14 10 19 17 14 22 1 16 14 24 10-5 14-9 9-21-7-16-30-42-58-44-9 0-18 0-19-7 0 0 3-8 4-8 6-6 2-3 11-5zm-459-33c8 1 5-1 6 7-8-2-6 1-6-7zm29 2c2-7 2-6 6-12 11-15 1-7 16-11-4 9-11 21-22 23zm393 34c0-11 10-51 18-61 5 3 30 17 32 19v13c-12 8-15 4-26 11-15 8-5 12-24 18zm-410-47l-10-15c20-5 7-6 22-16 1 13 1 21-12 31zm16-68c13-1 15 9 10 17l-10-17zm21-26c13 3 17 10 25 25l-9-4c-1 0-2-1-2-1-1-1-2-1-2-2-9-7-11-7-12-18zm148-4h9c2 19 0 13-13 27l8 38c14-1 11-1 16-11 25 4 33-2 58-6 17 32 39 103 30 137-8 4-31 8-41 9-11 2-38 5-47 9l-42 13c-15 6-17 15-37 19-21-31-34-58-56-77l-11-10c-12-11-20-14-27-25 6-17 24-21 45-42 18 9-14-11 8 7 5 4-6 1 9 5 7-18-3-17-6-36-5-22-4-17-12-35 39 10 43 6 77 1 16-14 7-17 24-17-2-13-2-17 3-27l5 21zm61-26v1l9 12c4 6 7 8 8 12-6-1-20-10-17-25zm-16-47c9 18 1 17-1 20-9-22 1-20 1-20zm-191-71l-9-7 14-3c6-10 5 0 31-17 12-8 26-10 40-8-31 10-52 46-76 35zm153-40c11 15-9-6 20 31 22 28 46 72 51 108-15-9-52-99-67-122-4-5-12-12-4-17zm-33 19c11 2 7 2 18 6-2 24-5-10-1 36 2 28-6 12-10 36 30-1 21-38 27-53 14 12 0-6 8 16 2 8 5 9 3 18-1 11-6 1 1 17 4 11 4 5 3 17 10 13 2 27 7 43 4 15 15 19 15 34 18 1 16 10 38 14l4-3c0-1 3-4 3-5 3 3 5 6 9 9 3 3 9 7 11 9-1 15-5 5 3 16 5 9 5 7 9 19l13 63v75c15-1 19-2 18-42-1-23-1-32-6-53 0-29-8-36-14-61 19 2 36 6 50 12-2 14-2 8-7 19-4 8-4 14-7 20-2 12-3 23-5 34-4 22-4 21 12 23 1-26 7-67 21-88 15-1 19 4 30 11-1 13-6 28-12 34 0 0-1 11-1 12-3 12 0 5-5 10 2 21-3 27-14 39-5 5-9 7-15 12-6 6-7 10-16 12-4 7-6 8-11 14-8 8-7 7-18 12-1 7-16 25-23 27-27 13 0-3-36 20l-3-4-5-5c-4-4-5-5-9-7 8-33 2-24-3-41 20-2 48-6 65-10l7-17c8-28-12-90-23-119-11-27-3-43-30-38-13 2-37-10-41-22l-16-78-13-7c-1 0-1-1-2-1-3-2 3-1-9-5-2 6 4 76-49 94-18 6-25 9-42 0-26-12-43-14-56-41-7-15-6-19-18-32-12-12-13-14-17-32 4-10 3-5 5-9l14-33c23 11 28 19 65-3 22-13 22-29 60-24l1-10c-16-4-6 1-11-7l20-16 9 16 20 2c-5 16 0-3-20 4-3 9-2 4-1 11zm-145-14c0-1 1-2 1-2l3-5c7-7 12-7 21-9 23-4 12-11 36-7 3 1 2 2 7 2 3 0 28-6 45 7-7 4 9 6-12 1-4-1-10-3-16-3-18-1-38 20-68 28-6-4-11-7-17-12zm157-48c16 4 22 15 17 34-9-4-6-4-11-13s-6-9-6-21zm-157 5c13-22 13-22 24-22-4 8-17 19-24 22zm104-21c-7 4-21 0-28-4 3-4 18 2 28 4zm-131 56c17-5-2 1 17-11l12-11c7-8 2-3 9-7 0 31-2 2-11 22-2 7 0 7-2 14-5 15-9 2 1 27 0 1-1 2-1 2-1 1-1 2-2 3l-16 11c-1 0-3 2-5 2l6-35c11-8 12-2 7-7-5-4-4-2-12-1-33 14-14 76-16 91-2 14-5 45-2 58 3 11 15 27 17 43 5 3 6-4-4 22-1 1-1 2-2 3l-15 73c-13 32-26 4-33 59-8 69-9 30-6 110 1 41 13 44 27 90 8 23 8-2 18 41 6 30 14 61 25 89l19 39c4 19-23 58-31 88l-58 312c-9 53-18 102-33 152-8 27-28 54-39 84-32 84-24 57-57 123-8 16-15 26-23 38-18 28-26 52-41 81-8 15-39 71-39 81 21 7 21 0 36 18 9 12 18 18 31 26 41 27 127 50 180 55 37 3 66-17 99-7-3 33-37 19-33 48 30 0 31-2 64-9 11-3 19-7 28-11 17-6 18-2 25-20 15 8 32 24 50 30 20 6 83 20 102 17 20-3 17 2 33 2l101-11c33-12 126-43 156-39 19 2 17 3 36 0 30-5 12-2 34 2v-60c-11-23 1-52-5-69l-16-66c-5-34-9-70-15-107-5-33-25-75-24-103-8-9-24-62-25-71l-26-107c-4-22-55-173-70-206-8-16-15-28-23-46-4-10-4-15-9-26-4-6-9-17-9-24l-22-40c-4-8-5-11-8-18-6-6-17-24-23-34-4-8-12-40-28-26-10 10 8 22 19 44 8 16 41 60 46 97 7 4 5 6 7 17 5 4 4 7 7 15 3 6 6 10 10 17 6 11 12 24 16 38 2 2 3 2 5 7s2 4 2 11l27 67c5 15 23 61 22 73 4 4 3 0 6 6 2 4 2 6 3 11 2 8 3 11 4 21 1 2 11 52 12 58 9 37 49 150 51 175 3 4 2 2 4 8 1 1 2 9 2 11 2 7 3 12 4 21 2 5 23 142 22 150 6 7 4 8 4 13-19 5-31 0-53 9-15 3-10 8-24 7-15-1-4-6-22 4-27 14-76 23-97 37-38 26-96 22-142 16-40-6-41 0-93-19-20-7-40-16-51 0 6 9 23 14 38 16 0 11 0 13 5 20 5 8 23 19-4 38l-3 13 11-1c5-9 8-15 18-19 5 6 7 12 11 19 9 14 8 1 11 20-14-4-34-6-43-14-5-1-8-1-11-3-8-4-2 0-6-5-15-6-9-7-29-7-1-16-4-29-5-47-2-14-7-37-8-48-1-17 1-35-1-53-2-16-6-26-6-47 1-38 5-71 3-107-2-34-7-69-1-105l-4-15v-21c-5-51-1-169 1-230 1-82-1-91 11-173l4-42c-2-10 0-6-8-10l-19 104c-7 79-5 148-6 227 0 38-8 77 0 114 7 35 0 72 1 110 1 37 8 63 4 107-2 25 2 135 7 162 5 20 5 30 6 52-8 4-10 3-17 8-8 5-4 6-16 10-15-10 7-7-25-11 6-13 20-14 23-23 6-16-1-13-2-14-14 6-6 9-21 18l-14-15c2-8 8-20 17-27 8 5 7 6 13 11 12 12 2 9 20 9-5-19-24-26-30-44-5-18 2-1 2-21-15-7-15-3-22-15-39 11-28-9-74 5-24 7-90 2-114-11-12-6-21-10-30-17-10-8-13-12-19-24l-16-24s-1-1-1-2c-1 0-1-1-2-1 12-27 22-38 36-58 2-4 4-8 6-11 17-28 35-70 49-101 6-14 12-30 19-46 19-46 41-74 50-149l19-113c6-39 15-76 18-116l36-166c7-15 13-34 21-48 12 3 17 11 25 20 7 8 10 14 18 23l-31 196c-5 36-19 165 11 196 1-13-24-79 8-235 3-15 4-34 7-48 7-29 11-59 18-90 12 1 51 52 56 60 7 11 7 16 25 17 2-22-8-19-13-40 9-5 24-21 35-22l16 43-20 34c-17-1-19-5-27 7 8 12 22 8 36 7 6-6 9-13 12-21 4-8 0-5 7-11 7 2 5 2 8 3 0 1 5 4 6 5-3-9-13-53-12-61-9-8-13-19-14-34l7 1c1-32-1-56 2-89 15 6 43 26 53 37 20 21 28 43 39 50l11-4c13-32-1-105-3-139 0-7 5-70 6-78 4-21 14-42 16-68 10-25 16-26 43-28v2l59-12c10-4 5-5 19-7 1 0 1-2 2-1l8-4c10-4 7-3 17-5 2-6-1-3 6-6l25-18c10-10 17-13 24-29s11-21 13-41c2-11 0-10 0-22-12-12 2-4-20-27-7 1-8 2-13 5-7-10-17-14-29-19-6-2-7-1-12-4 8-3 15 5 20-1 9-10-5-13-22-26-9-8-22-12-34-20-25-17-67-27-76-31-13-4-11-8-20-8-12 0-8 6-27 0 2-3 13-12 1-22-12-11-17-1-22-17-6-4-1 10-6-9-4-17 3-13-12-46-8-18-18-38-23-54-11-10-20-23-22-38-10-6-4-5-11-16-5-6-13-11-16-18-9-23 5-22-18-47-18-2-20 5-32 0-19-6-30-27-89-21-66 7-58 30-73 57-2 4-3-1-5 17z"/>
 <path class="fil0" d="m2514 9866c15-5 12-1 16 1-4 2 3 5-9 3-8-1-3-1-7-4zm30-32c1-12 10-28 14-35 21 5 11 9 26 21 0 0-2 0-2 1l-7 3c-13 7-15 9-31 10zm88-39c16 11 18 7 22 19-7 11-17 11-34 8l12-27zm-58-9c0-19 8-24 26-24 6 4 15 12 20 16-1 13-1 8-7 22l-9 15c-10-8-20-19-30-29zm94 25c5-14 12-28 22-41 6 4 11 6 16 13-4 9-10 11-17 17-7 7-12 8-21 11zm-130-7c-10-3-11-7-16-14s-7-8-12-14c21-17 55-4 28 28zm164-64c1 2 6 7 6 11 5 21-2 10-4 13-2-2-6 0-7-11 0-4 3-9 5-13zm-81 15c4-4 1-1 7-6l21-15c11 7 20 16 27 28-4 8-7 21-14 32-6-5-12-10-18-18l6-25c-13 3-8 9-20 14-7-6-3-2-9-10zm-163-620c9-5 8 8 7-6-14-14-14-39-26-54-16-21-7-6-20-37l-6-15c18 6 4-2 16 14 17 22 19 38 28 51 16 22 30 44 40 69 10 8 71 146 81 171l57 189c14 36 43 108 51 148 2 15 8 23 10 39 1 15-7 26-11 38-8-5-12-9-20-17 4-19 10-19 12-45-11 3-9-2-16 14-3 9-2 11-10 17-29 24-75 47-111 38-4 4 2 2-6 4h-13c-11 4-20 0-31-1-21-3-26-5-23 15 10 3 12 2 19 8 4 3 9 7 12 13-3 4-8 9-14 13l-14-20-8 2c1 18 5 14 8 30 0 0 12-1 0 21-7 12-8 4-9 22 17-2 16-7 22-21l21 1c0-12 0-7-3-16-5-6-4 2-4-11 0 0 1-14 1-16l20 18 12 13c-5 15-3 27-22 31-21 4-24 3-13 20-3 5-2 2-4 11-11 0-6-3-16 0-13 28 44 43 62 34 14-11 9-14 10-35 1-20 5-22-5-33l51-11c22-1 34 3 55-3 28-9 58-27 74-44 26-29-53-238-66-270-20-50-24-118-70-222-28-63-56-137-96-199l-45-74c-11-12-16-19-26-33-9-13-19-22-27-33-16-26-34-50-51-68-20-21-37-40-61-60-11-8-26-17-36-25-16-11-19-17-33-27-13-9-25-13-40-22-13-7-25-25-38-5 5 12 1 6 13 12l69 43c79 59 40 30 118 103 19 17 23 33 40 50 19 21 19 35 26 50 1 2 3 6 3 7l56 114z"/>
 <path class="fil0" d="m1971 9222c-1-7 6-5 10-2l-10 2zm7 13c12-8 35-21 51-23-7 14 7 4-27 19-4 2-19 13-21 6-1-1-2-1-3-2zm87-42c0-6 4-1 4 0 1 6-5 2-4 0zm-17-132c14 11 7 3 14 23 5 12 10 19 12 30 5 22 14 46 15 68 6 6 1-6 6 8 2 8-1 5-2 6l-7-15c-12-12-4-20-20-30-9 8-6 3-5 18-19 0-20-6-33-11-20-7-16-3-24-21-14-33-1-59-10-78-7 2-7-1-10 10-5 13-2 55-2 67l7 7c0 15-3 17 5 24l-55 11v14c12 11 23 64 41 70l8-20c18-2 39-19 95-28 8 13 9 21 22 24 11-10 6-16 1-26 20-20 23-8 47-5l5-32c-3-22-17-7-34-9-4 8-3 8 1 17 15 1 12-5 22 1l-36 5-5-29c-1-9-10-35-13-50-5-21-16-26-17-50l-14-18c-9-7-8-9-22-11-3 27 0 13 8 30z"/>
 <path class="fil0" d="m2175 9246c11 37 10 123 9 168-1 15 3 17 2 30 0 8-3 22-4 33-1 12 2 22 1 33-1 53-9 89-19 139-9 43-21 78-27 120 10-3 4-2 12-19l2-2c2-21 15-65 20-88 32-141 17-165 26-294-6-19-1-54-4-76 0-9 0-20-2-27-3-12-5-11-4-27l-11 2-1 8z"/>
 <path class="fil0" d="m2226 9316l5 13s1 10 1 11c1 10 0 15 1 26 5 16 3 40 5 58 1 14 3 16 5 27l7 88c2 22 4 37 6 57 6 1 2 4 5-5 3-25-4-119-7-147l-11-130-10-3c0-5 2-15 2-15l-2-9c-9-7-5-5-7-19-2-11-1-10-5-19-8-16-4-21-9-39-9-7-5-11-5-24l-3-7-11-4c15 25 7 9 8 32 1 5 6 26 8 37 5 23 14 54 17 72z"/>
 <path class="fil0" d="m2106 8643c-1 11-27 44-52 49 5-10 5-6 9-17-23 4-34 22-40 44 30-10-7-14 46-8-7 13 4 6-13 9v4c0 3 6 5 0 18l13 6-4 13c0 1 1 2 1 3l3 16c2 5 2-7 4 11l10 2 6-15-7-9-2-2-4-4c5-6 0 0 6-6 1-2 2-3 5-7-4-17-8-11-6-26 3-21-1-11 0-27l40-42c6-17 14-38 2-56-22 9-1 38-17 44z"/>
 <path class="fil0" d="m1797 9444c-11-177 24-304 24-350-17 21-17 56-24 98l-9 123c1 13 3 6 4 17l1 92c-3 20 1 15 4 20z"/>
 <path class="fil0" d="m1875 8280c8 5 2 6 12 8 16 3 13-6 14-12-5-13-5-3-12-22-3-10-7-16-12-24-24 4-34-2-39 26 20 9 14 1 32 2l5 22z"/>
 <path class="fil0" d="m2136 8780c-5 11-3 6 19 28l57 50c17 14 9 15 32 22 1 10 3 22 15 17-4-11-2 3-12-21-16-6-5 1-15-10-6-6-8-7-14-13-10-10-18-17-27-27-11-11-12-16-25-28-12-10-15-25-30-18z"/>
 <path class="fil0" d="m1915 8291l-6 6c-15-3-11-5-25 0l-2 11c17 5 22 13 44 4 26-12 34-36 15-33h-2l-24 12z"/>
 <path class="fil0" d="m1958 8229c1-13-4-17-9-25-42-3-44 19-41 27 5 10 17 4 24 2 11-4 15-2 26-4z"/>
 <path class="fil0" d="m1822 9087l33-117c4-17 3-14-2-19-8 12-34 125-34 125 0 19 1 7 3 11z"/>
 <path class="fil0" d="m2252 8996c10-13-10-23-18-44-5-16-20-37-29-49-5-7-4-4-7-7-11-14 1-9-13-13l42 69c6 11 17 38 25 44z"/>
 <path class="fil0" d="m2074 8973l4-6c-4-16-11-31-14-47-1-11-2-13-4-23-2-5-1-10-2-14-2-9 1-4-6-12-2 1-11-2-1 27l22 69c2 6 0 2 1 6z"/>
 <path class="fil0" d="m2265 9034c4 8 3 8 8 16s7 9 5 21c2-1 14 5 6-17-3-7-3-2-6-16h2c-8-8-1 1-6-7 0 0-3-7-4-7-6 3-4-9-5 10z"/>
 <path class="fil0" d="m2076 8811c14 3 6 16 10 8 0-1 1 2 2 3 7-4 9-6 13-10-3-15-8-12-26-12l1 11z"/>
 <path class="fil0" d="m1996 8417c12-8 21-30-3-27-5 15-5 19 3 27z"/>
 <path class="fil0" d="m2284 9088c15 26 7 37 22 44-3-6-5-16-7-23-3-13-6-17-7-27l-7-6c0-1-2-1-2-2l1 14z"/>
 <path class="fil0" d="m1924 8438c12 12 17-1 18-10-9-1-30-4-18 10z"/>
 <path class="fil0" d="m1949 8444c15 3 15 1 17-15-17-1-16-1-17 15z"/>
 <path class="fil0" d="m1976 8439l13-6c-1-13 1-5-3-13-6 1-9-1-13 8-4 10 0 6 3 11z"/>
 <path class="fil0" d="m1920 8428c6-21-8-15-9-16 0-1-1 0-2 0-3 4-8-8-2 14l13 2z"/>
 <path class="fil0" d="m2175 8874c8-2 7 0 4-8-3 1-9-1-4 8z"/>
 <polygon class="fil0" points="2188 9153 2185 9153 2185 9158"/>
</svg>
